<svg xmlns="http://www.w3.org/2000/svg" viewBox="0 0 268.57 208.85"><defs><style>.cls-1{fill:#ffffff;}</style></defs><g id="Layer_2" data-name="Layer 2"><g id="joans-apple-bakery"><path id="joans-apple-bakery-path" class="cls-1" d="M92.54,164.58a7.81,7.81,0,0,1-.76,1.47,5.83,5.83,0,0,1-4.55,2.72,3.85,3.85,0,0,1-1.87-.42q-.38-.2-1.72-1l-3.18-2a.43.43,0,0,1-.17-.44,4.84,4.84,0,0,1,.59-1q.62-.74.71-.88a2.69,2.69,0,0,0,.35-.7,4.34,4.34,0,0,0,.79-1.07,4.43,4.43,0,0,1,.73-1,17.48,17.48,0,0,0,1-1.54q.71-1.21.94-1.55a7.67,7.67,0,0,1,.61-.8.3.3,0,0,1,.26,0l.22.06q.85.72,2.53,1.89t2.54,1.87a3.29,3.29,0,0,1,1.09,2.06A6,6,0,0,1,92.54,164.58Zm-3.71.86a2.31,2.31,0,0,0,.62-.64,5.42,5.42,0,0,0,.66-1.86,2.59,2.59,0,0,0-.66-1.72,9.08,9.08,0,0,0-1.45-1.3,2.82,2.82,0,0,1-.54-.31,1.05,1.05,0,0,0-.56-.25q-1.1,1.57-3.22,4.82l-.17.36a10.21,10.21,0,0,0,2.55,1.6,3.29,3.29,0,0,0,1.49,0A2,2,0,0,0,88.83,165.44ZM100,176.3a.55.55,0,0,1-.23.12L92,172.76a1.87,1.87,0,0,1,.2-.76q.11-.23.31-.57l.35-.55A35,35,0,0,1,94.65,167a34,34,0,0,0,1.76-3.91.47.47,0,0,1,.42-.08l7.11,3.43a1,1,0,0,1-.06.89q-.07.15-.25.46a2.82,2.82,0,0,0-.23.47.39.39,0,0,1-.51.13,21,21,0,0,1-2.1-1.06q-1.47-.83-2.07-1.12a9,9,0,0,0-1-.41.35.35,0,0,0-.31.17l-.21.33-.31.67a1.15,1.15,0,0,0-.1.72l1.54.73q.82.39,1.58.79a1.57,1.57,0,0,1-.23.82l-.37.78c0,.09-.18.13-.41.12l-1.48-.7q-.75-.35-1.5-.64l-.24.09-.9,1.9a1.75,1.75,0,0,0,1.33.81q1.52.74,4.52,2.13a1.05,1.05,0,0,1-.09.72c0,.09-.11.22-.22.39s-.18.31-.23.41A1.86,1.86,0,0,0,100,176.3Zm11.51,1.54-.59,1.74-.35.17a10.15,10.15,0,0,1-1.13-.29q-.63-.2-1.68-.62-1.25-.48-1.68-.62l-.88-.28-.34-.11a4.69,4.69,0,0,0-1.08-.23.7.7,0,0,1-.47-.7q2.27-6.45,3.36-10.11a1.44,1.44,0,0,1,.83,0,5.77,5.77,0,0,1,.65.27l.59.27a2,2,0,0,1-.09,1q-.06.2-.21.61t-.21.61l-.13.42q-.25.94-.93,2.81t-.93,2.81a1.11,1.11,0,0,0,.58.38l.56.17a2.19,2.19,0,0,1,.57.18q.35.09,1.26.4a7.13,7.13,0,0,0,1.28.4l.63.2A.5.5,0,0,1,111.47,177.84Zm12.13-4.72c-.11.16-.22.23-.32.2q-3-.64-5.34-1a1.1,1.1,0,0,0-.24.55c0,.1,0,.24,0,.43s0,.33,0,.43a.49.49,0,0,1-.1.24q-.22.58.08.63l3,.52.12.27-.32,1.83a.44.44,0,0,1-.4.23l-2.69-.64a.38.38,0,0,0-.32.33l-.13.53-.55,3.18L116,181l-.33-.06-.55-.09-.55-.09a.91.91,0,0,1-.73-.51q.29-1.34.69-4,.15-.65.36-1.82t.36-1.82a10,10,0,0,1,.48-2.79.3.3,0,0,1,.22-.07.51.51,0,0,0,.22,0q5.26,1.06,7.46,1.29a1.13,1.13,0,0,1,.18,1q0,.16-.14.56A3.25,3.25,0,0,0,123.6,173.12Zm4.33-1.32q-.09,1.33-.79,10.42a.43.43,0,0,1-.44.2l-.53-.06-.67-.11a.87.87,0,0,1-.59-.27l.83-10.37a.47.47,0,0,1,.35-.22l.46-.06.76.11A.74.74,0,0,1,127.93,171.8Zm13.58,9.9a.64.64,0,0,1-.21.28,5.54,5.54,0,0,0-.8.07q-.6.1-.82.11a1.24,1.24,0,0,1-1.21-.5,19.4,19.4,0,0,0-1.76-2.73,26.53,26.53,0,0,1-1.82-2.7,11.12,11.12,0,0,1-1.43-2.22.32.32,0,0,0-.31-.11,1.33,1.33,0,0,0-.18.8q0,.12.07.53a3.31,3.31,0,0,1,.05.61q.19,1.2.3,3.21.11,2.41.22,3.22a.88.88,0,0,1-.46.2l-.55.08-.85,0a.72.72,0,0,1-.66-.38,4.86,4.86,0,0,0,0-1.38,7.64,7.64,0,0,1-.06-1.33q-.15-1.18-.23-3.43t-.23-3.45a1.47,1.47,0,0,1,0-1.17,1.42,1.42,0,0,1,.65-.18h1.07a1,1,0,0,0,.44-.11h1.57q1.52,2.05,4.41,6.25h.08a28.52,28.52,0,0,0-.13-3.16q-.17-2.43-.2-3.19a1.86,1.86,0,0,1,.71-.25,6.85,6.85,0,0,1,.76,0h.76l.22.28a26.58,26.58,0,0,0,.07,2.73q.19,2.31.19,2.75Q141.3,179.41,141.51,181.69Zm14-8.21a5.9,5.9,0,0,1-.22,3,5,5,0,0,1-1.69,2.46,6.4,6.4,0,0,1-2.49,1.15,7.81,7.81,0,0,1-1.62.21,5,5,0,0,1-2.74-.85,5.07,5.07,0,0,1-2-2.15,8.43,8.43,0,0,1-.49-1.45,5.83,5.83,0,0,1,.85-4.87,13.69,13.69,0,0,1,1.69-1.56,8.35,8.35,0,0,1,1.49-.5,7,7,0,0,1,3.38,0l1.51.8A6.26,6.26,0,0,1,155.47,173.48ZM153,175.06a3.18,3.18,0,0,0-.05-1.19A4.29,4.29,0,0,0,151,171.3a3,3,0,0,0-2.07-.2,3.51,3.51,0,0,0-1.48.74,3.91,3.91,0,0,0-.82,3.51q.22.5.43,1a1.75,1.75,0,0,0,.69.8,2.88,2.88,0,0,0,2.7.8,3.09,3.09,0,0,0,1.68-1.06A3.52,3.52,0,0,0,153,175.06Zm15.67-11.45c0,.2,0,.31-.14.35q-2.78,1.22-4.93,2.3a1.09,1.09,0,0,0,.13.59q.06.13.21.37t.21.37a.49.49,0,0,1,.06.25q.16.6.43.46l2.76-1.35.26.15.81,1.67a.44.44,0,0,1-.19.42l-2.55,1.06a.38.38,0,0,0-.07.45l.2.5,1.42,2.9-.12.29-.3.15-.5.24-.5.24a.91.91,0,0,1-.89,0q-.55-1.26-1.78-3.65-.26-.62-.78-1.68t-.78-1.68a10,10,0,0,1-1.24-2.54.3.3,0,0,1,.14-.19.51.51,0,0,0,.16-.15q4.88-2.22,6.8-3.32a1.13,1.13,0,0,1,.72.69q.07.15.22.53A3.28,3.28,0,0,0,168.67,163.61Zm13.22,1.62a.68.68,0,0,1-.08.47c-.12.08-.29.2-.5.37l-.52.38a1,1,0,0,1-1,.1l-.75-.75a2.07,2.07,0,0,0-.9-.54l-1,.58q-.93.63-2.84,1.79a.68.68,0,0,0,0,.7,6.29,6.29,0,0,1,.24.71c0,.2.1.41.17.63a.83.83,0,0,1,0,.57,7.28,7.28,0,0,1-1.65,1.12.34.34,0,0,1-.25-.16,1.16,1.16,0,0,1-.13-.39,1.17,1.17,0,0,0-.1-.33,3.91,3.91,0,0,1-.16-1,2.52,2.52,0,0,0-.26-1,7,7,0,0,0-.42-1.8,6.92,6.92,0,0,1-.42-1.8q-.38-1.47-1.16-4.37a.51.51,0,0,1,.25-.46,3.37,3.37,0,0,0,.43-.33,9.58,9.58,0,0,0,1-.64,4.92,4.92,0,0,1,1.06-.58l.4.14q.77.57,4.27,3.34Q180.12,164.09,181.89,165.23Zm-5.55-1.47a2.91,2.91,0,0,0-1.24-.95,2.61,2.61,0,0,1-1.23-1l-.67-.56a1,1,0,0,0-.76-.28,10,10,0,0,0,.42,1.94,24.56,24.56,0,0,0,.83,2.72,7.14,7.14,0,0,0,1.32-.78l1.3-.91ZM192,156.24a.31.31,0,0,1,.12.43L190.6,158a2.24,2.24,0,0,1-1.29-.62l-1.15-1q-.53-.36-.69-.44a1.43,1.43,0,0,0-.81-.19l-1.44,1.22a9.54,9.54,0,0,0-1.32,1.34l.05.26,2.56,2.57a.43.43,0,0,1,0,.63l-.52.6-.49.4a.54.54,0,0,1-.6.11q-.74-.65-1.62-1.6-.54-.58-1.57-1.77t-1.54-1.74l-1.33-1.44q-.78-.81-1.31-1.46l.06-.34q.82-.65,1.86-1.61t3-2.72a2.8,2.8,0,0,1,1.62-.68,3.17,3.17,0,0,1,1.79.33,3.25,3.25,0,0,1,.94.72,3.57,3.57,0,0,1,.91,1.69,5,5,0,0,1-.16,1.45.9.9,0,0,0,.46.17,2.14,2.14,0,0,1,.5.1,8.49,8.49,0,0,1,1.74,1.11A10.47,10.47,0,0,0,192,156.24Zm-6.8-4-.52-.2a1.88,1.88,0,0,0-.59-.08,6.1,6.1,0,0,0-1.74,1.25q-1.5,1.45-1.56,1.48a1,1,0,0,0,.31.74,4.87,4.87,0,0,0,.46.4,4.79,4.79,0,0,1,.46.4l.24.26a.66.66,0,0,0,.33.06l1.61-1.43q.06-.08.86-.92a1.57,1.57,0,0,0,.56-1.06A1.85,1.85,0,0,0,185.18,152.23Zm8.8-15.73,8.58,6.53,0,.22s-.25.31-.66.89a3.07,3.07,0,0,1-.75.77l-.1,0a17.6,17.6,0,0,0-1.54-1.24,8.46,8.46,0,0,1-1.5-1.3,5.62,5.62,0,0,0-.53-.47,1.77,1.77,0,0,0-.62-.36,2.21,2.21,0,0,0-.45-.44l-.78-.48a2.37,2.37,0,0,1-.69-.61h-.21a5.34,5.34,0,0,0,.7,1.33q.78,1.11.86,1.25,1,1.49,3.21,4.39v.36l-1.19,1.57a.5.5,0,0,1-.59.07l-.61-.23-3.87-1.56a1.77,1.77,0,0,1-.86-.29,2.57,2.57,0,0,0-.83-.34,1.45,1.45,0,0,0-.73-.22,2.56,2.56,0,0,1-.66-.11s0,.09,0,.14a.31.31,0,0,1,.08.11q.73.52,1.89,1.4l1.92,1.43a20.52,20.52,0,0,0,2.15,1.43l.21.23a.2.2,0,0,1,.06.27q-.13.18-.35.54c-.18.29-.3.48-.37.57a1.31,1.31,0,0,1-.94.6l-2.1-1.64q-1.48-1.15-2-1.47l-.3-.33q-2.72-1.92-4.1-3.13v-.22l1.15-1.55a11.7,11.7,0,0,1,1.23-1.44,1.2,1.2,0,0,1,.74.12,3.48,3.48,0,0,0,.72.29q1.32.5,4,1.41l.6.27a1.13,1.13,0,0,0,.62.11,2.13,2.13,0,0,0-.35-.64l-.43-.57a31.62,31.62,0,0,0-2.67-3.69q-.22-.34-.28-.46a1.28,1.28,0,0,1-.19-.51l2.25-3Zm10.92-8.38a4.65,4.65,0,0,1,1.77.48,2.8,2.8,0,0,1,1.2,1,3.59,3.59,0,0,1,.26,3.07q-.15.49-1.38,3a7.66,7.66,0,0,1-3.66,3,.62.62,0,0,1-.27-.07,1.34,1.34,0,0,1-.56-.79q-.31-.83-.4-1l.1-.2a6.82,6.82,0,0,0,3.82-3.21,6.54,6.54,0,0,0,.39-1,7,7,0,0,0,0-.77,1.34,1.34,0,0,0-.29-.73,1,1,0,0,0-.94-.18l-.61.39a21.83,21.83,0,0,1-2.86,4,2.91,2.91,0,0,1-1.43,1,2.79,2.79,0,0,1-1.75,0,6.83,6.83,0,0,1-.89-.36,2.26,2.26,0,0,1-1-.9q-.94-1.81.44-4.58a10.15,10.15,0,0,1,3.95-4.23.73.73,0,0,1,.32.07,1.23,1.23,0,0,1,.49.69,2.27,2.27,0,0,0,.46.81.85.85,0,0,1-.09.36,1.52,1.52,0,0,1-.65.55,3.94,3.94,0,0,0-.76.5,15.37,15.37,0,0,0-2,2.51,3.58,3.58,0,0,0-.38,1.38.91.91,0,0,0,.37.7,1.42,1.42,0,0,0,1.23-.33,5.25,5.25,0,0,0,.83-1.1,7.93,7.93,0,0,1,.75-1.08q1.38-1.78,1.51-1.92A3.44,3.44,0,0,1,204.9,128.12Zm-83,67a2.88,2.88,0,0,1-.84,1.07,4.2,4.2,0,0,1-1.21.66,4.22,4.22,0,0,1-3.26-.49,3.51,3.51,0,0,1-1.21-1.42,3.08,3.08,0,0,1-.3-1.81,5.27,5.27,0,0,1,.07-.53,3.4,3.4,0,0,1,2.33-2.57,3.31,3.31,0,0,1,1.88-.15,3.63,3.63,0,0,1,2,1,2.71,2.71,0,0,1,.84,1.22.47.47,0,0,1,0,.11.26.26,0,0,1-.21.2l-.36.1a2.59,2.59,0,0,1-.68.11l-.14-.05a1.94,1.94,0,0,0-1.14-1.25l-.32-.07a2,2,0,0,0-2,.56,2.08,2.08,0,0,0-.66,1.24,2.2,2.2,0,0,0,.37,1.7,2,2,0,0,0,1.45.91,2.16,2.16,0,0,0,1.86-.72,2.26,2.26,0,0,1,.36-.49,1.09,1.09,0,0,1,.53.24,1.18,1.18,0,0,0,.51.25Zm9.61,3c0,.06-.09.13-.23.21h-.84a.64.64,0,0,1-.59-.35q0-.34-.1-.67a1.31,1.31,0,0,0-.26-.62l-.74-.08q-.74,0-2.21-.19a.44.44,0,0,0-.31.34,3.83,3.83,0,0,1-.15.45l-.16.38a.53.53,0,0,1-.23.28,5,5,0,0,1-1.31-.07.21.21,0,0,1-.07-.18.7.7,0,0,1,.09-.25.73.73,0,0,0,.08-.21,2.42,2.42,0,0,1,.31-.56,1.56,1.56,0,0,0,.24-.58,4.3,4.3,0,0,0,.49-1.07,4.33,4.33,0,0,1,.49-1.07q.39-.89,1.13-2.65a.34.34,0,0,1,.32-.14h.36a6.46,6.46,0,0,0,.79.07,3.4,3.4,0,0,1,.79.11l.16.23q.18.59.92,3.34Q131.06,196.91,131.54,198.17Zm-2.34-2.89a1.8,1.8,0,0,0-.27-1,1.62,1.62,0,0,1-.24-1c0-.18-.09-.36-.13-.54a.63.63,0,0,0-.29-.43,6.19,6.19,0,0,0-.55,1.14,14.93,14.93,0,0,0-.65,1.69,4.93,4.93,0,0,0,1,.12l1,0ZM143.38,191l.33,6.85-.1.1-.73,0a2.11,2.11,0,0,1-.71-.05l-.06,0a10.77,10.77,0,0,0,0-1.26,5.16,5.16,0,0,1,0-1.26,3.72,3.72,0,0,0,0-.45,1.08,1.08,0,0,0-.08-.45,1.35,1.35,0,0,0,0-.4c0-.05,0-.25-.09-.58a1.45,1.45,0,0,1,0-.59l-.09-.1a3.36,3.36,0,0,0-.38.88q-.23.84-.27.93-.31,1.12-.86,3.37l-.18.16-1.3.06a.33.33,0,0,1-.28-.26l-.14-.39q-.28-.85-.85-2.52a1.1,1.1,0,0,1-.22-.54,1.59,1.59,0,0,0-.18-.54.9.9,0,0,0-.2-.45,1.6,1.6,0,0,1-.22-.36s-.06,0-.06.07a.19.19,0,0,1,0,.08q0,.57.09,1.49l.09,1.52a12.69,12.69,0,0,0,.19,1.63l0,.2a.13.13,0,0,1-.11.14l-.42.05-.45.05a.88.88,0,0,1-.7-.21q0-1-.06-1.69,0-1.19-.09-1.56l0-.28q-.18-2.11-.16-3.28l.11-.09,1.27-.08a8.07,8.07,0,0,1,1.25,0,.75.75,0,0,1,.25.41,2.12,2.12,0,0,0,.16.47q.3.85,1,2.52.05.2.12.4a.71.71,0,0,0,.21.35,1.34,1.34,0,0,0,.17-.43l.11-.44a19.59,19.59,0,0,0,.74-2.81c.05-.16.09-.27.11-.32a.8.8,0,0,1,.18-.3l2.49-.15Zm4.72-.5q.14.84,1,6.57a.29.29,0,0,1-.25.19l-.35,0-.45,0a.58.58,0,0,1-.42-.08l-1-6.55a.31.31,0,0,1,.19-.19l.29-.11.5,0A.49.49,0,0,1,148.09,190.49Zm11.58,4.06a.42.42,0,0,1-.1.2,3.77,3.77,0,0,0-.51.14l-.52.17a.83.83,0,0,1-.85-.16,12.28,12.28,0,0,0-1.47-1.48,16.54,16.54,0,0,1-1.5-1.46,7,7,0,0,1-1.19-1.21.22.22,0,0,0-.21,0,.83.83,0,0,0,0,.52c0,.05,0,.16.11.32a2.14,2.14,0,0,1,.11.38q.26.73.58,2,.36,1.49.53,2a.6.6,0,0,1-.27.19l-.35.12-.55.1a.47.47,0,0,1-.48-.15,3,3,0,0,0-.17-.86,4.63,4.63,0,0,1-.2-.82q-.24-.72-.56-2.11t-.56-2.13a.91.91,0,0,1-.13-.73,1,1,0,0,1,.4-.2l.35-.06.34-.06a.72.72,0,0,0,.27-.12l1-.2q1.23,1.09,3.6,3.35h.05a17.5,17.5,0,0,0-.46-2q-.4-1.49-.51-2a1.26,1.26,0,0,1,.43-.24l.49-.12.5-.1.17.15a16.24,16.24,0,0,0,.37,1.7q.4,1.42.45,1.69Q159.26,193.15,159.67,194.55Zm9.62-7a3.66,3.66,0,0,1,.11,1.92,3.27,3.27,0,0,1-.9,1.72,4.36,4.36,0,0,1-1.53,1,5.36,5.36,0,0,1-1,.29,3.3,3.3,0,0,1-1.86-.27A3.19,3.19,0,0,1,162.6,191a5.16,5.16,0,0,1-.44-.87,3.65,3.65,0,0,1,.15-3.16,9.1,9.1,0,0,1,1-1.15,5.69,5.69,0,0,1,.93-.46,4.8,4.8,0,0,1,2.2-.34l1.05.36A3.88,3.88,0,0,1,169.29,187.56Zm-1.48,1.23a2,2,0,0,0-.13-.75,2.68,2.68,0,0,0-1.46-1.44,2.05,2.05,0,0,0-1.37.08,2.39,2.39,0,0,0-.9.61,2.46,2.46,0,0,0-.24,2.3l.36.6a1.11,1.11,0,0,0,.51.44,1.92,1.92,0,0,0,1.83.24,2.09,2.09,0,0,0,1-.83A2.24,2.24,0,0,0,167.8,188.79Zm6.3-1.57.73,1.49a1.45,1.45,0,0,1-.11,1.53l-.32.32a.28.28,0,0,1-.17,0,.52.52,0,0,1-.2-.23.77.77,0,0,1-.08-.43.81.81,0,0,0,.11-.65.31.31,0,0,0-.12-.13.38.38,0,0,0-.3,0,.37.37,0,0,1-.32,0l-.59-1.32.1-.19,1.11-.48Zm12.52-8.78a2.86,2.86,0,0,1,.17,1.35,4.17,4.17,0,0,1-.38,1.32,4.21,4.21,0,0,1-2.65,2,3.51,3.51,0,0,1-1.86-.14,3.08,3.08,0,0,1-1.49-1.06,5.21,5.21,0,0,1-.32-.42,3.4,3.4,0,0,1-.18-3.47,3.31,3.31,0,0,1,1.22-1.43,3.63,3.63,0,0,1,2.08-.69,2.72,2.72,0,0,1,1.46.27l.07.08a.25.25,0,0,1,0,.29l-.18.32a2.57,2.57,0,0,1-.4.57l-.13.06a1.94,1.94,0,0,0-1.69-.08l-.28.18a2,2,0,0,0-1,1.79,2.08,2.08,0,0,0,.41,1.34,2.2,2.2,0,0,0,1.46.93,2,2,0,0,0,1.67-.38,2.16,2.16,0,0,0,.81-1.83,2.25,2.25,0,0,1-.09-.6,1.09,1.09,0,0,1,.55-.21,1.18,1.18,0,0,0,.53-.18Zm8.91-4.67a.43.43,0,0,1,0,.31l-.29.29-.3.3a.64.64,0,0,1-.66.17l-.54-.41a1.31,1.31,0,0,0-.62-.25l-.58.47q-.55.5-1.69,1.43a.43.43,0,0,0,0,.45,3.92,3.92,0,0,1,.21.43l.16.38a.53.53,0,0,1,0,.36,5,5,0,0,1-1,.88.21.21,0,0,1-.17-.08.71.71,0,0,1-.11-.23.74.74,0,0,0-.09-.2,2.4,2.4,0,0,1-.18-.62,1.57,1.57,0,0,0-.24-.58,4.34,4.34,0,0,0-.41-1.11,4.33,4.33,0,0,1-.41-1.11q-.36-.9-1.08-2.68a.34.34,0,0,1,.13-.32,2.37,2.37,0,0,0,.25-.25,6.63,6.63,0,0,0,.61-.51,3.36,3.36,0,0,1,.64-.48l.27,0q.54.28,3,1.71A34.31,34.31,0,0,0,195.54,173.77Zm-3.7-.38a1.81,1.81,0,0,0-.87-.48,1.63,1.63,0,0,1-.87-.52l-.48-.29a.63.63,0,0,0-.51-.1,6.22,6.22,0,0,0,.42,1.2,15,15,0,0,0,.74,1.65,4.91,4.91,0,0,0,.79-.63l.77-.72Zm-76.56-18.44q0,.09-.14.26l-.37.13-.38.13a.61.61,0,0,1-.64-.13l-.3-.57a1.25,1.25,0,0,0-.43-.47l-.69.16q-.68.2-2,.52a.41.41,0,0,0-.17.4,3.67,3.67,0,0,1,0,.46c0,.12,0,.26,0,.39a.51.51,0,0,1-.12.33,4.77,4.77,0,0,1-1.2.35.21.21,0,0,1-.12-.14.66.66,0,0,1,0-.25.69.69,0,0,0,0-.21,2.32,2.32,0,0,1,.1-.6,1.49,1.49,0,0,0,0-.6,4.13,4.13,0,0,0,.1-1.12,4.11,4.11,0,0,1,.1-1.12q.07-.92.18-2.74a.32.32,0,0,1,.24-.22l.32-.11a6.16,6.16,0,0,0,.74-.18,3.19,3.19,0,0,1,.75-.15l.21.15q.35.47,1.88,2.71A32.8,32.8,0,0,0,115.28,154.94Zm-3-1.86a1.73,1.73,0,0,0-.55-.78,1.54,1.54,0,0,1-.53-.81l-.29-.45a.6.6,0,0,0-.39-.3,6,6,0,0,0-.14,1.2,14.25,14.25,0,0,0,0,1.73,4.67,4.67,0,0,0,.94-.21l1-.3ZM126,147.32a1.93,1.93,0,0,1-.35,2,2.49,2.49,0,0,1-1.05.71,11.37,11.37,0,0,1-1.29.35,7.53,7.53,0,0,0-1.25.36l0,.12a8.86,8.86,0,0,1,.3,1.14,7.6,7.6,0,0,0,.32,1.1l-.11.17a4.43,4.43,0,0,1-1.27.29l-.15-.08a16.08,16.08,0,0,0-.43-1.75q-.35-1.19-.45-1.74t-.39-1.39q-.24-1-.37-1.44a.21.21,0,0,1,.12-.14l.18-.09,2.16-.57q1.26-.32,2.19-.47a2.28,2.28,0,0,1,1.15.47A2,2,0,0,1,126,147.32Zm-2.3,0-.78.2-.81.21a7.67,7.67,0,0,0-.77.25,1.41,1.41,0,0,0,.1.6,2.4,2.4,0,0,1,.16.6l.09.11a2.74,2.74,0,0,0,.6-.15A2,2,0,0,1,123,149l.84-.23a1.28,1.28,0,0,0,.71-.44.9.9,0,0,0,0-.54Q124.39,147.3,123.74,147.33Zm11.7,2.26a.19.19,0,0,1-.06.26l-1.22.3a1.33,1.33,0,0,1-.53-.7c-.11-.29-.21-.59-.33-.88s-.2-.37-.25-.43a.87.87,0,0,0-.39-.33l-1.16.26a6.25,6.25,0,0,0-1.13.36l0,.16.64,2.1a.27.27,0,0,1-.19.34l-.47.18-.39.08a.34.34,0,0,1-.36-.11,13.43,13.43,0,0,1-.42-1.31q-.12-.46-.34-1.39t-.33-1.37l-.31-1.15q-.19-.66-.28-1.15l.14-.17q.65-.12,1.51-.35l2.46-.63a1.8,1.8,0,0,1,1.1.08,1.92,1.92,0,0,1,.89.68,1.89,1.89,0,0,1,.3.65,2.1,2.1,0,0,1,0,1.16,3.14,3.14,0,0,1-.52.74.54.54,0,0,0,.2.22,1.28,1.28,0,0,1,.25.2,5,5,0,0,1,.63,1.09A6.1,6.1,0,0,0,135.44,149.59Zm-2.56-4.06-.23-.25a1.12,1.12,0,0,0-.3-.21,4,4,0,0,0-1.34.19l-1.3.36a.59.59,0,0,0-.05.49,2.8,2.8,0,0,0,.13.34,2.78,2.78,0,0,1,.13.34l.06.21a.41.41,0,0,0,.16.13l1.31-.33.75-.25a1,1,0,0,0,.63-.42A1.09,1.09,0,0,0,132.89,145.53ZM144,144.11a3.48,3.48,0,0,1-.1,1.83,3.12,3.12,0,0,1-1,1.53,4.16,4.16,0,0,1-1.55.76,5.09,5.09,0,0,1-1,.17,3.14,3.14,0,0,1-1.73-.45,3,3,0,0,1-1.27-1.26,4.93,4.93,0,0,1-.33-.87,3.47,3.47,0,0,1,.47-3,8.61,8.61,0,0,1,1-1,5.4,5.4,0,0,1,.93-.34,4.57,4.57,0,0,1,2.12-.1l1,.45A3.7,3.7,0,0,1,144,144.11Zm-1.53,1a1.86,1.86,0,0,0,0-.72,2.55,2.55,0,0,0-1.23-1.51,2,2,0,0,0-1.3-.07,2.28,2.28,0,0,0-.92.48,2.34,2.34,0,0,0-.47,2.15q.15.3.28.6a1.05,1.05,0,0,0,.44.47,1.83,1.83,0,0,0,1.71.42,2,2,0,0,0,1-.68A2.14,2.14,0,0,0,142.5,145.12Zm9.88-4.56a4.54,4.54,0,0,1,.37.93,3.49,3.49,0,0,1-.63,3.18,2.49,2.49,0,0,1-1,.69q-.25.09-1.21.38l-2.29.65a.27.27,0,0,1-.27-.1,2.84,2.84,0,0,1-.2-.65q-.09-.58-.12-.68a1.58,1.58,0,0,0-.18-.44,2.53,2.53,0,0,0-.17-.78,2.56,2.56,0,0,1-.17-.74,10.21,10.21,0,0,0-.3-1.07q-.27-.8-.33-1a4.49,4.49,0,0,1-.12-.6.18.18,0,0,1,.1-.13l.12-.08q.69-.11,1.94-.42t1.94-.43a2.1,2.1,0,0,1,1.42.31A3.65,3.65,0,0,1,152.38,140.55Zm-1.15,2a1.36,1.36,0,0,0,0-.54,3.2,3.2,0,0,0-.59-1,1.63,1.63,0,0,0-1.08-.38,5.94,5.94,0,0,0-1.21.16,1.81,1.81,0,0,1-.37.13.69.69,0,0,0-.35.16q.28,1.13.91,3.39l.1.22a6.65,6.65,0,0,0,1.82-.54,2.09,2.09,0,0,0,.64-.67A1.17,1.17,0,0,0,151.23,142.6Zm9.19-6.37a22.68,22.68,0,0,1,.6,2.43q.24.69.31,1a3.11,3.11,0,0,1-.33,2.86,1.6,1.6,0,0,1-.77.7l-1,.42a3,3,0,0,1-3.13-.73,3.09,3.09,0,0,1-.73-1.41q-.07-.27-.18-.82t-.18-.82a3.75,3.75,0,0,0-.18-.53.54.54,0,0,0,0-.22,4.35,4.35,0,0,0-.15-.43,4.31,4.31,0,0,1-.16-.44,1.66,1.66,0,0,1-.06-.43l.12-.14.66-.18a2,2,0,0,1,.66-.09l.08.12q.16.53.37,1.49t.34,1.48a8.69,8.69,0,0,0,.46,1.34,1.57,1.57,0,0,0,.69.54,1.44,1.44,0,0,0,.86.08,3.7,3.7,0,0,0,.87-.4,1.11,1.11,0,0,0,.51-.76,10.17,10.17,0,0,0-.36-2q0-.12-.78-2.53,0-.17.27-.31l1.09-.28ZM170.49,138a2.74,2.74,0,0,1-.28,1.26,4,4,0,0,1-.76,1.07,4,4,0,0,1-3,.92,3.34,3.34,0,0,1-1.63-.72,2.93,2.93,0,0,1-1-1.42q-.09-.24-.16-.48a3.24,3.24,0,0,1,.94-3.17,3.15,3.15,0,0,1,1.55-.9,3.46,3.46,0,0,1,2.09,0,2.58,2.58,0,0,1,1.22.7.41.41,0,0,1,0,.09.24.24,0,0,1-.1.26l-.27.23a2.48,2.48,0,0,1-.54.38h-.14a1.85,1.85,0,0,0-1.5-.61l-.31.07A1.94,1.94,0,0,0,165.2,137a2,2,0,0,0-.06,1.34,2.09,2.09,0,0,0,1,1.3,1.9,1.9,0,0,0,1.62.19,2.05,2.05,0,0,0,1.3-1.38,2.14,2.14,0,0,1,.11-.57,1,1,0,0,1,.56,0,1.12,1.12,0,0,0,.54,0Zm7.33-5.36a.6.6,0,0,1-.06.26l-2.27.61-.07.11.65,2.44q.4,1.49.73,2.41v.2a.15.15,0,0,1-.1.15l-1.16.28a.3.3,0,0,1-.25-.22l-.09-.36-.13-.63a1.84,1.84,0,0,0-.21-.6l-.32-1.16q-.22-.79-.31-1.19l-.07-.26-.06-.22-.06-.22a.38.38,0,0,0-.29-.31l-.47.1-.85.25-.86.26a.34.34,0,0,1-.27-.15,2.42,2.42,0,0,0-.14-.57,1.15,1.15,0,0,1-.08-.55,2.34,2.34,0,0,1,1-.36q.64-.12,1.38-.32l1.55-.44,1.55-.44.87-.22a.91.91,0,0,1,.2.39q0,.1.07.35A2.19,2.19,0,0,0,177.82,132.6Zm-31.63,23.26a3.48,3.48,0,0,1-.1,1.83,3.12,3.12,0,0,1-1,1.53,4.16,4.16,0,0,1-1.55.76,5.09,5.09,0,0,1-1,.17,3.14,3.14,0,0,1-1.73-.45,3,3,0,0,1-1.27-1.26,4.93,4.93,0,0,1-.33-.87,3.47,3.47,0,0,1,.47-3,8.61,8.61,0,0,1,1-1,5.4,5.4,0,0,1,.93-.34,4.57,4.57,0,0,1,2.12-.1l1,.45A3.7,3.7,0,0,1,146.19,155.86Zm-1.53,1a1.86,1.86,0,0,0,0-.72,2.55,2.55,0,0,0-1.23-1.51,2,2,0,0,0-1.3-.07,2.28,2.28,0,0,0-.92.48,2.34,2.34,0,0,0-.47,2.15q.15.3.28.6a1.05,1.05,0,0,0,.44.47,1.83,1.83,0,0,0,1.71.42,2,2,0,0,0,1-.68A2.14,2.14,0,0,0,144.65,156.87Zm8.6-5.2c0,.12-.06.18-.13.19q-1.86.42-3.32.83a.65.65,0,0,0,0,.36,2.46,2.46,0,0,0,.09.25c0,.11.07.19.09.25a.29.29,0,0,1,0,.16q0,.37.21.32l1.86-.5.14.12.29,1.09a.27.27,0,0,1-.17.23l-1.7.35a.23.23,0,0,0-.1.26l.06.32.51,1.89L151,158l-.2.05-.34.09-.34.09a.58.58,0,0,1-.55-.09q-.18-.81-.64-2.37-.08-.4-.27-1.09t-.27-1.09a5.85,5.85,0,0,1-.45-1.66.19.19,0,0,1,.11-.1.33.33,0,0,0,.12-.07q3.28-.79,4.6-1.24a.67.67,0,0,1,.36.49c0,.06,0,.18.07.34A1.84,1.84,0,0,0,153.25,151.67ZM76.06,103.19l.21-.05c3.77-1,6.47-5.47,7.42-12.27C86.46,71,91,59,94.4,52.49c1.68-3.27,4.92-6.47,8.89-9.4,16.08-3.65,31.58-8.85,34.8-12.35.45-.49,1.8-2,1.15-3.53-.41-1-1.39-1.52-2.92-1.58-5.19-.21-22.6,5.86-34.52,14.59A177.54,177.54,0,0,1,78.71,44c-3.84.32-5.15,2.17-5.58,3.24a4.09,4.09,0,0,0,.79,4.25,4.68,4.68,0,0,0,4.82,1.33,1.58,1.58,0,1,0-.82-3.05,1.54,1.54,0,0,1-1.64-.37.94.94,0,0,1-.22-1c.21-.52,1.08-1.12,2.91-1.27a162.93,162.93,0,0,0,17.71-2.61A25.79,25.79,0,0,0,91.59,51c-3.47,6.76-8.2,19.08-11,39.38-.76,5.48-2.71,9.1-5.22,9.68-1.57.36-3.3-.58-4.61-2.52-3.14-4.66-3.22-13.78,3.69-23.64a1.58,1.58,0,1,0-2.59-1.81C63.54,84,64.65,94.2,68.13,99.35,70.2,102.43,73.17,103.86,76.06,103.19Zm59.58-74.46c-1.78,1.71-9.14,4.94-21.89,8.49l-2.07.56C121.34,32.47,131.91,28.86,135.64,28.73Zm.41,34.93c-.21.1-.91.4-1.17.2-1.12-.86-1.09-5.86-.36-9.81a1.58,1.58,0,0,0-3.09-.64c-1,4.18-4.88,16.16-10.15,16.42a1.64,1.64,0,0,1-1.81-1.14c-1.73-4,1.83-15.54,6-19.61.78-.76,2.26-2,3.37-1.66S131,50,131.26,51a1.58,1.58,0,0,0,1.9,1.17h0a1.58,1.58,0,0,0,1.13-1.89c-.12-.5-1.25-4.88-4.56-5.85-2-.59-4.18.22-6.45,2.42a22.35,22.35,0,0,0-4.25,6.37,53.72,53.72,0,0,1-7.36,7.17c.44-4.38.08-8.84-4.21-10-3.65-1-7.16,1.13-8.74,5.19-1.45,3.73-.83,8.62,3.18,10.72a7,7,0,0,0,5.63.1c-1.33,6.2-3.9,11.85-7.16,12a2.77,2.77,0,0,1-2.85-1.52c-1.8-3.14-.83-9.85.4-11.69a1.58,1.58,0,0,0-2.63-1.75c-1.68,2.52-3,10.59-.51,15a5.89,5.89,0,0,0,5.78,3.1,6.23,6.23,0,0,0,1.25-.2c6.21-1.67,8.59-12.67,9.27-16.75a37.62,37.62,0,0,0,5.45-4.28c-.86,3.69-1,7.23,0,9.57a4.76,4.76,0,0,0,4.86,3,6.82,6.82,0,0,0,1.44-.23c3.74-1,6.52-5.08,8.42-9.18A5.16,5.16,0,0,0,133,66.36c.83.64,2.28,1.18,4.45.15,1.68-.8,3.32-3.12,4.74-5.79l-.39,4a1.58,1.58,0,0,0,3.13.38c1.11-7.58,5.17-23,10.68-22.21a1.27,1.27,0,0,1,1,.52c1,1.49.12,5.9-.56,9.12-.85,4-1.52,7.18-.28,9a3,3,0,0,0,1.94,1.3c3.25.66,6.65-3.41,11-13.19.93-2.08,1.8-4.19,2.54-6.09a45.93,45.93,0,0,0,1.38,7.48,18.42,18.42,0,0,0-3.06,4.21c-2.15,4.08-2.31,8.12-.4,9.83a4,4,0,0,0,3.82.95,5.24,5.24,0,0,0,1.88-1,9.64,9.64,0,0,0,2-11.77,12.46,12.46,0,0,1-.6-1.3c3.15-2.57,8.28-4.67,16.16-2.72a1.58,1.58,0,1,0,.76-3.07c-5.76-1.43-10.93-1.06-15.36,1.08a18.16,18.16,0,0,0-2.54,1.49,66.66,66.66,0,0,1-1.32-12.88,1.58,1.58,0,0,0-3.08-.51c-5.54,16.59-11,24.49-12.55,24.38-.45-.85.31-4.44.77-6.6.93-4.41,1.89-9,.06-11.59A4.45,4.45,0,0,0,156,39.77c-4.12-.57-7.18,3-9.38,7.62l.39-4a1.58,1.58,0,0,0-3.14-.31l-.69,7C141.37,55.45,138.17,62.65,136.05,63.66Zm-27.85-1c-1.88,1-3.6,1.44-4.81.8-2.37-1.25-2.65-4.36-1.7-6.78a5.24,5.24,0,0,1,3.18-3.29,3.48,3.48,0,0,1,1.81,0C109.15,54.09,108.94,57.78,108.21,62.7Zm64.68-.08c-1,.76-1.44.33-1.64.15-.39-.35-.64-2.72,1.09-6a15.16,15.16,0,0,1,1.53-2.33l.2.39A6.55,6.55,0,0,1,172.88,62.62ZM95.79,126.54c.34-.65.63-1.21.89-1.64,1.46-2.46,8.77-17.66,8.18-30.65-.08-1.68-.28-6.15-3.16-6.25-.91,0-3.33-.12-6.57,9.94a134.51,134.51,0,0,0-4.91,24.69,19.9,19.9,0,0,0,.18,6.87c-1.77,2.44-4.22,4.6-7.88,4.86a1.58,1.58,0,0,0,.23,3.15,13.12,13.12,0,0,0,2.45-.41A13.43,13.43,0,0,0,92,132.6a4.41,4.41,0,0,0,2.42,1.23c3.49.59,7.8-2.76,10.25-6.67l.13.18a5.23,5.23,0,0,0,4.42,2,6.06,6.06,0,0,0,1.18-.2c4.81-1.29,9.41-8.14,10-9a1.58,1.58,0,1,0-2.64-1.73c-1.9,2.9-5.93,7.57-8.69,7.75a2,2,0,0,1-1.81-.86,3.51,3.51,0,0,1-.72-2,1.58,1.58,0,0,0,1.28-.17c.43-.26,10.54-6.54,9.17-14-.45-2.47-1.85-3.07-2.64-3.2-3.4-.57-6.9,5.09-7.89,6.84a21.73,21.73,0,0,0-3.1,9.83c-1,4.2-5.95,8.55-8.34,8.15a1.51,1.51,0,0,1-1-.8C94.67,128.72,95.28,127.54,95.79,126.54Zm12.1-9.76c1.94-4.5,4.69-7.42,5.74-7.74a2.62,2.62,0,0,1,.18.62c.74,4.09-4.3,8.48-7,10.34A20.34,20.34,0,0,1,107.89,116.78ZM93.36,123c2.14-18.73,6.12-29,8-31.38a13.25,13.25,0,0,1,.35,2.78c.5,11.14-5.59,25.28-7.74,28.89-.24.4-.48.86-.75,1.37Q93.26,123.86,93.36,123Zm80-37.9a11.92,11.92,0,0,0-3.46-12.53c-5.73-5.23-16-6-26.16-2.06-11.38,4.45-13.09,13.34-13.35,16-.38,3.87.8,7.28,3,8.68a4.6,4.6,0,0,0,5-.09,1.58,1.58,0,1,0-1.61-2.72c-.9.53-1.4.34-1.7.15-1-.63-1.84-2.8-1.56-5.71.21-2.17,1.65-9.53,11.36-13.33,9.06-3.55,18-3,22.88,1.45a8.75,8.75,0,0,1,2.56,9.31c-2.57,8.86-12.18,14.54-13.59,15.33a45,45,0,0,0-12.55,5c2.38-9.36,9.2-25.12,9.28-25.29a1.58,1.58,0,1,0-2.9-1.26c-.32.74-7.84,18.12-9.84,27.46q-.19.89-.43,1.8a1.62,1.62,0,0,0-.06.23,61,61,0,0,1-5.11,12.87h0a39.64,39.64,0,0,0-6.7.15c-3.87.72-5.53,3.74-5.19,6.36a4.93,4.93,0,0,0,5.61,4.24,4.37,4.37,0,0,0,.79-.14c2.55-.68,5.1-3.62,7.36-7.42,9.93.18,24.7-.14,29.76-10.39,3.52-7.13,1.4-10.59-.17-12a7.57,7.57,0,0,0-3.8-1.78C166.51,96.43,171.47,91.58,173.35,85.08Zm-44.8,42.84c-1.86.15-2.17-1.12-2.22-1.51-.14-1.06.51-2.28,2.24-2.75l.39-.09a26.59,26.59,0,0,1,4.31-.13C131.52,126.09,129.83,127.82,128.55,127.92Zm35.86-24.49c1.56,1.42,1.37,4.44-.53,8.29-4,8-16.16,8.74-25.23,8.65a68.62,68.62,0,0,0,4.49-11.63C154.39,101.94,161.91,101.16,164.41,103.43Zm102.8-40.09a1.58,1.58,0,0,0-1.78,1.29c0,.06-.45,2.47-1.21,5.88-1.89,6.62-5.57,14-9.07,16.57a2.85,2.85,0,0,1-2.18.71c-.09,0-.23-.05-.4-.35-1.42-2.56.88-11.94,3-17.79a1.58,1.58,0,0,0-3-1.06,80.82,80.82,0,0,0-2.63,9.07c-2.15,5.58-6.57,13.37-9.49,12.86l-.08,0s-.58-.9.61-4.77a91.44,91.44,0,0,1,3.37-8.62c.78-1.81,1.45-3.37,1.8-4.44.18-.54.64-2-.42-2.86s-2.35-.28-4.08.62a20.34,20.34,0,0,1-4.44,1.87,25.42,25.42,0,0,0,.73-5.18c.1-4.13-1.69-5.09-2.77-5.29-2.55-.48-5.28,2.42-6.36,5.39-1.14,3.16-.25,6,2.32,7.44a8.2,8.2,0,0,0,1.86.76,76.72,76.72,0,0,1-7,14.17c-2.65,3.75-7.61,9-10.33,8.82-.44,0-1-.18-1.63-1.25a5.72,5.72,0,0,1-.61-2.87,1.58,1.58,0,0,0,.79-.14c.52-.24,12.69-6,10.85-15-.5-2.44-1.76-3.21-2.73-3.42-2.46-.54-5,2-6.64,4.31a30.21,30.21,0,0,0-5.2,11.73c-.7,2.15-3.07,7.74-5.92,8.74-4,1.41-7-2.79-8.46-5.31v0c3.7-1,9.36-3.72,11.18-7.39a5.32,5.32,0,0,0-.44-5.65c-1.45-2.11-3.07-2.33-4.17-2.14-1.76.3-3.46,2.07-5.05,4.58l4.79-20.1a1.58,1.58,0,1,0-3.07-.73L190.8,99.46c-1.19,2.77-2.71,5.15-4.41,5.78a2.31,2.31,0,0,1-.45.12c-.3-.91.29-3.85,1.33-6.76.22-.54.36-.94.44-1.15a1.58,1.58,0,0,0-3-1.12c-.14.36-.31.79-.48,1.27-1.89,4.7-6,12.25-9.41,11.81-.48-.06-.82-.24-1-1-1-3.56,3.23-13.46,7.24-16.8,1.6-1.33,2.63-1.61,3-1.44.6.26,1,1.76,1,2.69a1.58,1.58,0,0,0,3.16-.14c0-.43-.25-4.26-2.91-5.44-1.75-.78-3.88-.14-6.32,1.9-4.27,3.56-9.85,14.62-8.25,20.11a4.22,4.22,0,0,0,3.65,3.2,5.43,5.43,0,0,0,2.12-.15c2.51-.67,4.73-3,6.52-5.67a3,3,0,0,0,.61,1c.63.64,1.78,1.26,3.77.53a6.61,6.61,0,0,0,1.66-.92,1.57,1.57,0,0,0,3,0c.81-3,1.67-5.81,2.53-8.34.25.34.51.68.8,1,3,3.56,6.49,4.78,10.06,3.54,2.3-.8,4.11-3,5.43-5.25.08.16.16.33.25.48a5,5,0,0,0,4.23,2.85,5.68,5.68,0,0,0,1.76-.21c5.12-1.38,10.64-9,11.34-10a76.55,76.55,0,0,0,7.68-15.7,17.69,17.69,0,0,0,6.16-2.06c-.28.68-.61,1.44-1,2.25C238.29,83.2,236,89,237.57,92a3.18,3.18,0,0,0,2.33,1.66c3.59.63,6.83-3.07,9.21-7a6.73,6.73,0,0,0,.7,2.37,3.71,3.71,0,0,0,2.49,1.91,5.8,5.8,0,0,0,4.7-1.24,13.06,13.06,0,0,0,2.13-2c-.2.46-.4.91-.61,1.34-5.52,11.41-31.75,18.16-45.84,21.78-1.66.43-3.16.81-4.48,1.17h0L60.65,151.56c4.32-9.43,10-21,14.08-26.19,2.51-3.19,4-3.58,4.46-3.34,1.06.56,1.74,4.3.34,8.65-2.46,7.64-7.64,7.81-9.76,7.52a1.58,1.58,0,0,0-.42,3.13c7.12,1,11.48-4.38,13.19-9.69,1.52-4.73,1.38-10.68-1.86-12.41-1.52-.81-4-.86-7.47,3l.49-1.14a1.58,1.58,0,1,0-2.9-1.25L56.64,152.63,36,158.18c5.59-12.37,13.18-26.48,19.14-29,1.51-.63,2-.06,2.23.15,1.28,1.38,1.36,5.57-.57,9.37-1.27,2.5-4.32,6.59-10.5,5.87a1.58,1.58,0,0,0-.37,3.14c5.9.69,10.89-2.07,13.68-7.57,2.44-4.8,2.46-10.37.06-13-1.41-1.52-3.51-1.86-5.76-.92-2.49,1-5.11,3.58-7.68,7l1.94-4.7a1.58,1.58,0,0,0-2.92-1.2l-4.73,11.49a1.57,1.57,0,0,0-.25.34c-3.93,7.37-9,13.76-10.64,13.39,0,0-.09,0-.17-.18-.81-1.61.39-9,5.34-20.63l.08-.18L36,129.06a1.58,1.58,0,0,0-2.89-1.29c-.21.46-.52,1.17-.91,2.07l-.21.48c-5.21,11.93-13.92,31.89-24.09,30a4.76,4.76,0,0,1-3.47-2.75c-3-5.82-.73-18.87,5.62-32.47C16.66,111,23.5,105,27.68,104.23A6,6,0,0,1,33.2,106c3.8,3.53,1,14.35-2.65,18.39-1.64,1.79-2.32,1.18-2.58.94a1.58,1.58,0,1,0-2.11,2.35c.77.69,3.54,2.65,7-1.16,2.26-2.47,4.21-6.84,5-11.15.92-5.19,0-9.35-2.49-11.69a9.12,9.12,0,0,0-8.27-2.57C17.58,103,9.45,118.93,7.19,123.77c-6.85,14.66-9,28.5-5.57,35.25a7.94,7.94,0,0,0,5.7,4.41,10.66,10.66,0,0,0,4.78-.19c5.43-1.46,10.09-7,14-13.69a8.39,8.39,0,0,0,.5,4.27A3.34,3.34,0,0,0,29,155.66c1.82.4,3.85-.86,5.83-2.86L33,157.24l-.88,2-15.36,4.12c-.69.15-5.62,1.36-7,6.3a1.58,1.58,0,1,0,3,.85c.92-3.29,4.47-4,4.61-4.06l.12,0,13-3.49c-2.2,5.22-3.6,9-3.79,9.51a1.58,1.58,0,0,0,2.94,1.15l4.83-11.73L55,156.34c-2,4.54-3.35,7.76-3.51,8.16a1.58,1.58,0,0,0,2.91,1.23l3.7-8.56.84-1.89L209,115h0c1.31-.35,2.8-.74,4.45-1.16,15.61-4,41.74-10.74,47.89-23.47,2.51-5.19,4.54-12.92,5.79-18.45a39.32,39.32,0,0,0,1.4-6.83A1.58,1.58,0,0,0,267.21,63.34ZM203.09,83.13l.09,0c.37-.06.8.48,1,.81a2.21,2.21,0,0,1,.21,2.46c-1,2-4,3.78-6.75,4.9C199.85,86.38,201.84,83.47,203.09,83.13Zm14.12.22c2-3.23,3.7-4.37,4.28-4.52l.09,0a2.34,2.34,0,0,1,.36,1c1.08,5.28-5.37,9.47-8,10.94A27.86,27.86,0,0,1,217.21,83.35Zm17.58-16.3a23.47,23.47,0,0,1-.85,5.35,5.07,5.07,0,0,1-1.26-.5c-.4-.22-1.61-.9-1-3.09A6.06,6.06,0,0,1,234.49,65h0A4.47,4.47,0,0,1,234.79,67.06Zm-73-32.6c.19,0,1.13,0,1.26,1.62a1.58,1.58,0,0,0,1.7,1.44l.28,0a1.58,1.58,0,0,0,1.16-1.66,4.5,4.5,0,0,0-4.55-4.51,1.58,1.58,0,1,0,.14,3.16ZM43.24,122.22a3.19,3.19,0,0,1,1.4-.08A90.27,90.27,0,0,1,78.33,32.79a3.49,3.49,0,0,1-.9-1.7,92.17,92.17,0,0,0-34.67,91.3A3.56,3.56,0,0,1,43.24,122.22Zm19.37,38.46a2.86,2.86,0,0,1-1.47,1.19,92.57,92.57,0,0,0,48.11,31.41,3.23,3.23,0,0,1,.3-1.88A90.68,90.68,0,0,1,62.61,160.68Zm154-89.8a3.47,3.47,0,0,1,1.86-.47A92.23,92.23,0,0,0,145,13.23a3.39,3.39,0,0,1-.08,1.9A90.33,90.33,0,0,1,216.58,70.88Zm7.34,47a3,3,0,0,1-1.87-.05,90.68,90.68,0,0,1-25.22,50.14,3.21,3.21,0,0,1,1.21,1.47A92.58,92.58,0,0,0,224,117.83Zm9.81-3.5A101.23,101.23,0,0,1,56.17,170.4a2.87,2.87,0,0,1-2.09,1.9l-.37.08a104.4,104.4,0,0,0,183.28-59Zm-6.14-54.05a104.41,104.41,0,0,0-198.64,35l.19-.06a2.87,2.87,0,0,1,2.92.74A101.26,101.26,0,0,1,224.93,62.07a3,3,0,0,1,1.1-.7A2.94,2.94,0,0,1,227.58,60.29ZM89.11,27.93a.36.36,0,0,1,0,.17l-4.68,3.16a1.15,1.15,0,0,1-.35-.35,4,4,0,0,1-.21-.35l-.19-.37a21.36,21.36,0,0,1-1.55-2.25,20.7,20.7,0,0,0-1.57-2.23.31.31,0,0,1,.1-.26L85,22.56a.6.6,0,0,1,.47.32l.17.29a1.71,1.71,0,0,0,.18.28.25.25,0,0,1-.1.32,14.37,14.37,0,0,1-1.31.84q-1,.56-1.33.8a6.24,6.24,0,0,0-.57.43.23.23,0,0,0,0,.23l.11.22.26.39a.71.71,0,0,0,.37.28l.93-.63q.49-.33,1-.63a1,1,0,0,1,.38.39l.3.45c0,.05,0,.14-.07.27l-.9.6q-.45.31-.87.64l0,.16.75,1.11a1.2,1.2,0,0,0,.91-.49q.93-.61,2.74-1.85a.65.65,0,0,1,.37.28l.14.25.15.26Zm6.06-6.78a2.87,2.87,0,0,1,.74.9,1.73,1.73,0,0,1,.22,1,2.39,2.39,0,0,1-1.06,1.71q-.27.2-1.9,1.08a5.14,5.14,0,0,1-3.08.22.39.39,0,0,1-.12-.13.84.84,0,0,1,0-.62q.16-.55.18-.66l.13-.07a4.59,4.59,0,0,0,3.26-.3,4.52,4.52,0,0,0,.59-.37,4.71,4.71,0,0,0,.29-.41.87.87,0,0,0,.13-.49.65.65,0,0,0-.42-.44l-.48,0a14.93,14.93,0,0,1-3.05,1,1.94,1.94,0,0,1-1.14,0,1.76,1.76,0,0,1-.94-.62,4.22,4.22,0,0,1-.33-.51,1.4,1.4,0,0,1-.2-.86,3.36,3.36,0,0,1,2-2.25,6.89,6.89,0,0,1,3.73-.78.45.45,0,0,1,.14.15.77.77,0,0,1,0,.55,1.46,1.46,0,0,0-.08.6.58.58,0,0,1-.19.16,1,1,0,0,1-.56.05,2.63,2.63,0,0,0-.59,0,10.48,10.48,0,0,0-2,.59,2.44,2.44,0,0,0-.74.59.58.58,0,0,0-.08.51.91.91,0,0,0,.78.28,3.59,3.59,0,0,0,.87-.28,5.46,5.46,0,0,1,.81-.29Q93.52,21,93.64,21A2.28,2.28,0,0,1,95.17,21.15Zm7.46-6a.63.63,0,0,1,0,.28l-2.29.91-.06.13,1,2.46q.59,1.5,1,2.43l0,.21a.16.16,0,0,1-.08.17l-1.17.44a.31.31,0,0,1-.29-.2l-.13-.36-.21-.64a1.93,1.93,0,0,0-.29-.6l-.47-1.17q-.32-.8-.47-1.21l-.1-.26L99,17.52l-.09-.22a.4.4,0,0,0-.34-.29,4.35,4.35,0,0,0-.48.16l-.85.37-.87.37a.36.36,0,0,1-.3-.12,2.53,2.53,0,0,0-.22-.58,1.21,1.21,0,0,1-.15-.56,2.46,2.46,0,0,1,1-.5q.65-.2,1.4-.5L99.69,15l1.56-.65.88-.33a1,1,0,0,1,.25.39q0,.1.11.36A2.31,2.31,0,0,0,102.64,15.14Zm3.05,3.72a5.47,5.47,0,0,1,.41,1.23,1,1,0,0,1-.35.26l-.43.15-.43.12a.26.26,0,0,1-.3-.19l-.13-.39-.17-.49a.41.41,0,0,1,.08-.45,4.43,4.43,0,0,1,.55-.23,4.55,4.55,0,0,1,.59-.16Zm8.62-1.73a.62.62,0,0,1,.13.26,1.4,1.4,0,0,1,0,.28c0,.13,0,.21,0,.26a2.17,2.17,0,0,1-1.23.35l-.16-.09a1.9,1.9,0,0,1-.13-.38c0-.12-.06-.3-.08-.55s-.06-.42-.08-.55l-.06-.27q-.23-.94-.65-2.84a.16.16,0,0,0-.11-.08.1.1,0,0,0-.11.05,2.58,2.58,0,0,1-.88.66h-.16a1.48,1.48,0,0,1-.3-1l.65-.57a2.11,2.11,0,0,0,.53-.72.49.49,0,0,1,.31-.41,1.68,1.68,0,0,1,1,0Zm7.25-5.66a4.21,4.21,0,0,1,.64,1.73,3.83,3.83,0,0,1-.65,2.94,2.92,2.92,0,0,1-2,1q-.33,0-.78.07a2.73,2.73,0,0,1-1.25-.37,1.87,1.87,0,0,1-.85-1,.17.17,0,0,1,.08-.27,1.07,1.07,0,0,0,.31,0l.23,0,.23,0a.56.56,0,0,1,.66.33,1.45,1.45,0,0,0,1.17.27,2.26,2.26,0,0,0,.85-.31,1.41,1.41,0,0,0,.69-1.55l0,0a3.29,3.29,0,0,1-1.56.61,3.46,3.46,0,0,1-1.51-.09q-1.33-.57-1.57-1.22A2.82,2.82,0,0,1,116,13a1.92,1.92,0,0,1,.37-1.5,3.13,3.13,0,0,1,2.1-1.08,4.62,4.62,0,0,1,1.31,0A3.71,3.71,0,0,1,121.56,11.47Zm-1,1.47a1.38,1.38,0,0,0,0-.46,1.21,1.21,0,0,0-.23-.56,1.83,1.83,0,0,0-1.61-.42,3.2,3.2,0,0,0-.68.18q-.68.46-.67.88a.92.92,0,0,0,0,.27,1.08,1.08,0,0,0,.56.77,3,3,0,0,0,1.71,0l.51-.25A1,1,0,0,0,120.52,12.95Zm10,2a1.48,1.48,0,0,1-.45.9,2.34,2.34,0,0,1-.87.52q-1,.12-1.36.14a2.89,2.89,0,0,1-2.15-.6,2.4,2.4,0,0,1-.88-1.47q-.05-.28-.15-1.75l.27-.88a3.51,3.51,0,0,1,.39-.84,2,2,0,0,1,.63-.57l.71-.4a4.35,4.35,0,0,1,.94-.15,2.65,2.65,0,0,1,2.66,1.32.52.52,0,0,1,.07.41l-.92.14a.84.84,0,0,1-.48-.31,1.47,1.47,0,0,0-.48-.39,1.76,1.76,0,0,0-.72-.12,2.3,2.3,0,0,0-1.14.37l-.37.63a1.52,1.52,0,0,0-.21.67l.07.06a3.31,3.31,0,0,1,1.51-.41,3.59,3.59,0,0,1,2.31.66,1.72,1.72,0,0,1,.67,1.44A4.15,4.15,0,0,1,130.47,14.94Zm-1.21-.34a.55.55,0,0,0,.08-.3.78.78,0,0,0-.22-.46l-.35-.39-.39-.06a2.11,2.11,0,0,0-.83-.13,1.62,1.62,0,0,0-1.24.55,1,1,0,0,0-.13.94,1.62,1.62,0,0,0,1.6.7,4.53,4.53,0,0,0,.74-.1Q128.86,15.29,129.26,14.6Zm10.16.84q-.09.18-.18.2a5.28,5.28,0,0,0-1.35-.06l-.09.13,0,.53a.53.53,0,0,1-.2.45h-.71a.58.58,0,0,1-.51-.26,5.79,5.79,0,0,0,.06-1l-.07-.08-3.8-.23a.69.69,0,0,1-.15-.54,4.57,4.57,0,0,0,.09-.63l.13-.2q.67-.58,2.07-1.89t2.1-1.89a1.12,1.12,0,0,1,.67-.13,3.25,3.25,0,0,1,.68.13l.12.19q-.13,1.29-.34,3.86l.15.11,1.26.08a.56.56,0,0,1,.18.53q0,.11,0,.34A1.82,1.82,0,0,0,139.42,15.45Zm-2.92-1.65a5.11,5.11,0,0,0,.14-.94,5.45,5.45,0,0,0,0-1h-.08q-.65.57-1.9,1.78l-.09.1a.21.21,0,0,0-.07.11.11.11,0,0,0,0,.08l1.8.11Q136.53,14,136.51,13.79ZM172,148.22a.78.78,0,0,0-.9-.62l-7.5,2a.84.84,0,0,0,.43,1.6l7.5-2A.78.78,0,0,0,172,148.22Zm-42,11.32a.78.78,0,0,0-.9-.62l-7.5,2a.84.84,0,0,0,.43,1.6l7.5-2A.78.78,0,0,0,130,159.54Z"/></g></g></svg>