<svg version="1.1" id="Layer_1" xmlns="http://www.w3.org/2000/svg" xmlns:xlink="http://www.w3.org/1999/xlink" x="0px" y="0px"
	 viewBox="0 0 1184.4 193" style="enable-background:new 0 0 1184.4 193;" xml:space="preserve">
<style type="text/css">
	.st0{fill:#ceb282;}
	.st1{fill:#A41012;}
</style>
<g id="Layer_2_00000113316498230942115410000009356081501383048371_">
	<g id="delfino-farms-logo">
		<g id="fill">
			<path class="st0" d="M1,191.4c5.4-4,6-9.5,6-15.3c0-51,0-101.9,0-152.9C7,16.1,8,8.7,1,3.3c17.3,4,34.3,0.9,51.2,0.9
				c36.8,0,61.1,18.2,70.8,53.9c8,29.3,7.5,58.8-3,87.4c-10.3,28.1-33.3,43.7-63.2,44.2c-10,0.2-20-0.1-30,0.2
				C18.4,190.2,10,190.9,1,191.4z M31,25.6v141.8c8,0,15.6,0.4,23.2-0.1c19.9-1.4,34.2-11.2,40.6-30.2c8.6-25.6,8.9-51.7,1.3-77.6
				c-5.1-17.3-16.5-29-34.7-32C51.7,25.9,41.6,26.2,31,25.6z"/>
			<path class="st0" d="M982.1,42.4c14.2,2.3,28.3,2.9,43-0.6c-1.6,2.1-3.3,3.4-3.8,5.1c-0.8,2.8-2.1,6.3-1,8.5
				c4.9,10.4,10.5,20.4,16.2,31.3c5.8-11,11.8-21,16.2-31.7c1.4-3.3-1.4-8.5-2.2-12.3c5.6,0.4,12.5,1.4,19.4,1.3s13.9-0.9,21.4-1.5
				c-5.7,5.2-4.9,11.9-4.9,18.4c0,33.5-0.1,67,0.1,100.5c0,4.9,1.8,9.7,2.8,14.8c-9.7-2.8-20-2.7-29.7,0.3
				c6.4-5.9,5.1-13.3,5.1-20.4c0-22.2,0-44.3,0-66.5v-5.2l-1.2-0.2l-26.8,50.8c-9.2-17.4-17.9-34-27.2-51.5
				c-0.3,1.2-0.6,2.5-0.7,3.8c0,25.5-0.2,51,0.1,76.5c0,4.3,2.2,8.5,3.4,12.8c-9.2-3.3-19.5-2.9-30.2-0.2c5.2-4.5,5.2-10.3,5.1-16.2
				c-0.1-34.5-0.1-69,0-103.5C987.3,51.3,986.7,46.3,982.1,42.4z"/>
			<path class="st0" d="M453.8,43.1h42c-5.8,5.5-4.9,11.7-0.9,18.8c7.2,13.1,13.6,26.6,21.1,41.2c0.3-2.5,0.6-3.6,0.6-4.7
				c0-13.8,0-27.7,0-41.5c0-5.4-0.3-10.7-5.4-14.7c10.7,2.7,21.2,3,32-0.1c-6.7,5.9-5.2,13.6-5.2,20.8c0,32.2,0,64.3,0,96.5
				c0,6.2-0.1,12.3,5.5,17c-10.4-3.1-21.6-3.1-32,0c6.9-6.6,4.8-15,5-22.9c0-1.7-0.4-3.3-1.2-4.8c-10.9-21.7-21.9-43.4-32.9-65.1
				c-0.3-0.6-0.7-1.1-1.6-2.4c-0.2,2.1-0.5,3.3-0.5,4.6c0,25.2,0,50.3,0,75.5c0,5.4,0.4,10.7,5.1,15c-10.5-3-21.6-3-32.1,0.2
				c5.7-4.6,5.7-10.7,5.7-16.9c-0.1-34.2-0.1-68.3,0-102.5C459,51.6,458.4,46.5,453.8,43.1z"/>
			<path class="st0" d="M725.1,61.2c21.5,2,34,0.8,43.8-4.8C764,67.1,764,77,769.2,87.8c-14.6-9.4-29.6-4.1-44.5-5.8v6.7
				c0,28.1,0,56.3,0,84.4c0,6.8-0.8,13.9,7.1,18.7c-7.7-0.8-14.1-2-20.5-2s-12.8,1.2-21,2.1c8.9-4.9,7.9-12.4,7.9-19.4
				c0-51.3,0-102.6,0-153.9c0-5.9-0.7-11.3-6.8-14.8c0.9-0.4,1.3-0.8,1.6-0.7c23.8,4.2,47.8,1.6,71.8,1.8c3.8,0,7.6-2.5,11.5-3.9
				c0.5,4.5,0.6,9.9,1.9,14.8s4,9.4,6,14c-17.3-7.5-35.8-2.7-53.9-4c-1.6-0.1-3.3,0-5.2,0L725.1,61.2z"/>
			<path class="st0" d="M936.1,176.1c0-4.4,0.8-8.4-0.1-12c-3.7-14.3-7.9-28.6-12.1-42.7c-0.8-1.6-2.2-2.8-3.9-3.1
				c-3.2-0.5-6.5-0.2-10.4-0.2v43c0,5.5,0.1,11.1,5.2,15.3c-10.3-3-21.3-3.2-31.8-0.4c4.6-4.3,5.1-9.6,5.1-15.3
				c-0.1-33.7-0.1-67.3,0-101c0-6.3,0.7-12.8-5.2-16.6c15.8,0.3,31.5,0.2,47.3,0.9c26.5,1.2,43.4,26.9,34,51.2
				c-3.2,8.2-9.1,13.9-16.8,17.6c-2.8,1.3-3.4,2.7-2.5,5.7c4.3,14.5,8.1,29.2,12.7,43.6c1.6,5,4.9,9.4,7.5,14.2
				C955.5,173.6,945.4,173.1,936.1,176.1z M909.8,99.6c8-0.5,15.5-0.3,22.7-1.7c8.2-1.5,13.7-9.9,13.5-18.1
				c-0.2-7.9-5.5-14.8-13.8-15.9c-7.3-1-14.8-0.2-22.4-0.2L909.8,99.6z"/>
			<path class="st0" d="M642.3,112.6c0,11.4-1.8,25.9-8.5,39.3c-9.2,18.3-25.7,27.5-43.7,24.2c-12.1-2.2-20.3-9.6-26-19.9
				c-10.3-18.4-12.1-38.5-10.3-59.1c1.1-12.4,4.1-24.3,10.5-35.1c15.8-27.1,51.5-27,67.1,0.2C638.8,75.4,642.6,91.6,642.3,112.6z
				 M618.9,109.2c0-3,0.2-6,0-9c-0.7-9.3-1.6-18.6-6.5-26.9c-7.2-12.2-21.8-12.3-29.1-0.3c-1.8,3.2-3.3,6.6-4.3,10.1
				c-4.3,14.1-4.3,28.6-2.3,43c0.9,6.6,2.8,13,5.5,19c3.5,7.6,10.3,10.6,18.1,9.3c7-1.1,11-5.8,13.7-11.9
				C618.6,131.8,619,120.5,618.9,109.2L618.9,109.2z"/>
			<path class="st0" d="M840.3,177.3c5.7-7,3.3-13.1,1.4-19.1c-3.5-11.1-3.6-11-15-11c-6.5,0-13-0.1-19.5,0.1
				c-1.4,0-3.6,0.9-3.9,1.9c-2.2,5.6-3.9,11.3-5.1,17.1c-0.6,3.1,0.8,6.6,1.4,10.3c-9.8-3.4-20.3-3.1-31-0.2
				c6.8-4.7,8.6-11.7,10.6-18.8c9-31.8,18.2-63.7,27.3-95.4c2.1-7.2,3.3-14.1-3.7-19.1h36.4c-8.5,6.3-4.8,14.8-2.4,23.2
				c9,31.7,17.8,63.4,27.1,95c1.6,5.3,5,10.1,7.6,15C862.4,173.9,851.9,173.1,840.3,177.3z M821.5,88.7h-1.3
				c-3.7,13-7.4,26-11.1,39.1h23.5L821.5,88.7z"/>
			<path class="st0" d="M204.1,77.3c-3.9,9.3-3.6,18.3,0.3,28.3c-11.1-7.9-22.4-3.9-33.7-5.1v55.7c17.6-2,35.4,3.3,53-4.4
				c-4.9,8.6-6.7,17.6-5,28.8c-5.2-5.7-10.6-5.7-16.1-5.7c-14.5,0-29-0.1-43.5,0.1c-5.1,0.1-10.2,0.9-16.6,1.4
				c7.2-4.8,6.5-11.4,6.5-17.8c0-32.8,0-65.6,0-98.4c0-6.5,0.8-13.1-6.7-17.9c41.6,4,57,3.4,66.5-3c-2.3,9.6-0.6,19.8,4.7,28.1
				c-13.8-7.8-28.4-2.6-43.1-4.6c0,6-0.1,11.3,0.1,16.5c0,0.8,1.6,2.2,2.5,2.2c7.7,0,15.3,0,22.9-0.6
				C198.5,80.6,201,78.7,204.1,77.3z"/>
			<path class="st0" d="M1173.7,43.4c-6.9,7.9-9.4,17.2-10.6,27.6l-2.2-3.3c-5.2-8.1-15.9-10.6-24.2-5.8c-6.3,3.6-8.8,12.4-4.3,18.1
				c3.3,4.3,7.6,7.9,11.9,11.2c7,5.4,14.6,10,21.5,15.5c13.2,10.5,20.1,24,16.7,41.2c-4,20.1-23.6,32.3-45.3,28.9
				c-3.8-0.6-7.5-1.4-11.3-2.1c-6.4-1.2-12.7-2.4-19.2,1.5c2.3-5,4.9-9.3,6.3-13.9s1.4-9.7,2.1-14.6c9,8.4,19.8,10.7,31.7,8.7
				c12.1-2.1,18.2-14.7,11.7-25.1c-3-4.8-7.6-8.8-12.2-12.2c-7-5.3-14.6-9.8-22-14.8c-15.5-10.4-20.7-27.2-13.6-43.1
				c6.6-14.7,24.3-22.5,41.3-18.1C1159.2,44.6,1166.2,46.8,1173.7,43.4z"/>
			<path class="st0" d="M348.5,176.7c-10.1-3.6-20.5-3-31.2-0.3c5.4-4.3,5.7-10,5.7-15.9c-0.1-34.3-0.1-68.6,0-102.9
				c0-5.6-0.4-11-5.3-14.5c10.8,0.3,21.4,1.1,32,0.8c10.4-0.4,21.4,3.1,30.5-3.8c1.9,8.8,3.8,17.8,5.6,26.4
				c-12.3-7-26.8-1.8-41.2-3.8v19.1c11.1-1,22.4,2.6,32.7-4.2c-0.7,4.7-2,9.2-1.9,13.7c0,4.4,1.4,8.8,2.2,13.7
				c-9.4-7.1-20-4-30.2-4.5c-1,0-3,2.1-3,3.2c-0.1,20.5-0.3,41,0.1,61.4C344.6,168.9,347,172.6,348.5,176.7z"/>
			<path class="st0" d="M260.7,155.6c16.2-1.9,32.2,3.1,48.6-5.1c-6.6,9.2-10.9,18-10,29.8c-5.5-6.4-11.9-5.5-18.1-5.6
				c-9.3,0-18.7-0.2-28,0.1c-6.3,0.1-12.5,0.8-19.5,1.3c6.8-5.2,5.4-12.6,5.4-19.5c0-33.2,0-66.3,0.1-99.4c0-5.5-0.5-10.6-5.4-14.7
				c10.5,2.9,21.5,2.9,32-0.1c-5.2,4.5-5.2,10.4-5.2,16.3c0,30,0,60,0,90L260.7,155.6z"/>
			<path class="st0" d="M431.9,176.4c-10.7-3.1-21.1-2.9-31.9-0.1c6-4.7,5.4-11,5.4-17.1c0-34.1,0-68.3,0-102.4
				c0-5.3-0.6-10.3-4.9-13.7h30.9c-5.4,4-4.5,10.7-4.5,17c0,33.1,0,66.3,0,99.4C426.8,165.6,426.5,171.6,431.9,176.4z"/>
		</g>
		<g id="stroke">
			<path class="st1" d="M1,192.4c-0.6,0-1-0.4-1-1c0-0.3,0.1-0.6,0.4-0.8c5.2-3.9,5.6-9.3,5.6-14.5c0-39.6,0-79.8,0-118.8V23.2
				c0-0.8,0-1.6,0-2.3C6.1,14.6,6.2,8.6,0.4,4.1C0,3.7-0.1,3.1,0.2,2.7c0.2-0.3,0.6-0.5,1-0.4c12,2.8,24,2.1,35.6,1.5
				c5-0.3,10.2-0.6,15.3-0.6h0.1c37.2,0,62,18.9,71.7,54.7c8.3,30.4,7.2,60-3.1,88s-33.7,44.4-64.1,44.9c-4.5,0.1-9,0.1-13.4,0.1
				c-5.4,0-11,0-16.5,0.1c-5.8,0.1-11.5,0.5-17.6,0.9L1,192.4L1,192.4z M4.2,4.9c4,4.7,3.9,10.4,3.8,16c0,0.8,0,1.5,0,2.3v34.1
				c0,38.9,0,79.2,0,118.8c0,4.7-0.4,10-4.2,14.1l5.3-0.3c6.1-0.4,11.8-0.8,17.7-0.9c5.5-0.1,11.2-0.1,16.6-0.1
				c4.4,0,8.9,0,13.4-0.1c29.6-0.5,52.3-16.4,62.3-43.6c10.2-27.7,11.2-56.9,3-86.8c-4.8-17.5-13.2-30.9-24.9-39.8
				S70.4,5.2,52.3,5.2h-0.1c-5,0-10.2,0.3-15.2,0.6C26.3,6.3,15.3,7,4.2,4.9z M45.7,168.6c-2.4,0-4.8,0-7.2-0.1s-4.9-0.1-7.5-0.1
				c-0.6,0-1-0.4-1-1V25.6c0-0.3,0.1-0.5,0.3-0.7c0.2-0.2,0.5-0.3,0.8-0.3c3.3,0.2,6.6,0.3,9.8,0.4c6.9,0,13.8,0.5,20.7,1.5
				c17.8,3,30,14.3,35.5,32.7c7.8,26.4,7.3,52.7-1.3,78.2c-6.3,18.8-20.7,29.4-41.5,30.9C51.4,168.6,48.6,168.6,45.7,168.6z
				 M32,166.4c2.2,0,4.3,0.1,6.5,0.1c5.4,0.1,10.5,0.2,15.6-0.2c20.2-1.4,33.6-11.4,39.7-29.5c8.5-25.1,8.9-51.1,1.3-77
				c-5.2-17.7-16.9-28.5-33.9-31.3c-6.8-1-13.6-1.5-20.4-1.5C38,26.9,35,26.9,32,26.7V166.4z"/>
			<path class="st1" d="M1059.5,177.5c-0.4,0-0.7-0.2-0.9-0.5c-0.2-0.4-0.1-0.9,0.2-1.2c5.1-4.7,5-10.5,4.8-16.6c0-1.1,0-2.1,0-3.1
				c0-16,0-32,0-48.1V85.9l-26.1,49.5c-0.3,0.5-0.9,0.7-1.4,0.4c-0.2-0.1-0.3-0.2-0.4-0.4l-25.9-49.1c-0.1,0.3-0.1,0.6-0.1,0.9v16
				c0,19.8-0.1,40.3,0.2,60.5c0,2.8,1,5.5,2,8.4c0.5,1.4,1,2.7,1.3,4.1c0.1,0.4,0,0.7-0.3,1c-0.3,0.2-0.7,0.3-1,0.2
				c-8.3-3-18.3-3-29.6-0.2c-0.4,0.1-0.9-0.1-1.1-0.5c-0.2-0.4-0.1-0.9,0.2-1.2c4.8-4.2,4.8-9.7,4.8-15.4
				c-0.1-34.9-0.1-69.7,0-103.5c0-5.8-0.8-10-4.8-13.5c-0.3-0.3-0.4-0.8-0.2-1.2c0.2-0.4,0.6-0.6,1.1-0.6
				c16.6,2.7,29.8,2.5,42.6-0.6c0.5-0.1,1.1,0.2,1.2,0.8c0.1,0.3,0,0.6-0.2,0.8c-0.6,0.7-1.2,1.3-1.7,1.9c-0.9,0.8-1.5,1.8-2,2.8
				l-0.2,0.7c-0.7,2.4-1.7,5.4-0.9,7.1c3.6,7.6,7.5,14.9,11.6,22.7c1.2,2.3,2.4,4.6,3.7,6.9c1.3-2.5,2.7-5,4-7.4
				c4.1-7.3,7.9-14.8,11.2-22.5c0.8-2-0.2-4.9-1.2-7.8c-0.5-1.3-0.8-2.6-1.2-3.9c-0.1-0.5,0.2-1.1,0.8-1.2c0.1,0,0.1,0,0.2,0
				c1.6,0.1,3.3,0.3,5.2,0.5c4.3,0.4,9.3,0.9,14.1,0.9l0,0c4.7,0,9.4-0.5,14.4-0.9c2.3-0.2,4.6-0.4,6.9-0.6c0.6,0,1,0.4,1.1,0.9
				c0,0.3-0.1,0.6-0.3,0.8c-4.7,4.3-4.7,9.8-4.6,15.5c0,0.7,0,1.4,0,2.2c0,6.9,0,13.8,0,20.8c0,26.1-0.1,53.1,0.1,79.7
				c0.2,3.3,0.7,6.6,1.6,9.8c0.4,1.6,0.8,3.2,1.1,4.9c0.1,0.3-0.1,0.7-0.3,0.9c-0.3,0.3-0.7,0.3-1,0.2c-9.5-2.7-19.6-2.6-29.1,0.3
				C1059.7,177.5,1059.6,177.5,1059.5,177.5z M998.1,173.1c4.3,0,8.6,0.6,12.8,1.8c-0.2-0.7-0.5-1.5-0.8-2.2c-1-2.9-2.1-6-2.1-9.1
				c-0.3-20.2-0.2-40.7-0.2-60.5v-16c0-0.8,0.2-1.5,0.4-2.3c0.1-0.5,0.2-1,0.4-1.7c0.1-0.4,0.4-0.7,0.8-0.8c0.4,0,0.8,0.2,1,0.5
				l26.3,49.8l25.9-49.1c0.2-0.4,0.7-0.6,1.1-0.5l1.2,0.3c0.5,0.1,0.8,0.5,0.8,1V108c0,16,0,32,0,48.1c0,1,0,2.1,0,3.1
				c0.1,5.3,0.3,10.7-3.2,15.5c8.4-2,17.1-2,25.4,0.1c-0.2-1.1-0.5-2.1-0.8-3.2c-1-3.3-1.5-6.8-1.7-10.2
				c-0.2-26.6-0.2-53.6-0.1-79.7c0-6.9,0-13.8,0-20.8c0-0.7,0-1.4,0-2.1c-0.1-5.2-0.1-10.5,3.4-15.1l-4.3,0.4
				c-5,0.5-9.8,0.9-14.6,0.9l0,0c-5,0-9.9-0.5-14.3-0.9l-3.7-0.3c0.2,0.8,0.5,1.5,0.8,2.3c1.1,3.2,2.2,6.5,1.1,9.2
				c-3.4,7.7-7.2,15.3-11.3,22.6c-1.6,3-3.3,6-4.9,9.1c-0.2,0.3-0.5,0.5-0.9,0.5l0,0c-0.4,0-0.7-0.2-0.9-0.5c-1.5-2.9-3-5.7-4.5-8.5
				c-4.2-7.8-8.1-15.1-11.7-22.8c-1.1-2.4-0.1-5.8,0.8-8.5l0.2-0.7c0.4-1.2,1.1-2.3,2-3.2c-11.4,2.3-23.2,2.5-37.5,0.4
				c3.1,4,3.4,8.6,3.4,12.8c-0.1,33.8-0.1,68.6,0,103.5c0,5,0,10.1-3.2,14.5C989.3,173.7,993.7,173.2,998.1,173.1L998.1,173.1z"/>
			<path class="st1" d="M453.3,177.5c-0.6,0-1-0.4-1-1c0-0.3,0.1-0.6,0.4-0.8c5.3-4.3,5.3-10,5.3-16c-0.1-32.6-0.1-66.2,0-102.6
				c0-6-0.8-10.3-4.8-13.2c-0.4-0.3-0.5-0.9-0.2-1.4c0.2-0.3,0.5-0.4,0.8-0.4h42c0.4,0,0.8,0.2,0.9,0.6c0.1,0.4,0.1,0.8-0.2,1.1
				c-4.8,4.6-5,9.8-0.8,17.5c5.1,9.2,9.7,18.5,14.6,28.4c1.6,3.3,3.3,6.6,5,10c0.1-0.5,0.1-1,0.1-1.4c0-13.8,0-27.7,0-41.5
				c0-5.5-0.4-10.2-5-13.9c-0.4-0.3-0.5-0.8-0.3-1.2c0.2-0.4,0.7-0.6,1.1-0.5c11.2,2.8,21.5,2.8,31.5-0.1c0.4-0.1,0.9,0.1,1.2,0.5
				c0.2,0.4,0.1,0.9-0.2,1.2c-5.3,4.7-5.1,10.5-4.9,16.7c0,1.1,0.1,2.3,0.1,3.4c0,14.2,0,28.4,0,42.7c0,17.9,0,35.9,0,53.8v0.3
				c0,6,0,11.6,5.2,15.9c0.4,0.3,0.5,0.8,0.2,1.2c-0.2,0.4-0.7,0.6-1.2,0.5c-10.3-3-21.2-3-31.5,0.1c-0.5,0.2-1.1-0.1-1.3-0.6
				c-0.1-0.4,0-0.8,0.3-1.1c5.2-5,5-11,4.8-17.4c-0.1-1.6-0.1-3.2-0.1-4.8c0-1.5-0.4-3-1.1-4.3c-9.9-19.7-20-39.7-29.9-59l-3.1-6
				l0,0c-0.1,0.6-0.1,1.1-0.1,1.7c0,16.8,0,33.5,0,50.3v25.2c0,5.2,0.4,10.2,4.8,14.2c0.3,0.3,0.4,0.8,0.2,1.2
				c-0.2,0.4-0.7,0.6-1.1,0.5c-10.3-3-21.3-2.9-31.5,0.2C453.5,177.5,453.4,177.5,453.3,177.5z M480.8,80.4c0.3,0,0.7,0.2,0.9,0.5
				c0.3,0.5,0.6,0.9,0.8,1.2c0.3,0.4,0.6,0.9,0.8,1.3l3,6c9.8,19.3,19.9,39.3,29.9,59c0.8,1.6,1.3,3.4,1.3,5.2c0,1.5,0,3.1,0.1,4.7
				c0.2,5.6,0.4,11.3-3.2,16.4c8.5-2,17.4-2.1,26-0.1c-3.4-4.5-3.4-9.7-3.4-14.9v-0.3c0-17.9,0-35.9,0-53.8c0-14.2,0-28.4,0-42.7
				c0-1.1,0-2.2-0.1-3.3c-0.2-5.4-0.3-10.9,3.2-15.7c-8.5,1.9-17.3,1.9-25.8,0c2.9,3.8,3.2,8.3,3.2,12.9c0,13.8,0,27.7,0,41.5
				c0,0.9-0.1,1.8-0.3,2.7c-0.1,0.6-0.2,1.3-0.3,2.2c-0.1,0.5-0.6,0.9-1.1,0.9c-0.3,0-0.6-0.2-0.8-0.6c-2.2-4.4-4.4-8.7-6.4-12.9
				c-4.9-9.9-9.5-19.2-14.6-28.3c-2.9-5.3-5.5-12-0.5-18.2h-37.1c3.3,3.7,3.6,8.6,3.6,13c-0.1,36.4-0.1,70,0,102.5
				c0,5.2,0,10.6-3.4,15c8.5-2,17.4-2,25.9-0.1c-2.9-4-3.2-8.7-3.2-13.2v-25c0-16.8,0-33.5,0-50.3c0-0.9,0.1-1.8,0.2-2.7
				c0.1-0.6,0.1-1.2,0.2-2c0-0.4,0.4-0.8,0.8-0.9L480.8,80.4z"/>
			<path class="st1" d="M690.3,193c-0.5,0-0.9-0.3-1-0.7c-0.1-0.5,0.1-0.9,0.5-1.2c7.5-4.2,7.5-10.2,7.4-16.5c0-0.7,0-1.4,0-2
				c0-17.5,0-35.1,0-52.6c0-33.8,0-67.5,0-101.3c0-6.6-1-10.9-6.3-13.9c-0.5-0.2-0.7-0.8-0.5-1.3c0.1-0.2,0.3-0.4,0.6-0.5
				c0.3-0.1,0.5-0.2,0.7-0.4c0.4-0.3,0.9-0.5,1.5-0.4c16.8,2.9,34,2.5,50.6,2.1c6.9-0.2,14-0.4,21-0.3h0.1c2.3,0,4.8-1.1,7.3-2.2
				c1.2-0.5,2.5-1.1,3.8-1.6c0.3-0.1,0.6-0.1,0.9,0.1c0.3,0.2,0.4,0.4,0.5,0.7c0.2,1.4,0.3,2.8,0.4,4.2c0.2,3.5,0.7,7,1.5,10.5
				c1,3.3,2.3,6.6,4,9.7c0.7,1.4,1.4,2.8,2,4.2c0.2,0.4,0.1,0.8-0.2,1.1c-0.3,0.3-0.7,0.4-1.1,0.2c-11.3-4.9-23-4.4-35.3-4
				c-6.1,0.3-12.2,0.3-18.3,0c-1-0.1-2.1-0.1-3.3,0h-0.9v33.5c21,1.9,33,0.6,42.3-4.7c0.5-0.3,1.1-0.1,1.4,0.4
				c0.2,0.3,0.2,0.6,0,0.9c-4.8,10.4-4.7,20.1,0.3,30.5c0.2,0.4,0.1,0.9-0.2,1.2c-0.3,0.3-0.8,0.3-1.2,0.1
				c-9.6-6.2-19.2-5.8-29.4-5.5c-4.5,0.3-9,0.2-13.5-0.1v27.4c0,20.9,0,41.8,0,62.7c0,0.6,0,1.1,0,1.7c0,6.2-0.1,12,6.6,16.2
				c0.4,0.2,0.6,0.7,0.4,1.2c-0.1,0.4-0.6,0.7-1,0.7c-2.5-0.3-4.8-0.6-7-0.8c-4.4-0.7-8.8-1.1-13.3-1.2h-0.1
				c-4.5,0.1-9,0.5-13.5,1.2c-2.3,0.3-4.8,0.6-7.4,0.9L690.3,193z M693.9,4.3c4.9,3.9,5.4,9.4,5.4,14.4c0,33.8,0,67.5,0,101.3
				c0,17.5,0,35.1,0,52.6c0,0.7,0,1.3,0,2c0.1,5.4,0.2,11.4-5,15.9l3.4-0.4c4.5-0.7,9.1-1.1,13.7-1.2h0.1c4.5,0.1,9,0.5,13.5,1.1
				l3.4,0.4c-4.7-4.5-4.6-10.1-4.6-15.6c0-0.6,0-1.1,0-1.7c0-20.9,0-41.8,0-62.7V82c0-0.3,0.1-0.6,0.3-0.7c0.2-0.2,0.5-0.3,0.8-0.2
				c4.8,0.4,9.6,0.5,14.3,0.2c9.1-0.3,18.6-0.7,27.8,4.2c-3.7-8.5-3.7-18.2-0.2-26.7c-9.5,4.5-21.7,5.5-41.9,3.6
				c-0.5,0-0.9-0.5-0.9-1V25.9c0-0.6,0.4-1,1-1h1.8c1.2,0,2.3,0,3.5,0c6,0.3,12,0.3,18,0c11.2-0.4,22.8-0.9,33.8,3.2l-0.9-1.9
				c-1.7-3.2-3-6.5-4.1-10c-0.9-3.6-1.4-7.2-1.5-10.8c-0.1-1-0.2-1.9-0.2-2.9c-0.8,0.3-1.6,0.7-2.4,1.1c-2.7,1.2-5.5,2.4-8.2,2.4
				c-7-0.1-14.1,0.1-21,0.3C727.5,6.6,710.5,7.1,693.9,4.3L693.9,4.3z"/>
			<path class="st1" d="M964.9,177.5c-0.1,0-0.2,0-0.3,0c-10-3.1-19.7-3.2-28.2-0.4c-0.3,0.1-0.6,0-0.9-0.1
				c-0.3-0.2-0.4-0.5-0.4-0.8c0-1.5,0.1-2.9,0.2-4.2c0.3-2.5,0.2-5-0.3-7.5c-3.8-14.6-8.1-29.1-12.1-42.7c-0.6-1.2-1.8-2.1-3.1-2.4
				c-2.3-0.3-4.6-0.3-6.9-0.2h-2.3v42c0,5.2,0,10.5,4.9,14.5c0.4,0.3,0.5,0.8,0.2,1.2c-0.2,0.4-0.7,0.6-1.2,0.5
				c-10.2-3-21-3.1-31.2-0.4c-0.5,0.1-1.1-0.2-1.2-0.7c-0.1-0.4,0-0.7,0.3-1c4.4-4.1,4.8-9.2,4.8-14.5c-0.1-26.7,0-53.9,0-80.1V59.8
				c0-0.6,0-1.3,0-1.9c0.1-5.5,0.1-10.8-4.8-13.9c-0.5-0.3-0.6-0.9-0.3-1.4c0.2-0.3,0.5-0.5,0.8-0.5c4.9,0.1,9.8,0.1,14.6,0.2
				c10.7,0.1,21.8,0.2,32.7,0.7c12.7,0.4,24.4,7,31.3,17.6c6.8,10.4,8.2,23.4,3.6,35c-3.1,8-8.9,14.1-17.3,18.2
				c-2.4,1.2-2.8,2-2,4.5c1.8,6,3.5,12.2,5.2,18.1c2.3,8.4,4.8,17.1,7.5,25.5c1.2,3.4,2.8,6.6,4.8,9.6c0.9,1.5,1.8,3,2.6,4.5
				c0.2,0.4,0.1,0.8-0.1,1.1C965.5,177.4,965.2,177.6,964.9,177.5z M949.3,173.1c4.6,0,9.1,0.6,13.6,1.8c-0.5-0.8-0.9-1.6-1.4-2.3
				c-2-3.1-3.7-6.5-5-10c-2.7-8.5-5.1-17.2-7.5-25.6c-1.7-5.9-3.4-12.1-5.2-18.1c-1-3.5-0.2-5.3,3-6.9c8-3.8,13.4-9.6,16.3-17.1
				c4.3-10.9,3.1-23.3-3.4-33.2C953.1,51.7,942,45.5,930,45.1c-10.8-0.5-21.9-0.6-32.6-0.7l-11.8-0.1c3.5,3.7,3.4,8.7,3.4,13.7
				c0,0.6,0,1.2,0,1.9v20.9c0,26.3,0,53.4,0,80.1c0,4.6-0.3,9.4-3.3,13.6c8.5-1.8,17.3-1.8,25.8,0.2c-3.1-4.2-3.1-9.1-3.1-13.4v-43
				c0-0.6,0.4-1,1-1c1.1,0,2.2,0,3.3,0c2.4-0.1,4.8-0.1,7.2,0.2c1.7,0.3,4.2,2,4.7,3.8c4.1,13.6,8.3,28.1,12.1,42.8
				c0.5,2.7,0.7,5.4,0.3,8.1c-0.1,0.9-0.1,1.8-0.1,2.7C941,173.7,945.1,173.1,949.3,173.1L949.3,173.1z M909.8,100.6
				c-0.3,0-0.5-0.1-0.7-0.3c-0.2-0.2-0.3-0.5-0.3-0.7v-36c0-0.6,0.4-1,1-1c2.3,0,4.7-0.1,7-0.2c5.2-0.3,10.4-0.2,15.5,0.4
				c8.4,1.1,14.4,8.1,14.7,16.9c0.3,9.2-6,17.6-14.3,19.1c-5.1,0.8-10.4,1.3-15.6,1.4C914.8,100.3,912.3,100.3,909.8,100.6
				L909.8,100.6z M910.8,64.6v33.9c2.1-0.1,4.2-0.2,6.3-0.3c5.1-0.1,10.2-0.5,15.3-1.3c7.4-1.4,12.9-8.9,12.7-17.1
				c-0.2-7.8-5.6-14-13-15c-5.1-0.5-10.1-0.7-15.2-0.3C914.8,64.5,912.8,64.6,910.8,64.6L910.8,64.6z"/>
			<path class="st1" d="M597.1,177.8c-2.4,0-4.9-0.2-7.3-0.7c-11.5-2.1-20.2-8.8-26.7-20.4c-9.2-16.5-12.6-35.5-10.4-59.6
				c1.2-13.8,4.7-25.4,10.6-35.5c7.6-13,20.4-20.8,34.4-20.8h0.1c14,0,26.8,7.9,34.4,21c7.8,13.7,11.5,30.3,11.2,50.9
				c0,10.3-1.5,25.5-8.7,39.8C626.6,168.5,612.6,177.8,597.1,177.8z M597.6,42.8c-13.2,0-25.4,7.4-32.6,19.8
				c-5.8,9.9-9.1,21.2-10.3,34.7c-2.1,23.8,1.1,42.4,10.2,58.5c6.2,11.1,14.5,17.5,25.3,19.4c17.7,3.2,33.7-5.6,42.7-23.6
				c7-13.9,8.4-28.8,8.4-38.9l0,0c0.3-20.2-3.3-36.6-10.9-49.9C623.1,50.3,610.9,42.8,597.6,42.8L597.6,42.8z M596.9,155.6
				c-7,0-12.6-3.6-15.6-10.2c-2.8-6.1-4.7-12.6-5.6-19.3c-2.3-16.5-1.6-30.7,2.3-43.4c1-3.6,2.5-7.1,4.4-10.3
				c3.6-6,9.2-9.4,15.3-9.4h0.1c6.2,0,11.8,3.6,15.5,9.7c4.8,8.2,5.9,17.2,6.7,27.3c0.2,2.1,0.1,4.2,0.1,6.3c0,0.9,0,1.9,0,2.8
				c0.1,11-0.2,22.6-5,33.7c-3.2,7.4-7.9,11.4-14.4,12.5C599.3,155.5,598.1,155.6,596.9,155.6L596.9,155.6z M597.7,65.1
				c-5.4,0-10.3,3.1-13.6,8.4c-1.8,3.1-3.2,6.4-4.2,9.8c-3.8,12.5-4.5,26.4-2.2,42.6c0.9,6.5,2.8,12.8,5.5,18.7
				c3.1,6.9,9.2,10,17,8.8c5.8-0.9,9.9-4.5,12.9-11.3c4.7-10.7,5-22.1,4.9-32.9l0,0c0-1,0-1.9,0-2.8c0-2,0.1-4.1-0.1-6.1
				c-0.8-9.8-1.8-18.6-6.4-26.5C608.2,68.3,603.2,65.2,597.7,65.1L597.7,65.1z"/>
			<path class="st1" d="M840.3,178.3c-0.6,0-1-0.4-1-1c0-0.2,0.1-0.5,0.2-0.6c5.1-6.2,3.4-11.5,1.6-17.1l-0.3-1.1
				c-1.7-5.5-2.6-8-4.2-9.1s-4.3-1.2-9.8-1.2h-5.2c-4.7,0-9.6,0-14.4,0.1c-1.1,0-2.2,0.5-3,1.3c-2.2,5.5-3.9,11.2-5.1,17
				c-0.3,1.9,0.2,4.1,0.7,6.4c0.3,1.1,0.5,2.3,0.7,3.6c0.1,0.5-0.3,1.1-0.8,1.1c-0.2,0-0.3,0-0.5,0c-9.1-3.1-19.3-3.2-30.4-0.2
				c-0.5,0.1-1-0.1-1.2-0.6c-0.2-0.4-0.1-1,0.3-1.2c6.3-4.4,8.1-10.8,10-17.6l0.2-0.6c8.8-31.1,17.6-61.6,27.3-95.4
				c2-6.8,3.2-13.3-3.3-18c-0.4-0.3-0.5-0.7-0.4-1.1c0.1-0.4,0.5-0.7,1-0.7h36.4c0.4,0,0.8,0.3,1,0.7c0.1,0.4,0,0.9-0.3,1.1
				c-7.1,5.2-5,12.2-2.8,19.6c0.2,0.8,0.5,1.6,0.7,2.5c2.7,9.5,5.4,19,8.1,28.5c6.2,21.8,12.5,44.4,19,66.4c1.2,3.6,2.9,7,4.9,10.1
				c0.9,1.5,1.8,3.1,2.6,4.6c0.3,0.5,0.1,1.1-0.4,1.3c-0.2,0.1-0.5,0.1-0.7,0.1c-11.2-2.8-20.9-2.4-30.6,1.1
				C840.5,178.3,840.4,178.3,840.3,178.3z M826.9,146.2c11.8,0,12.2,0.4,15.8,11.7l0.4,1.1c1.6,4.9,3.3,10.4-0.2,16.4
				c8.7-2.6,17.9-2.8,26.7-0.7c-0.5-0.9-1-1.8-1.5-2.6c-2.1-3.3-3.8-6.9-5-10.6c-6.5-22.1-12.9-44.7-19-66.5
				c-2.7-9.5-5.4-19-8.1-28.5c-0.2-0.8-0.5-1.6-0.7-2.4c-2.1-7-4.2-14.2,1.4-20h-31c5.1,5.2,3.8,11.9,1.9,18.4
				c-9.7,33.8-18.5,64.3-27.3,95.4l-0.2,0.6c-1.6,5.6-3.2,11.4-7.6,15.9c9.3-1.9,18-1.7,25.9,0.7c-0.1-0.6-0.3-1.2-0.4-1.8
				c-0.6-2.5-1.1-4.9-0.7-7.2c1.3-5.9,3-11.7,5.2-17.3c0.6-1.6,3.4-2.5,4.8-2.6c4.8-0.1,9.7-0.1,14.5-0.1h5.2L826.9,146.2z
				 M832.5,128.8H809c-0.3,0-0.6-0.1-0.8-0.4c-0.2-0.3-0.2-0.6-0.2-0.9l11.1-39.1c0.1-0.4,0.5-0.7,0.9-0.7h1.3c0.5,0,0.9,0.3,1,0.7
				l11,39.1c0.1,0.3,0,0.6-0.2,0.9C833.1,128.6,832.8,128.8,832.5,128.8L832.5,128.8z M810.4,126.8h20.8l-10.4-36.7L810.4,126.8z"/>
			<path class="st1" d="M218.7,181.7c-0.3,0-0.5-0.1-0.7-0.3c-4.9-5.4-10-5.4-15.4-5.4h-11.5c-10.5,0-21.3-0.1-31.9,0.1
				c-3.4,0-6.7,0.4-10.6,0.8c-1.9,0.2-3.9,0.4-6,0.6c-0.4,0-0.8-0.2-1-0.7c-0.2-0.4,0-0.9,0.4-1.2c6.2-4.1,6.1-9.6,6.1-15.4
				c0-0.5,0-1,0-1.6c0-19.7,0-39.4,0-59.1V60.2c0-0.6,0-1.1,0-1.7c0.1-5.8,0.1-11.3-6.2-15.4c-0.5-0.3-0.6-0.9-0.3-1.4
				c0.2-0.3,0.6-0.5,1-0.5c41.8,4,56.6,3.3,65.9-2.8c0.3-0.2,0.8-0.2,1.1,0c0.3,0.2,0.5,0.6,0.4,1c-2.2,9.4-0.6,19.2,4.5,27.4
				c0.2,0.4,0.2,0.9-0.1,1.2c-0.3,0.3-0.8,0.4-1.2,0.2c-8.7-4.9-17.5-4.6-26.9-4.2c-4.9,0.3-9.8,0.3-14.7-0.2c0,1.1,0,2.2,0,3.3
				c0,4.2,0,8.2,0.1,12.1c0.3,0.6,0.9,1,1.5,1.3h0.4c7.4,0,15,0,22.5-0.6c1.7-0.3,3.4-1,4.9-1.9c0.9-0.5,1.9-1,2.9-1.5
				c0.5-0.2,1.1,0,1.3,0.5c0.1,0.3,0.1,0.5,0,0.8c-3.6,8.8-3.6,17.5,0.3,27.6c0.2,0.5-0.1,1.1-0.6,1.3c-0.3,0.1-0.7,0.1-0.9-0.1
				c-7.4-5.3-14.9-5.1-22.8-4.8c-3.1,0.2-6.2,0.2-9.3,0v53.5c6-0.4,12-0.5,18-0.1c11.1,0.4,22.5,0.8,33.5-4c0.5-0.2,1.1,0,1.3,0.5
				c0.1,0.3,0.1,0.6,0,0.9c-5,8.7-6.5,17.6-4.9,28.1c0.1,0.4-0.2,0.9-0.6,1.1C219,181.7,218.8,181.7,218.7,181.7z M178.3,173.9h12.8
				h11.5c4.6,0,9.9,0,14.8,4c-1-8.3,0.4-16.7,4.2-24.1c-10.6,3.9-21.4,3.5-31.8,3.2c-6.3-0.4-12.6-0.3-18.9,0.2
				c-0.5,0.1-1-0.3-1.1-0.9c0,0,0-0.1,0-0.1v-55.6c0-0.3,0.1-0.6,0.3-0.7c0.2-0.2,0.5-0.3,0.8-0.2c3.4,0.3,6.8,0.3,10.2,0.1
				c7.1-0.2,14.3-0.5,21.5,3.6c-2.8-8.6-2.8-16.3-0.2-23.9l-0.6,0.3c-1.7,1.1-3.7,1.8-5.7,2.2c-7.5,0.6-15.2,0.6-22.6,0.6H173
				c-1.3,0-3.5-1.7-3.5-3.1c-0.2-4-0.1-8-0.1-12.2c0-1.4,0-2.9,0-4.4c0-0.6,0.4-1,1-1c0,0,0.1,0,0.1,0c5.1,0.5,10.3,0.6,15.4,0.3
				c8.3-0.3,16.8-0.7,25.1,3c-3.8-7.3-5.1-15.7-3.6-23.8c-9.5,5.2-24.7,5.7-61.8,2.3c4.5,4.4,4.5,9.7,4.4,15c0,0.6,0,1.1,0,1.7v39.3
				c0,19.7,0,39.4,0,59.1c0,0.5,0,1,0,1.6c0.1,5.2,0.1,10.6-4.3,14.9l2.6-0.3c3.9-0.4,7.3-0.8,10.8-0.8
				C165.5,174,171.9,173.9,178.3,173.9L178.3,173.9z"/>
			<path class="st1" d="M1144.5,178.3c-2.5,0-5-0.2-7.4-0.6c-2.6-0.4-5.3-1-7.8-1.5c-1.2-0.2-2.3-0.5-3.5-0.7
				c-6-1.2-12.2-2.4-18.5,1.4c-0.4,0.2-0.9,0.2-1.2-0.1c-0.3-0.3-0.4-0.8-0.2-1.2c0.7-1.6,1.5-3.1,2.2-4.6c1.6-2.9,2.9-6,4-9.2
				c0.8-3.2,1.4-6.6,1.6-9.9c0.2-1.5,0.3-3.1,0.5-4.6c0.1-0.5,0.6-0.9,1.1-0.8c0.2,0,0.4,0.1,0.5,0.3c8.2,7.7,18.6,10.5,30.8,8.4
				c5.3-0.8,9.9-4.3,12.2-9.1c2.1-4.7,1.6-10.1-1.2-14.4c-3.1-4.9-8-9-11.9-12c-4.6-3.5-9.6-6.7-14.4-9.8c-2.5-1.6-5-3.2-7.5-4.9
				c-15.8-10.6-21.3-28-13.9-44.4c6.8-15.1,25-23.1,42.4-18.7l1.5,0.4c6.6,1.7,12.8,3.3,19.5,0.2c0.5-0.2,1.1,0,1.3,0.5
				c0.2,0.4,0.1,0.8-0.2,1.1c-7.4,8.5-9.4,18.4-10.3,27.1c-0.1,0.5-0.6,0.9-1.1,0.9c-0.3,0-0.6-0.2-0.7-0.4l-0.8-1.1l-1.4-2.2
				c-4.9-7.7-15-10.1-22.9-5.4c-3,1.8-5.2,4.8-5.8,8.2c-0.6,2.9,0,6,1.8,8.4c3.3,4.2,7.6,7.8,11.8,11c3.2,2.5,6.7,4.9,10,7.2
				c3.8,2.6,7.8,5.3,11.4,8.3c14.6,11.6,20.3,25.8,17,42.1C1179.8,166.2,1163.7,178.3,1144.5,178.3z M1116.8,172.4
				c3.2,0.1,6.3,0.5,9.4,1.2l3.5,0.7c2.5,0.5,5.2,1,7.8,1.5c21.3,3.4,40.3-8.7,44.2-28.1c3.1-15.6-2.4-29.1-16.3-40.2
				c-3.6-2.9-7.6-5.6-11.3-8.2c-3.3-2.3-6.8-4.7-10.1-7.2c-4.3-3.3-8.7-7-12.1-11.4c-2.2-2.9-3-6.5-2.2-10c0.8-4,3.3-7.5,6.8-9.6
				c8.8-5.1,20-2.4,25.6,6.1l0.7,1.1c1-7.3,3-15.4,8.3-22.7c-6,1.6-11.8,0.1-17.4-1.3l-1.5-0.4c-16.5-4.2-33.8,3.4-40.1,17.6
				c-7,15.6-2,31.7,13.2,41.9c2.5,1.7,5,3.3,7.4,4.9c4.8,3.1,9.9,6.4,14.6,9.9c4,3.1,9.1,7.3,12.4,12.5c3.2,4.9,3.7,11,1.4,16.3
				c-2.6,5.5-7.7,9.4-13.7,10.3c-12.2,2.1-22.6-0.5-31.1-7.7c-0.1,0.9-0.2,1.8-0.3,2.6c-0.2,3.5-0.8,6.9-1.7,10.3
				c-1.1,3.3-2.5,6.5-4.1,9.6l-0.9,1.9C1111.4,172.9,1114.1,172.4,1116.8,172.4z"/>
			<path class="st1" d="M348.5,177.7c-0.1,0-0.2,0-0.3-0.1c-8.9-3.2-18.6-3.3-30.6-0.3c-0.5,0.1-0.9-0.1-1.1-0.5
				c-0.2-0.4-0.1-0.9,0.3-1.2c4.9-4,5.3-9,5.3-15.2c-0.1-32.7-0.1-66.4,0-102.9c0-5.4-0.4-10.4-4.9-13.7c-0.4-0.3-0.5-0.9-0.2-1.4
				c0.2-0.3,0.5-0.4,0.8-0.4c3.3,0.1,6.6,0.2,9.8,0.4c7.3,0.3,14.8,0.6,22.1,0.4c2.8-0.1,5.7,0.1,8.5,0.3c7.7,0.5,15,0.9,21.4-3.9
				c0.4-0.3,1.1-0.2,1.4,0.2c0.1,0.1,0.1,0.3,0.2,0.4l5.6,26.4c0.1,0.5-0.2,1.1-0.8,1.2c-0.2,0-0.5,0-0.7-0.1
				c-7.4-4.2-15.8-3.8-24.6-3.4c-5,0.4-10.1,0.3-15.2-0.1v16.9c3.1-0.2,6.2-0.2,9.2,0c7.7,0.3,15,0.6,21.9-4c0.3-0.2,0.8-0.2,1.1,0
				c0.3,0.2,0.5,0.6,0.5,1c-0.2,1.4-0.5,2.9-0.8,4.3c-0.7,3.1-1.1,6.2-1.1,9.3c0.1,3,0.6,6.1,1.3,9c0.3,1.4,0.6,3,0.9,4.5
				c0.1,0.5-0.2,1.1-0.8,1.2c-0.3,0.1-0.6,0-0.8-0.2c-6.7-5.1-13.9-4.7-21.6-4.4c-2.6,0.1-5.4,0.2-8,0.1c-0.9,0.5-1.6,1.3-1.9,2.2
				c-0.2,21.8-0.3,41.5,0.1,61.4c0,2.4,1.1,4.8,2.3,7.4c0.6,1.3,1.1,2.6,1.6,3.9c0.1,0.4,0,0.7-0.2,1
				C349.1,177.6,348.8,177.7,348.5,177.7z M333.6,173.2c4.5,0,8.9,0.6,13.2,1.9c-0.3-0.6-0.5-1.2-0.8-1.8c-1.2-2.8-2.4-5.4-2.5-8.1
				c-0.4-20-0.3-39.7-0.1-61.5c0.2-1.2,0.8-2.3,1.7-3.1c0.6-0.7,1.4-1.1,2.3-1.2c2.6,0.1,5.2,0,7.9-0.1c7-0.3,14.2-0.6,20.9,3.4
				c-0.1-0.7-0.3-1.4-0.4-2.1c-0.8-3.1-1.2-6.2-1.4-9.4c0.1-3.3,0.5-6.5,1.2-9.7c0.1-0.7,0.3-1.4,0.4-2.1
				c-6.8,3.7-14.1,3.4-21.1,3.2c-3.4-0.2-6.7-0.2-10.1,0c-0.3,0-0.6-0.1-0.8-0.3c-0.2-0.2-0.3-0.5-0.3-0.7V62.5
				c0-0.3,0.1-0.6,0.3-0.8c0.2-0.2,0.5-0.3,0.8-0.2c5.3,0.6,10.6,0.7,15.9,0.3c8.4-0.4,16.4-0.8,23.8,2.7l-4.9-22.9
				c-6.7,4.3-14.2,3.8-21.5,3.4c-2.8-0.2-5.6-0.3-8.4-0.2c-7.4,0.3-15-0.1-22.3-0.4l-7.1-0.3c3.3,3.7,3.6,8.7,3.6,13.5
				c-0.1,36.5-0.1,70.2,0,102.9c0,5.3-0.3,10.1-3.5,14.2C324.8,173.7,329.2,173.2,333.6,173.2z"/>
			<path class="st1" d="M299.3,181.3c-0.3,0-0.6-0.1-0.8-0.3c-4.7-5.3-9.9-5.3-15.4-5.2h-2h-6.6c-7,0-14.2-0.1-21.3,0.1
				c-4.3,0.1-8.5,0.4-13,0.8c-2.1,0.2-4.2,0.3-6.4,0.5c-0.6,0-1-0.4-1.1-0.9c0-0.3,0.1-0.7,0.4-0.9c5.4-4.2,5.3-9.8,5.1-15.7
				c0-1-0.1-2-0.1-3c0-15.2,0-30.4,0-45.6c0-18,0-35.9,0-53.9c0-5.1-0.4-10.1-5-13.9c-0.4-0.4-0.5-1-0.1-1.4c0.2-0.3,0.7-0.4,1-0.3
				c10.3,2.9,21.2,2.9,31.5-0.1c0.5-0.1,0.9,0.1,1.1,0.5c0.2,0.4,0.1,0.9-0.2,1.2c-4.9,4.2-4.8,9.6-4.8,15.4v0.1
				c0,22.2,0,44.4,0,66.6v29.3c5.2-0.4,10.4-0.5,15.6-0.2c10.8,0.3,21,0.6,31.5-4.7c0.4-0.2,0.9-0.1,1.2,0.2c0.3,0.4,0.3,0.9,0,1.2
				c-6.5,9.1-10.7,17.5-9.8,29.1c0,0.4-0.2,0.8-0.6,1C299.6,181.3,299.4,181.3,299.3,181.3z M284.9,173.7c4.5,0,9.1,0.4,13.3,4
				c-0.1-10.1,3.6-17.9,8.2-24.8c-9.9,4-19.7,3.7-29.1,3.4c-5.5-0.3-11-0.2-16.4,0.3c-0.5,0.1-1-0.3-1.1-0.9c0,0,0-0.1,0-0.1v-30.4
				c0-22.2,0-44.4,0-66.6v-0.1c0-4.9,0-10,3.1-14.3c-8.5,1.9-17.4,1.9-25.9,0c3,3.9,3.3,8.5,3.3,12.9c0,18,0,35.9,0,53.9
				c0,15.2,0,30.4,0,45.6c0,1,0,2,0.1,2.9c0.1,5.4,0.3,10.9-3.7,15.4l3.5-0.3c4.5-0.4,8.8-0.7,13.1-0.8c7.1-0.2,14.4-0.1,21.4-0.1
				h6.6L284.9,173.7L284.9,173.7z"/>
			<path class="st1" d="M431.9,177.4c-0.1,0-0.2,0-0.3,0c-10-3-20.3-3-31.4-0.1c-0.5,0.1-1.1-0.2-1.2-0.7c-0.1-0.4,0-0.8,0.4-1.1
				c5.1-4,5.1-9.2,5-14.8c0-0.5,0-1,0-1.5v-23.7c0-25.8,0-52.5,0-78.7c0-5.8-0.8-10-4.5-12.9c-0.4-0.3-0.5-1-0.2-1.4
				c0.2-0.2,0.5-0.4,0.8-0.4h30.9c0.4,0,0.8,0.3,1,0.7c0.1,0.4,0,0.9-0.4,1.1c-4.3,3.2-4.2,8.4-4.2,13.9c0,0.8,0,1.6,0,2.3
				c0,15.6,0,31.3,0,46.9c0,17.5,0,35,0,52.5v0.9c0,5.6,0,11,4.8,15.2c0.4,0.4,0.4,1,0.1,1.4C432.4,177.3,432.1,177.4,431.9,177.4
				L431.9,177.4z M416.2,173.1c4.3,0,8.5,0.5,12.7,1.4c-3.1-4.3-3.1-9.3-3.1-14.1v-0.9c0-17.5,0-35,0-52.5c0-15.6,0-31.3,0-46.9
				c0-0.8,0-1.5,0-2.3c-0.1-4.9-0.2-10,3-13.8H403c3.1,3.7,3.4,8.4,3.4,12.7c0,26.2,0,52.9,0,78.7v23.7c0,0.5,0,1,0,1.5
				c0,4.8,0.1,9.7-3.2,13.8C407.5,173.6,411.8,173.1,416.2,173.1L416.2,173.1z"/>
		</g>
	</g>
</g>
</svg>
