<?xml version="1.0" encoding="UTF-8"?>
<svg xmlns="http://www.w3.org/2000/svg" id="Layer_1" data-name="Layer 1" version="1.1" viewBox="0 0 144 147">
  <defs>
    <style>
      .cls-1 {
        fill: #fff;
        fill-rule: evenodd;
        stroke-width: 0px;
      }
    </style>
  </defs>
  <g id="Page-1">
    <g id="Atoms">
      <g id="Text-Badge-_-Hand-Crafted-Pies" data-name="Text-Badge-/-Hand-Crafted-Pies">
        <path id="Combined-Shape" class="cls-1" d="M64.7,126.9l3.4.6-3.5,19.2-14.2-2.6.6-3.1,10.9,2,1-5.2-9.6-1.8.6-3.1,9.6,1.8,1.4-7.8ZM92.4,123.9l-4.3,21-3.1.7-12.4-17.4,3.5-.8,2.9,4.2,9-1.9,1-5,3.4-.7ZM87.4,132.9l-6.5,1.4,4.9,6.9,1.6-8.3ZM42.3,118.6l2.9,1.8-8.4,14,5.3,3.2-1.6,2.7-13.5-8.2,1.6-2.7,5.3,3.2,8.4-14ZM108.4,112.8l11.3,15.9-7,5.1c-3.6,2.6-7.2,2.3-9.4-.8-1.9-2.6-1.4-5.3.3-7.5l-8.5-2.9,3.3-2.3,7.8,2.7,3.5-2.5-3.9-5.5,2.8-2ZM111.3,122.8l-4.1,2.9c-2,1.4-2.5,3.4-1.3,5,1.2,1.7,3.1,1.8,5.2.3l4-2.9-3.8-5.3ZM24.5,100.6l9,11.5-15.3,12.1-8.9-11.4,2.4-1.9,6.8,8.7,4-3.1-6-7.7,2.4-1.9,6,7.7,4.1-3.2-6.9-8.8,2.4-1.9ZM129.4,99.6c4.7,2.9,6.4,8.9,3.3,13.9-1.9,3.1-4.1,4.2-6.6,4.9l-1-3.2c2-.6,3.7-1.5,4.9-3.4,2-3.2.8-7.1-2.5-9.1-3.3-2-7.3-1.4-9.3,1.8-1.3,2-1.2,3.9-.8,6.1l-3,.7c-.7-2.8-.7-5.4,1.2-8.5,3-4.8,8.9-6.1,13.7-3.1ZM20.2,89l1.9,7-18.7,5.2-1.9-7c-1.6-5.9,1.3-11.1,6.6-12.6,5.3-1.5,10.5,1.5,12.1,7.4ZM9,85.1c-3.7,1-5.7,4.4-4.6,8.3l1,3.7,12.7-3.5-1-3.7c-1.1-3.9-4.4-5.8-8.1-4.8ZM143.6,61.7l.3,7.3c.3,6.1-3.7,10.6-9.2,10.8-5.5.3-9.9-3.8-10.2-9.9l-.3-7.3,19.4-.9ZM140.7,65.3l-13.2.6.2,3.8c.2,4.1,3.1,6.6,6.9,6.5,3.8-.2,6.5-3,6.3-7.1l-.2-3.8ZM10.8,45.1c4.2,1.4,5.3,5.4,3.9,9.5l-1.2,3.7,5.9,1.9-1.1,3.3L0,57.5l2.4-7.3c1.4-4.3,4.7-6.3,8.5-5ZM5.2,51.4l-1.2,3.8,6.6,2.2,1.2-3.8c.8-2.5,0-4.4-2-5.1-2.2-.7-3.8.5-4.6,2.9ZM132.3,32.8l1.4,2.8-7.2,15.4,12-6.1,1.5,3-17.3,8.9-1.3-2.6,7.4-15.9-12.3,6.3-1.5-3,17.3-8.9ZM12.1,31.1l16,11-1.9,2.8-16-11,1.9-2.8ZM115.6,15.4l2.5,2-5.5,20.7-2.8-2.3,1.4-4.9-7.2-5.8-4.5,2.4-2.7-2.2,18.9-10ZM30.8,12.3l1.9,2.4-8.5,7,3.2,3.9,7.5-6.2,1.9,2.4-7.5,6.2,3.3,4,8.6-7.1,1.9,2.4-11.2,9.3-12.4-15,11.1-9.2ZM114.2,19.5l-7.4,4,5.2,4.2,2.2-8.2ZM81.9.8l3.3.9-2,7.8,9,2.3,2-7.8,3.3.9-4.9,18.9-3.3-.9,2.1-8-9-2.3-2.1,8-3.3-.9L81.9.8ZM54.9,4.2l-.9,3c-2.1-.7-4-.8-5.6-.2-1.9.6-2.7,2-2.2,3.2.5,1.5,1.5,1.8,5.4,1.4,4.2-.4,6.7.3,7.8,3.4,1.2,3.5-.8,6.5-4.7,7.8-2.8,1-5.8.9-8.7-.3l1.2-3c2.3.9,4.3,1.2,6.6.4,2-.7,2.9-2,2.5-3.5-.5-1.3-1.4-1.8-5.1-1.4-4.2.4-6.8,0-8-3.4-1.1-3.2.8-6.3,4.4-7.5,2.7-.9,5.1-.8,7.5,0Z"></path>
      </g>
    </g>
  </g>
</svg>
