<?xml version="1.0" encoding="UTF-8"?>
<svg xmlns="http://www.w3.org/2000/svg" id="Layer_1" data-name="Layer 1" version="1.1" viewBox="0 0 150 149">
  <defs>
    <style>
      .cls-1 {
        fill: #fff;
        fill-rule: evenodd;
        stroke-width: 0px;
      }
    </style>
  </defs>
  <g id="Page-1">
    <g id="Atoms">
      <g id="Text-Badge-_-Camino-CA" data-name="Text-Badge-/-Camino-CA">
        <path id="Combined-Shape" class="cls-1" d="M79.5,137.6l.2,11.1h-8.3c0,.1,0-1.6,0-1.6h6.3c0-.1,0-3,0-3h-5.6c0,0,0-1.7,0-1.7h5.6c0,0,0-3.1,0-3.1h-6.4c0,.1,0-1.6,0-1.6h8.4ZM90.9,135.7l2.2,10.9-1.9.4-1.9-9.1-5.8,1.2-.4-1.7,7.7-1.5ZM51.6,133.5l1.9.6-1.4,4.5,5.1,1.6,1.4-4.5,1.9.6-3.3,10.6-1.9-.6,1.4-4.4-5.1-1.6-1.4,4.4-1.9-.6,3.3-10.6ZM100.2,132.4l1.7,4,6.7,4.5-2.1.9-4.8-3.3-1,5.7-2.1.9,1.5-7.9-1.7-4.1,1.8-.8ZM38.1,126.4l1.8,1-.4,2.9,4.6,2.6,2.3-1.8,1.7,1-9.9,7.3-1.6-.9,1.3-12.1ZM111.2,126.3l5.2,7.7,2.9-2,1,1.5-7.5,5-1-1.5,2.9-2-5.2-7.7,1.6-1.1ZM39.3,132.2l-.6,4.8,3.9-2.9-3.3-1.9ZM28.2,117.9l1.7,1.5-.6,4.7,1.8,1.6,2.6-2.9,1.5,1.3-7.5,8.2-3.7-3.3c-1.9-1.7-2.2-3.8-.7-5.4,1.2-1.4,2.8-1.4,4.3-.7l.6-5.1ZM24.9,125c-.8.9-.6,1.9.5,2.9l2.1,1.9,2.5-2.8-2.1-1.9c-1-.9-2.2-1-3-.1ZM123.8,117.6v1.8c-1.3,0-2.4.5-3.4,1.4-.9.8-1,1.8-.4,2.4.6.6,1.2.6,3-.5,2.1-1.3,3.6-1.7,5-.2,1.4,1.4,1.2,3.4-.4,5-1.2,1.1-2.4,1.7-3.9,1.8l-.3-1.8c1.2-.2,2.2-.6,3-1.3.8-.8.9-1.7.4-2.2-.6-.6-1.3-.5-3.1.6-2.1,1.2-3.6,1.5-4.9.2-1.5-1.5-1.2-3.5.5-5.1,1.2-1.2,2.8-1.9,4.6-2ZM23.4,111.7l2.4,3.4-9.1,6.5-2.4-3.4c-2-2.8-1.5-6.2,1.1-8s6-1.3,8,1.6ZM16.6,111.8c-1.8,1.3-2.2,3.4-.8,5.3l1.3,1.8,6.2-4.4-1.3-1.8c-1.4-1.9-3.5-2.2-5.3-.9ZM133.9,98.6l7.7,9.5-.8,1.6-12.3-.8,1-1.8,2.9.2,2.4-4.6-1.9-2.2.9-1.8ZM136.1,104.1l-1.8,3.4,4.9.4-3.1-3.7ZM135.6,93.1l10.7,3.4-.6,1.9-10.7-3.4.6-1.9ZM12.1,87.2l.6,2-2.3,1.8,1.5,5,2.9.3.6,1.9-12.2-1.5-.5-1.7,9.4-7.9ZM9,92.2l-3.7,3.1,4.8.6-1.1-3.7ZM138.5,79.1l11.1,1.6-.3,1.8-8.5,4.8,7.7,1.1-.3,1.9-11.1-1.6.2-1.6,8.8-4.9-7.9-1.1.3-1.9ZM7.8,79.8l.2,2.2,3.6-.3.2,1.9-11.2.9-.4-4.4c-.2-2.6,1.1-4.3,3.4-4.5,2.5-.2,4,1.7,4.2,4.1ZM3.8,77.6c-1.3.1-1.9,1.1-1.8,2.5l.2,2.3,4-.3-.2-2.3c-.1-1.5-1-2.3-2.2-2.2ZM149.1,65.2l.3,4.9c.2,2.5-1.1,4.2-3.3,4.3-1.9.1-3-.9-3.6-2.4l-4,3.3-.2-2.3,3.7-3-.2-2.4-3.9.3v-1.9c-.1,0,11-.8,11-.8ZM147.5,67.3l-3.8.3.2,2.8c0,1.4.9,2.2,2,2.1,1.2,0,1.8-1,1.7-2.4l-.2-2.8ZM4.7,62c2.5.3,3.6,2.4,3.3,4.8l-.2,2.2,3.6.4-.2,1.9L0,70.1l.5-4.3c.3-2.6,1.9-4,4.2-3.8ZM2.3,66.1l-.3,2.3,4,.4.3-2.3c.2-1.5-.5-2.5-1.7-2.6-1.3-.1-2.1.7-2.3,2.2ZM146.6,53.2c1,3.3-.8,6.3-3.8,7.2-3,.9-6.3-.6-7.3-3.9-1-3.3.8-6.3,3.8-7.2,3-.9,6.3.6,7.3,3.9ZM13.6,51.3l1.7.5-2.3,7.4-10.7-3.3.6-1.9,9,2.8,1.7-5.6ZM140,51.3c-2.1.6-3.4,2.6-2.7,4.8.6,2.1,2.8,3.1,4.9,2.4,2.1-.6,3.4-2.6,2.7-4.7-.6-2.1-2.8-3.1-4.9-2.4ZM10.9,35.9l1.6.8-3,5.5,2.6,1.4,2.7-4.9,1.6.8-2.7,4.9,2.7,1.4,3-5.6,1.6.8-4,7.3-9.9-5.2,3.9-7.2ZM138.4,35.4l4,7.2-1.6.9-3.1-5.5-2.7,1.5,2.7,4.9-1.6.9-2.7-4.9-4,2.2-1-1.7,9.8-5.4ZM133.4,28.6l1.2,1.5-8.9,6.8-1.2-1.5,8.9-6.8ZM124.2,18.9l1.4,1.4-6.5,6.7,4.2,4-1.2,1.3-5.7-5.4,7.8-8ZM27.5,19v1.9c-1.1,0-2.2.3-3.1,1.2-1.5,1.5-1.4,3.8.1,5.4,1.5,1.6,3.9,1.8,5.4.3,1-1,1.2-2,1.3-3.3h1.8c0,1.7-.4,3.1-1.9,4.6-2.3,2.3-5.9,2.1-8.1-.2-2.2-2.3-2.3-5.8,0-8.1,1.5-1.4,2.9-1.8,4.4-1.8ZM114.1,11.5l1.5,1-1.9,12-1.8-1.1.5-2.9-4.5-2.8-2.4,1.7-1.7-1.1,10.2-6.8ZM32.7,13.4l6.4,9.1-1.6,1.1-6.4-9.1,1.6-1.1ZM49.9,10.5c1.4,2.8.2,6.1-3,7.6l-3.8,1.8-4.8-10,3.8-1.8c3.2-1.5,6.4-.4,7.8,2.5ZM113.6,13.9l-4,2.7,3.3,2,.8-4.8ZM42.8,9.6l-2,.9,3.3,6.8,2-.9c2.1-1,2.8-3.1,1.9-5-1-2-3-2.8-5.2-1.8ZM101,5c1.9.7,2.9,1.8,3.5,3.1l-1.7.9c-.6-1.1-1.3-1.9-2.5-2.4-2-.7-4.1.4-4.8,2.5-.8,2.1,0,4.2,2.1,5,1.3.5,2.3.2,3.5-.3l.8,1.6c-1.5.7-3,1-4.9.3-3.1-1.1-4.5-4.3-3.4-7.3,1.1-3,4.2-4.6,7.4-3.5ZM61.6,1.6l.4,1.7-6.2,1.5.7,2.8,5.5-1.3.4,1.7-5.5,1.3.7,2.9,6.2-1.5.4,1.7-8.2,1.9-2.6-10.8,8.1-1.9ZM77.2,4c0,1.8-1,3-2.6,3.5l3.2,4.1h-2.3c0,0-2.9-3.7-2.9-3.7h-2.5c0,0,.1,3.9.1,3.9h-2c0,0-.4-11-.4-11l5-.2c2.6,0,4.2,1.2,4.3,3.4ZM72.8,2.4h-2.9c0,0,.1,3.8.1,3.8h2.9c1.4-.1,2.3-.9,2.2-2,0-1.2-.9-1.8-2.4-1.8Z"></path>
      </g>
    </g>
  </g>
</svg>
