<?xml version="1.0" encoding="UTF-8"?>
<svg xmlns="http://www.w3.org/2000/svg" id="Layer_1" data-name="Layer 1" version="1.1" viewBox="0 0 151 149">
  <defs>
    <style>
      .cls-1 {
        fill: #fff;
        fill-rule: evenodd;
        stroke-width: 0px;
      }
    </style>
  </defs>
  <g id="Page-1">
    <g id="Atoms">
      <g id="Text-Badge-_-Wines" data-name="Text-Badge-/-Wines">
        <path id="Combined-Shape" class="cls-1" d="M59.3,132.5l2.7.4,1,3.7,6.9,1,2-3.3,2.6.4-8.5,13.7-2.4-.3-4.3-15.5ZM90.1,132.6l2.2,14.5-6.5,1c-2.9.4-5-.7-5.3-3-.3-1.8.6-2.8,1.6-3.6-1.8-.3-3.1-1.1-3.4-3.1-.4-2.6,1.5-4.3,4.7-4.8l6.7-1ZM88.8,141.4l-3.5.5c-1.6.3-2.6,1.1-2.4,2.4.2,1.2,1.2,1.7,2.8,1.5l3.7-.6-.6-3.8ZM51.1,129.1l2.4,1-4.7,11.3,4.3,1.8-.9,2.2-11-4.6.9-2.2,4.3,1.8,4.7-11.3ZM63.5,139l1.7,6.2,3.3-5.4-5-.7ZM87.9,135.3l-4.2.6c-1.7.3-2.7,1.1-2.5,2.4.2,1.2,1.3,1.8,3.3,1.5l4-.6-.6-4ZM111.3,122.4l7.9,12.4-2.2,1.4-6.6-10.4-6.5,4.1-1.3-2,8.7-5.5ZM38.1,120.9c3.4,2.6,3.9,7.2,1.3,10.5-2.6,3.3-7.1,4.1-10.6,1.4-2.1-1.7-2.8-3.4-3.1-5.3l2.5-.5c.3,1.6.8,2.9,2.1,3.9,2.2,1.7,5.2,1.1,7-1.1,1.8-2.3,1.6-5.4-.6-7.1-1.4-1.1-2.8-1.2-4.5-1.1l-.3-2.3c2.2-.3,4.1,0,6.3,1.6ZM122.1,112l10.6,10-1.8,1.9-8.9-8.4-5.3,5.6-1.7-1.6,7-7.5ZM23.1,104.2l1.5,2.1-5,3.6,4.1,5.7,5-3.6,1.5,2.1-11.9,8.5-1.5-2.1,5-3.5-4.1-5.7-5,3.5-1.5-2.1,11.9-8.5ZM132,95.1l10.1,12.5-1.1,2.1-16.1-1.1,1.3-2.4,3.8.3,3.2-6.1-2.4-3,1.2-2.3ZM134.9,102.3l-2.3,4.5,6.4.4-4-4.9ZM0,72.4l15.2,3.3.3,2.2-10,4.8,10.9,2.3.3,2.2-14,6.8-.3-2.8,10.4-4.8-11.2-2.3-.3-2.2,10.4-4.9-11.2-2.2-.3-2.7ZM135.6,76.7l14.5,2.3-.4,2.7-7.5,3.3,6.1,5.5-.4,2.7-14.5-2.3.4-2.5,10.4,1.6-6.1-5.6h0c0,0,7.5-3.5,7.5-3.5l-10.3-1.6.4-2.5ZM149.4,64c.3,2.1-.1,3.9-1.1,5.5l-2.1-1.1c.8-1.4,1.1-2.8,1-4.1-.2-1.5-1.1-2.3-2.1-2.1-1.1.2-1.5.9-1.8,3.8-.3,3.2-1.2,4.9-3.6,5.2-2.7.4-4.6-1.5-5.1-4.6-.3-2.2.2-4.4,1.5-6.4l2,1.3c-1,1.6-1.5,3-1.3,4.8.2,1.6,1.1,2.5,2.2,2.3,1.1-.1,1.5-.8,1.8-3.6.3-3.2,1-5.1,3.7-5.4,2.5-.3,4.5,1.5,4.9,4.4ZM2,61l14.5,2.3-.4,2.5-14.5-2.3.4-2.5ZM8.9,40l13.5,5.6-.8,2-12.7,3.5,9.6,4-1,2.3-13.5-5.6.9-2.2,12.4-3.4-9.4-3.9,1-2.3ZM137.1,32.4l1.3,2.2-10.6,6.3,3.9,6.6-2,1.2-5.2-8.8,12.6-7.5ZM20.9,23.1l1.8,1.4-5.2,6.4,3,2.4,4.6-5.7,1.8,1.4-4.6,5.7,3.1,2.5,5.3-6.5,1.8,1.4-6.9,8.5-11.4-9.2,6.8-8.5ZM125.8,19.3l1.7,1.6-5.5,15.1-2-1.9,1.4-3.6-5-4.8-3.5,1.5-1.9-1.8,14.8-6.3ZM124.5,22.3l-5.9,2.5,3.7,3.5,2.2-6ZM36.4,12.5v2.4c-1.6,0-3,.3-4.1,1.1-1.2.9-1.5,2-.9,2.8.7.9,1.5.9,4.2-.2,2.9-1.2,4.9-1.3,6.3.7,1.6,2.2.9,4.8-1.6,6.6-1.8,1.3-4,1.9-6.3,1.7l.2-2.4c1.8.2,3.4-.1,4.9-1.2,1.3-.9,1.7-2.1,1-3-.6-.9-1.4-1-4,.1-3,1.2-4.9,1.5-6.5-.7-1.5-2.1-.8-4.7,1.5-6.4,1.7-1.3,3.5-1.7,5.4-1.7ZM109.5,7.8c2.4,1.2,3.5,2.8,4.1,4.6l-2.3,1c-.6-1.5-1.4-2.7-2.9-3.5-2.5-1.2-5.4,0-6.6,2.5-1.3,2.6-.5,5.6,2,6.8,1.6.8,3,.7,4.6.2l.7,2.2c-2.1.7-4,.9-6.5-.3-3.8-1.9-5.2-6.3-3.3-10.1,1.9-3.7,6.2-5.4,10.1-3.4ZM86.7.4c4.4.7,7,4.5,6.4,8.6-.6,4.1-4.3,7-8.7,6.4-4.4-.7-7-4.5-6.4-8.6.6-4.1,4.3-7,8.7-6.4ZM64.3.6l1.5,12.2,7.6-.9.3,2.3-10.2,1.2-1.8-14.5,2.6-.3ZM80.6,7.1c-.4,2.8,1.3,5.5,4.1,5.9,2.9.4,5.2-1.6,5.7-4.4.4-2.8-1.3-5.5-4.1-5.9-2.9-.4-5.2,1.6-5.7,4.4Z"></path>
      </g>
    </g>
  </g>
</svg>
