<?xml version="1.0" encoding="UTF-8"?><svg xmlns="http://www.w3.org/2000/svg" viewBox="0 0 326.5 326.5"><defs><style>.c{fill:#fff;}</style></defs><g id="a"/><g id="b"><g><polygon class="c" points="180.4 88.02 180.59 87.9 180.49 83.36 180.51 82.86 180.33 83.32 178.36 87.41 178.48 87.61 180.4 88.02"/><path class="c" d="M97.75,158.2c.06-.2,.08-.39,.08-.64,0-.05,0-.09-.01-.13,0-.02,0-.04,0-.07,0-.1-.02-.21-.04-.31l-.02-.11c-.04-.13-.07-.24-.12-.37-.01-.04-.03-.07-.05-.1-.03-.05-.05-.11-.09-.21l-.04-.06c-.04-.07-.08-.15-.14-.21-.13-.17-.27-.35-.47-.5-.04-.02-.07-.05-.11-.08-.05-.04-.1-.08-.16-.11l-.08-.04c-.17-.08-.36-.18-.55-.23-.22-.07-.46-.12-.81-.14h-.23c-.09,.03-.2,.04-.3,.04-.06,0-.12,0-.2,.02-.15,.04-.29,.08-.43,.13-.07,.02-.15,.04-.22,.08-.03,.01-.07,.02-.1,.04-.02,0-.04,.02-.1,.04-.07,.03-.13,.06-.19,.1-.05,.03-.1,.06-.19,.1-.06,.04-.11,.08-.17,.13-.05,.04-.09,.08-.14,.11-.12,.08-.21,.17-.3,.26l-.05,.05s-.03,.03-.04,.05c-.03,.03-.06,.06-.06,.07-.04,.04-.09,.11-.12,.17-.01,.02-.03,.04-.05,.06-.03,.04-.06,.08-.09,.12l-.06,.1c-.08,.13-.17,.29-.24,.47,0,.03-.02,.05-.04,.08l-.05,.1c-.02,.06-.04,.14-.05,.19-.06,.16-.08,.32-.1,.49-.04,.21-.06,.39-.04,.53,0,.1,0,.21,.02,.26,0,.07,.01,.15,.04,.26,.02,.15,.06,.31,.12,.47,.05,.18,.13,.36,.22,.5-.17,.02-.31,.03-.45,.07-.1,0-.2,.02-.27,.06-.02,0-.04,0-.06,.01-.06,0-.14,.02-.18,.04-.05,.01-.09,.03-.13,.05-.02,.01-.05,.02-.07,.03-.04,.01-.08,.03-.13,.04-.03,.01-.06,.02-.09,.03l-.06,.03s-.05,.02-.08,.03c-.04,.01-.07,.03-.11,.05-.27,.15-.54,.29-.73,.45-.06,.04-.13,.09-.19,.14-.05,.04-.1,.07-.16,.11-.06,.05-.11,.11-.17,.16-.04,.04-.08,.09-.14,.14-.19,.19-.36,.41-.53,.64-.07,.09-.14,.19-.2,.28l-.12,.2c-.05,.09-.11,.18-.14,.27-.02,.04-.04,.08-.06,.12l-.04,.08-.02,.04c-.02,.06-.03,.1-.07,.2-.01,.05-.04,.1-.07,.14l-.03,.08c-.02,.07-.03,.14-.05,.21-.1,.32-.15,.66-.17,1.02v.31c0,.09,.01,.17,.02,.26,0,.1,0,.19,.02,.27,.01,.14,.05,.27,.08,.38,.01,.04,.03,.09,.04,.13,.02,.08,.04,.16,.07,.22,.02,.06,.03,.13,.05,.19l.02,.06s.03,.06,.04,.09c.02,.04,.03,.09,.04,.1,.03,.1,.08,.18,.12,.27,.03,.05,.05,.09,.09,.17l.13,.19s.03,.04,.04,.07c.01,.03,.03,.06,.04,.08,.05,.1,.1,.16,.14,.2,.09,.13,.18,.25,.25,.31,.06,.1,.15,.18,.22,.25l.07,.07c.1,.1,.21,.18,.32,.27,.06,.05,.12,.09,.18,.15,.06,.04,.12,.08,.18,.11,.11,.08,.23,.15,.38,.24,.09,.04,.18,.08,.26,.11,.18,.08,.37,.17,.59,.22,.07,.02,.13,.03,.18,.06l.04,.02c.07,.02,.13,.03,.19,.04l.07,.02c.07,0,.15,.02,.22,.03,.09,.02,.19,.03,.31,.04,.03,0,.06,0,.1,0,.13,.01,.25,.02,.41,.05h.08c.11,0,.22,0,.32-.02,.15-.01,.3,0,.44-.04,.03,0,.07-.01,.13-.02,.11-.02,.21-.04,.27-.06,.06-.01,.1-.03,.15-.04,.03-.01,.07-.02,.11-.03,.04,0,.07-.02,.11-.04,.04-.01,.07-.03,.13-.04,.09-.02,.18-.07,.24-.1,.24-.09,.44-.2,.68-.33,.02-.01,.04-.03,.06-.05,.03-.03,.06-.05,.12-.08,.06-.04,.11-.08,.17-.13,.06-.05,.13-.1,.22-.17l.04-.04s.08-.08,.11-.11c.12-.1,.24-.22,.32-.32,.04-.04,.07-.08,.1-.12,.02-.02,.03-.04,.04-.06,.06-.05,.13-.12,.19-.22,.01-.03,.03-.05,.05-.07,.03-.04,.06-.08,.07-.11,.04-.05,.07-.12,.11-.19,.05-.06,.08-.12,.1-.17l.02-.05s.03-.04,.04-.06c.03-.04,.06-.1,.07-.14,.07-.15,.15-.32,.21-.48,.05-.16,.08-.34,.12-.53,.02-.09,.03-.18,.06-.31v-.3c.02-.38-.03-.78-.13-1.18-.04-.17-.11-.32-.19-.48-.06-.16-.15-.3-.26-.45-.02-.03-.04-.06-.07-.09-.02-.02-.04-.05-.07-.09-.11-.13-.21-.21-.34-.32-.06-.06-.13-.13-.22-.17-.29-.19-.6-.32-.95-.39-.11-.03-.21-.04-.28-.04-.1-.02-.22-.02-.34-.04-.06,0-.11,0-.17,0-.16,0-.35,.01-.5,.04-.07,.01-.13,.02-.23,.03-.04,.01-.09,.03-.13,.04-.04,.01-.07,.03-.14,.04-.03,.01-.06,.02-.1,.03-.05,.02-.1,.04-.15,.06l-.1,.05c-.11,.05-.22,.11-.35,.2-.02,.02-.04,.04-.07,.05-.04,.03-.08,.05-.08,.07l-.04,.03c-.05,.03-.11,.07-.17,.13-.03,.03-.05,.06-.07,.08-.02,.03-.04,.05-.07,.08-.09,.09-.16,.2-.23,.3l-.08,.12s-.03,.05-.05,.08c-.03,.04-.06,.08-.08,.13-.02,.04-.03,.07-.04,.11l-.04,.08c-.06,.08-.1,.18-.12,.28,0,.03-.02,.07-.03,.11-.02,.05-.03,.09-.04,.14-.02,.1-.04,.21-.03,.27-.05,.24-.03,.34-.02,.39,.05,.2,.2,.36,.42,.45,.21,.09,.54,.03,.7-.13,.06-.06,.13-.15,.14-.26,.04-.09,.04-.17,.04-.24,0-.03,0-.06,0-.09,.04-.25,.13-.41,.22-.58l.03-.06s.06-.08,.13-.15c.09-.12,.24-.25,.36-.33l.14-.07s.04-.02,.08-.03c.04,0,.07-.02,.12-.04,.11-.05,.23-.07,.38-.1l.09-.02c.12-.01,.24,0,.36,.03,.07,0,.16,.02,.15,.02,.06,.02,.11,.02,.15,.02,.2,.06,.39,.14,.49,.23l.04,.03s.09,.06,.13,.1c.09,.09,.17,.2,.25,.36,.06,.08,.09,.19,.13,.31l.08,.34c.03,.26,.06,.56,0,.84-.01,.05-.02,.1-.02,.15,0,.04,0,.08,0,.09-.02,.04-.04,.08-.05,.12-.02,.04-.03,.08-.04,.13l-.02,.05h0s-.03,.06-.04,.09c-.03,.08-.06,.16-.1,.21l-.03,.06s-.03,.07-.05,.13c0,.01-.02,.03-.07,.08l-.06,.09c-.05,.08-.1,.16-.18,.23-.05,.07-.1,.14-.17,.22-.05,.06-.11,.13-.17,.18-.07,.07-.15,.13-.23,.19-.06,.05-.12,.09-.18,.15-.11,.1-.24,.16-.39,.23l-.05,.03s-.08,.03-.11,.05c-.04,.02-.08,.04-.14,.06l-.29,.11c-.29,.09-.66,.15-1.02,.15-.09,0-.18,0-.25,0-.07-.01-.14-.02-.2-.02-.06,0-.11,0-.16-.02l-.32-.05s-.08-.02-.13-.03c-.06-.02-.12-.03-.15-.04-.06-.02-.11-.03-.17-.05-.05-.01-.1-.02-.14-.04l-.08-.04c-.07-.03-.15-.07-.19-.07-.07-.03-.13-.07-.22-.14-.21-.11-.46-.29-.66-.47-.05-.05-.1-.1-.16-.18-.03-.03-.05-.05-.08-.08-.04-.04-.08-.07-.1-.1l-.16-.22c-.13-.18-.22-.38-.32-.58l-.06-.13c-.02-.06-.03-.11-.05-.16-.01-.05-.03-.09-.04-.12-.01-.06-.03-.12-.04-.17-.01-.04-.03-.09-.03-.14-.02-.1-.03-.2-.04-.34-.03-.21-.02-.42,0-.7,0-.02,0-.04,0-.06v-.05h0v-.04s.04-.1,.04-.15c0-.03,.02-.06,.03-.1,.02-.06,.05-.13,.05-.16,.04-.09,.08-.2,.1-.3,.02-.05,.05-.09,.07-.13,.02-.03,.03-.06,.04-.07,.05-.08,.08-.15,.11-.22,.03-.06,.05-.11,.07-.14,.04-.04,.08-.09,.1-.13,.09-.14,.21-.28,.34-.42,.18-.23,.45-.46,.79-.68,.03-.02,.06-.04,.1-.06,.05-.03,.1-.05,.12-.08,.09-.05,.15-.08,.23-.12,.17-.07,.37-.14,.56-.17l.06-.02c.08-.03,.15-.05,.24-.05l.51-.05h.18c.1,0,.22,0,.37,.02,.04,0,.1,0,.13,0h.06s.04,.01,.05,.02c.04,0,.08,.01,.11,.01,.12,0,.17,.02,.24,.06,.03,.01,.06,.02,.08,.04,.07,.03,.14,.07,.22,.08,.21,.06,.43,.11,.66,.15,.31,.05,.56-.08,.7-.31,.07-.11,.11-.24,.14-.41,0-.29-.21-.55-.49-.62-.04-.02-.11-.05-.2-.05-.03,0-.05-.01-.08-.02-.02,0-.04,0-.06-.01l-.16-.05s-.07-.02-.11-.02c-.02,0-.04,0-.05-.01h-.06s-.08-.03-.11-.04c-.03-.01-.08-.02-.14-.03l-.05-.02s-.09-.04-.14-.09l-.04-.04c-.14-.09-.27-.22-.37-.35-.09-.13-.18-.29-.25-.49l-.04-.14c0-.06-.03-.12-.04-.17-.07-.33,0-.75,.09-1.01,.02-.08,.05-.17,.09-.24l.02-.04s.04-.07,.07-.12c.01-.04,.02-.05,.04-.07,.03-.04,.07-.1,.1-.15,.02-.03,.04-.07,.06-.08,.14-.16,.27-.29,.4-.38,.04-.03,.08-.05,.12-.07,.04-.02,.08-.04,.12-.07,.14-.09,.33-.15,.54-.2,.09-.03,.19-.05,.33-.05,.32-.05,.62,.01,.92,.15,.05,.02,.14,.07,.2,.14,.21,.18,.33,.33,.42,.65l.02,.08c.03,.13,.06,.27,.05,.41v.12s-.02,.05-.03,.08l-.03,.07s-.02,.07-.03,.11v.03c-.04,.05-.09,.12-.13,.18-.02,.04-.06,.08-.08,.11-.02,.02-.04,.03-.07,.05-.03,.02-.06,.05-.09,.06l-.04,.03s-.09,.06-.13,.07c-.26,.07-.59,.03-.76-.09-.09-.07-.13-.1-.17-.19-.02-.04-.04-.09-.07-.12-.1-.17-.31-.35-.58-.35-.08,0-.16,.02-.24,.05-.23,.09-.46,.34-.41,.76,.03,.1,.08,.26,.14,.33,.05,.1,.11,.17,.16,.23l.05,.07c.19,.21,.35,.34,.59,.45,.19,.09,.39,.18,.7,.2,.02,0,.04,0,.06,0,.04,0,.08,0,.09,0,.17,.03,.32,0,.47-.03,.05-.01,.11-.02,.2-.04l.35-.12c.08-.04,.14-.08,.2-.12l.08-.05c.1-.06,.2-.12,.27-.2,.06-.04,.1-.1,.15-.15,.02-.03,.04-.06,.08-.09,.05-.05,.08-.11,.11-.16,.02-.04,.04-.07,.07-.1l.03-.04c.06-.1,.12-.2,.16-.32,.04-.09,.08-.21,.11-.33Z"/><path class="c" d="M149.31,124.41c4.55-1.63,9.23-2.46,13.93-2.46,13.69,0,26.27,6.86,33.87,17.78h14.95c-9.01-18.69-28.04-30.7-48.82-30.7-6.21,0-12.37,1.08-18.3,3.21-13.46,4.83-24.23,14.57-30.46,27.49h14.89c4.73-6.83,11.54-12.3,19.93-15.32Z"/><polygon class="c" points="230.74 199.65 230.01 199.61 229.25 200.11 228.28 201.81 228.34 202.03 230.75 203.41 230.97 203.35 231.94 201.66 231.99 200.74 231.59 200.14 230.74 199.65"/><path class="c" d="M111.78,168.06c-.1-.18-.31-.32-.55-.37-.32-.09-.72,.02-1.02,.28-.06,.06-.13,.14-.18,.22-.14,.19-.22,.38-.24,.64v.1c.07,.46,.32,.72,.81,.82,.05,0,.09,0,.13,0,.04,0,.08,0,.1-.01,.25-.05,.43-.12,.56-.21,.21-.14,.38-.36,.46-.61,.04-.13,.08-.27,.08-.44l-.07-.25c-.02-.06-.04-.13-.09-.18Z"/><path class="c" d="M109.79,165.5c-.02-.07-.06-.19-.13-.29-.11-.13-.23-.18-.37-.23-.09-.02-.2-.02-.33,.02-.17,.05-.31,.16-.41,.35-.06,.11-.11,.24-.15,.35-.08,.12-.15,.25-.22,.39,0,.03-.02,.05-.04,.08l-.11,.22c-.04,.07-.08,.15-.1,.19-.03,.05-.05,.09-.07,.13,0,.02-.02,.04-.03,.06-.03,.05-.07,.11-.11,.16l-.03,.06s-.03,.07-.06,.12c-.19,.28-.41,.58-.7,.83-.11,.08-.24,.16-.38,.19-.1,.01-.14,.03-.29-.03-.21-.06-.31-.32-.35-.48-.03-.12-.03-.29-.03-.45,0-.05,.02-.11,.04-.17,.01-.05,.03-.1,.04-.18v-.08s.04-.08,.05-.13c.01-.04,.03-.08,.04-.12,.04-.11,.08-.2,.11-.29,.02-.04,.04-.08,.06-.11,.03-.04,.05-.09,.08-.15l.04-.12s.04-.1,.06-.16c.01-.02,.02-.05,.02-.05h0c.06-.06,.07-.12,.09-.19,.02-.04,.04-.08,.06-.11,.03-.04,.05-.09,.08-.16,.04-.13,.11-.27,.17-.4l.05-.1s.02-.06,.03-.09c.02-.05,.03-.1,.07-.16,.01-.03,.03-.05,.04-.08,.03-.06,.07-.13,.07-.18l.05-.12c.06-.13,.11-.26,.15-.37,.05-.09,.08-.16,.1-.22l.03-.07s.01-.02,.02-.04c.02-.02,.03-.04,.04-.06,.02-.04,.03-.08,.04-.14,0-.01,.02-.03,.03-.04,.02-.03,.03-.05,.04-.08,.02-.04,.04-.09,.05-.14,.03-.08,.06-.16,.11-.25,.02-.05,.04-.1,.06-.15,.03-.08,.05-.16,.1-.24,.04-.08,.08-.17,.11-.26,.01-.03,.04-.08,.05-.14,.02-.03,.05-.08,.06-.11,.02-.04,.03-.08,.04-.15,0-.01,.02-.03,.04-.06l.05-.09s.01-.05,.02-.07c0-.03,0-.04,.01-.05l.04-.08s.04-.06,.05-.11l.04-.13c.06-.11,.1-.23,.13-.32l.03-.06c.05-.1,.1-.18,.11-.25,.07-.11,.11-.24,.15-.35,.02-.05,.04-.09,.06-.13,.03-.06,.06-.11,.09-.2,.01-.06,.05-.13,.08-.2,.04-.09,.08-.18,.1-.27h0s.06,.01,.1,.01h.46c.07,0,.11,0,.15,0,.06,0,.11,.01,.22,0,.09,0,.18,0,.28,0,.11,0,.19,.01,.33,0h.07c.08-.02,.16-.03,.22-.08,.18-.1,.27-.26,.34-.41l.02-.2v-.06s-.03-.06-.04-.09c-.02-.06-.04-.14-.11-.23-.1-.1-.26-.21-.42-.24-.06-.02-.13-.01-.2,0-.03,0-.05,0-.08,0h-.73s.01-.03,.02-.04c.02-.05,.04-.09,.08-.15,.04-.08,.08-.17,.11-.27,.03-.07,.06-.14,.1-.22,.06-.1,.14-.23,.13-.35,.03-.17-.03-.3-.06-.37-.09-.24-.35-.34-.48-.38h-.21l-.13,.03c-.11,.05-.27,.13-.34,.27-.04,.07-.07,.15-.11,.23-.02,.06-.05,.12-.09,.2l-.16,.38c-.06,.12-.11,.25-.16,.39-.02,.03-.04,.06-.06,.1-.01,.03-.03,.05-.04,.07l-.03,.09s0,.02,0,.03h0c-.11-.01-.3,0-.46,0h-.36c-.15,0-.3,0-.45,.09-.11,.07-.29,.25-.32,.45-.07,.42,.2,.68,.49,.76,.09,.03,.16,.03,.21,.03h.31s0,.01-.01,.02l-.04,.13c-.02,.06-.04,.13-.05,.15-.05,.09-.1,.18-.13,.3-.03,.04-.04,.07-.05,.1l.17,.06h-.21c-.03,.08-.06,.15-.09,.22-.03,.08-.07,.15-.1,.23-.03,.08-.06,.15-.1,.22-.04,.07-.07,.14-.1,.22,0,.02-.01,.04-.02,.07,0,.03-.01,.04-.02,.05l-.02,.05s-.01,.02-.03,.04c-.01,.02-.03,.04-.05,.09l-.05,.16s-.02,.06-.07,.12c-.02,.03-.02,.07-.02,.1l-.12,.25s-.04,.07-.04,.08c-.04,.07-.06,.13-.08,.19-.01,.04-.03,.09-.05,.14l-.05,.11c-.03,.06-.06,.13-.08,.19-.02,.04-.04,.08-.06,.12h-.01c-.31,.01-.51,.26-.59,.37-.12,.16-.24,.3-.4,.46-.08,.1-.16,.18-.24,.26-.05,.05-.11,.11-.15,.16-.03,.03-.07,.07-.09,.09-.08,.06-.15,.13-.21,.2-.04,.04-.08,.09-.14,.13-.06,.07-.13,.13-.22,.18l-.08,.06s-.09,.08-.14,.11l-.04,.03s-.06,.05-.06,.05l-.12,.12c-.07,.04-.13,.09-.18,.14-.03,.02-.04,.04-.04,.04-.12,.06-.22,.13-.31,.21-.01-.07-.03-.15-.05-.22,0-.07-.03-.13-.04-.18-.02-.07-.04-.14-.06-.21-.04-.14-.08-.27-.11-.45l-.1-.26c0-.08-.03-.16-.08-.23,0-.03-.01-.06-.03-.1l-.04-.1c-.03-.07-.05-.13-.07-.18-.02-.09-.05-.2-.09-.33-.02-.08-.05-.16-.08-.25-.04-.11-.08-.23-.11-.37-.03-.1-.06-.2-.09-.32-.03-.1-.05-.18-.07-.32l-.04-.14c-.03-.12-.06-.23-.07-.35-.02-.17-.02-.34,0-.51v-.09c.02-.08,.03-.15,.06-.21,.05-.11,.11-.19,.18-.22l.06-.04s.03-.02,.06-.04l.05-.03c.12-.09,.24-.3,.24-.55-.03-.3-.2-.51-.53-.62h-.28s-.07,.03-.07,.03c-.11,.03-.21,.1-.27,.15-.24,.15-.43,.41-.57,.6l-.03,.04c-.04,.05-.08,.12-.1,.15-.05,.07-.08,.13-.12,.2l-.03,.05s-.04,.08-.06,.13c-.02,.04-.03,.08-.03,.08-.05,.07-.08,.15-.1,.21,0,.02-.02,.04-.03,.06v.05s-.03,.06-.05,.09c-.02,.05-.04,.1-.04,.13l-.04,.09c-.03,.05-.05,.11-.07,.15-.04,.08-.07,.17-.11,.25-.03,.08-.06,.16-.1,.23l-.04,.1s-.04,.09-.07,.15c-.02,.04-.03,.08-.05,.12-.02,.04-.04,.09-.05,.12l-.07,.15s-.03,.06-.04,.09c-.02,.04-.03,.08-.04,.13l-.03,.08c-.05,.07-.08,.15-.1,.21,0,.02-.01,.04-.01,.04h0c-.05,.06-.07,.13-.09,.19,0,.03-.02,.05-.03,.07-.05,.08-.07,.14-.1,.21l-.02,.05s-.03,.06-.05,.09c-.03,.04-.06,.09-.08,.13-.03,.05-.04,.11-.06,.17-.01,.03-.02,.07-.03,.08-.02,.03-.03,.06-.05,.09-.03,.05-.06,.09-.08,.14-.04,.08-.09,.18-.13,.27-.03,.07-.06,.13-.08,.18-.1,.15-.19,.32-.28,.5-.03,.09-.08,.17-.13,.26-.03,.06-.07,.12-.1,.17-.03,.06-.06,.13-.11,.2-.06,.08-.11,.18-.16,.27-.03,.06-.06,.12-.09,.16-.09,.11-.13,.24-.15,.32-.03,.16,.04,.32,.1,.44,.06,.11,.16,.19,.28,.23h-.06c-.07,.01-.13,.02-.2,.04-.13,.05-.24,.16-.29,.23-.04,.06-.06,.12-.08,.18l-.04,.11v.26l.04,.05s.02,.06,.04,.1c.03,.09,.09,.14,.13,.18,.03,.04,.06,.08,.08,.12,.04,.05,.08,.11,.12,.16,.08,.1,.17,.18,.27,.26,.08,.08,.18,.18,.27,.23,.1,.08,.2,.14,.31,.19,.06,.04,.13,.07,.2,.1,.04,.02,.09,.04,.16,.08,.17,.08,.34,.11,.52,.13,.1,.02,.2,.03,.3,.06h.21c.07,0,.15,0,.22,0,.16,0,.32,0,.47-.05,.44-.1,.78-.25,1.06-.44,.15-.09,.31-.19,.46-.32,.02-.02,.04-.04,.06-.06,.04-.04,.07-.08,.12-.12,.06-.06,.12-.12,.17-.18,.07-.07,.14-.16,.16-.22,.06-.08,.12-.16,.17-.26,.07-.16,.15-.34,.2-.52,.06-.16,.09-.32,.11-.52,0-.03,0-.05,0-.08v-.02s.04-.03,.06-.04c.04-.02,.07-.04,.1-.06,.06-.03,.12-.06,.17-.1,.03-.02,.06-.04,.09-.05,.09-.05,.18-.13,.27-.19,.21-.15,.36-.26,.49-.37,.05-.04,.09-.07,.14-.1,.04-.03,.08-.05,.13-.1,.05-.05,.07-.06,.07-.06l.04-.03s.05-.04,.07-.05c-.01,.03-.02,.05-.05,.1-.02,.03-.04,.07-.06,.12l-.08,.18c-.05,.12-.11,.26-.12,.4-.01,.06-.03,.12-.05,.18-.03,.11-.07,.23-.08,.38,0,.04,0,.08,0,.12,0,.05,0,.1,0,.12-.02,.11-.02,.23-.02,.33v.07c.01,.07,.02,.14,.03,.21,.01,.13,.03,.26,.09,.43,.03,.04,.04,.07,.05,.1,.07,.21,.19,.41,.37,.62,.07,.07,.15,.15,.25,.22,.04,.04,.09,.09,.12,.1,.07,.05,.13,.07,.2,.09,.1,.06,.21,.09,.32,.13,.1,.03,.2,.04,.3,.05h.31s.05-.01,.07-.01c.06,0,.12-.01,.18-.04,.1-.02,.18-.05,.28-.08l.06-.02s.04-.02,.06-.04c.02-.01,.03-.02,.05-.03,.06-.02,.12-.05,.17-.1,.04-.02,.07-.05,.1-.08,.05-.02,.1-.04,.17-.07,.06-.05,.11-.1,.17-.16,.05-.05,.09-.09,.16-.15,.08-.08,.14-.16,.19-.23,.07-.07,.15-.15,.2-.23,.03-.04,.05-.08,.07-.13l.1-.11s.07-.1,.1-.16c.02-.03,.04-.07,.06-.1l.03-.04s.04-.06,.06-.11c.01-.04,.02-.06,.05-.11,.13-.2,.24-.43,.34-.64,.07-.14,.14-.28,.21-.41,.03-.05,.05-.1,.08-.15,.02-.04,.04-.08,.08-.15,.01-.03,.03-.06,.04-.09,.06-.12,.15-.29,.09-.51Zm-8.32,2.21l-.16,.12s-.07,.06-.11,.08c-.01,0-.04,.02-.06,.02l-.08,.03c-.14,.08-.3,.13-.53,.16-.29,.05-.5,.03-.72-.05,.03,0,.06-.01,.1-.03,.04-.01,.04-.02,.06-.02h.07s.06,0,.11-.02c.06,0,.12-.03,.18-.06,.03,0,.06-.01,.08-.01,.04,0,.08-.01,.12-.02,.27-.06,.51-.14,.71-.22,.04-.01,.07-.03,.11-.05,.02,0,.04-.02,.06-.03,.02,0,.04,0,.06-.01,.04,0,.08-.01,.14-.03,.04-.02,.07-.04,.09-.07h.04c-.07,.06-.16,.13-.25,.2Zm.53-1.73c-.11,.04-.21,.09-.3,.14-.06,.03-.13,.07-.16,.08-.12,.02-.23,.07-.29,.1-.09,.04-.18,.07-.27,.1-.09,.03-.19,.07-.26,.1-.05,.01-.11,.03-.18,.06l-.08,.03c-.05,0-.11,.03-.16,.04-.04,.01-.08,.02-.12,.03-.05,0-.1,.03-.16,.04-.05,.01-.09,.03-.13,.03-.04,0-.09,.02-.13,.03-.06,.01-.11,.03-.19,.03-.04,0-.09,.02-.13,.03-.05,.01-.1,.03-.15,.04-.09,.01-.18,.03-.27,.04-.06,.01-.13,.02-.23,.04h0c.1-.05,.2-.13,.27-.23,.03-.05,.06-.1,.08-.15,.02-.04,.04-.08,.06-.12,.05-.09,.11-.18,.18-.3,.03-.08,.08-.16,.13-.24l.02-.04h0c.1-.18,.21-.36,.27-.53l.18-.3s.04-.09,.06-.14c.03-.05,.05-.11,.07-.17,.03-.09,.08-.17,.14-.27,.09-.18,.18-.39,.27-.57,.04-.07,.08-.14,.11-.22l.12-.26c.07-.14,.13-.29,.19-.44l.08-.2s.04-.06,.05-.11l.03-.1c.03,.1,.05,.18,.08,.27,.02,.07,.04,.14,.06,.2l.05,.27,.02,.05c.04,.07,.06,.15,.09,.23,.03,.08,.05,.15,.08,.21l.04,.13c.06,.2,.13,.4,.2,.6,.03,.08,.05,.16,.07,.24,.02,.08,.04,.17,.08,.26,.04,.12,.07,.23,.09,.37,.03,.12,.07,.24,.11,.37,0,.05,.01,.1,.02,.14,0,.01,0,.02,0,.04-.03,.01-.08,.03-.12,.04Z"/><polygon class="c" points="136.5 239.02 138.35 239.65 138.56 239.55 138.97 235.03 139.05 234.54 138.81 234.98 136.4 238.81 136.5 239.02"/><polygon class="c" points="122.8 95.67 124.49 94.69 124.99 93.93 124.95 93.2 124.45 92.35 123.84 91.95 122.93 92.01 121.24 92.99 121.18 93.21 122.57 95.61 122.8 95.67"/><polygon class="c" points="163.5 238.87 161.54 238.83 161.37 238.99 161.32 241.76 161.48 241.93 163.43 241.97 164.26 241.58 164.6 240.93 164.62 239.95 164.3 239.29 163.5 238.87"/><polygon class="c" points="215.58 218.34 214.7 218.59 213.38 219.81 213.37 220.04 218.07 225.15 218.41 225.16 219.68 224 220 223.15 219.75 222.27 216.43 218.66 215.58 218.34"/><polygon class="c" points="151.65 237.97 149.72 237.64 149.53 237.77 149.07 240.51 149.2 240.7 151.14 241.03 152.01 240.76 152.44 240.17 152.6 239.21 152.39 238.51 151.65 237.97"/><path class="c" d="M242.9,155.78c-.13-.16-.35-.38-.69-.45-.1-.04-.22-.09-.31-.07-.08-.01-.17-.03-.25-.03-.04,0-.08,0-.1,0-.11,0-.23,0-.32,.02-.05,0-.11,0-.17,.02-.11,.02-.2,0-.33,.03-.12,.03-.25,.04-.42,.06l-.32,.03c-.07,.01-.15,.01-.24,.01-.2,0-.41,0-.54-.09l-.23-.11-.2-.02h-.06c-.17,.06-.28,.14-.35,.24-.06,.1-.1,.21-.11,.34,0,.05-.02,.09-.04,.13-.02,.05-.03,.1-.03,.13l-.17,.57c-.06,.21-.13,.42-.21,.62l-.36,.93c-.06,.1-.1,.2-.15,.3-.03,.06-.06,.13-.09,.19l-.12,.24c-.03,.05-.05,.1-.08,.14l-.05,.09c-.12,.24-.24,.46-.38,.69-.03,.06-.07,.11-.12,.15-.08,.07-.18,.17-.2,.35-.02,.17,.03,.29,.08,.4,.06,.13,.14,.2,.25,.26,.09,.06,.28,.12,.46,.03l.12-.06,.11-.11s.08-.04,.2-.08c.04-.01,.08-.03,.11-.04,.05-.02,.09-.04,.13-.04l.39-.09c.06-.01,.12-.02,.21-.03,.1-.02,.21-.03,.31-.03h.17s.04,0,.06,0c.04,0,.07,0,.09,0,.19,.02,.39,.06,.55,.13,.26,.1,.48,.22,.63,.36l.35,.35s.07,.1,.1,.15l.03,.05c.07,.09,.12,.2,.18,.31,.02,.04,.03,.09,.04,.14,.03,.09,.06,.18,.09,.26,.03,.08,.04,.17,.06,.28,.02,.08,.02,.19,.02,.28v.17s0,.08,0,.12c0,.02,0,.04,0,.11,0,.03,0,.07-.01,.1-.01,.05,0,.1,0,.17-.02,.05-.03,.11-.03,.17-.01,.12-.03,.24-.06,.36l-.02,.08c-.03,.18-.09,.36-.15,.53l-.14,.38-.05,.1c-.04,.06-.06,.12-.07,.13l-.06,.1c-.09,.15-.19,.28-.31,.43-.01,.02-.03,.04-.06,.07-.03,.03-.08,.08-.1,.12-.03,.03-.06,.07-.1,.1l-.06,.06c-.12,.1-.23,.21-.37,.3-.04,.02-.07,.05-.11,.07-.03,.02-.06,.05-.09,.06l-.06,.03s-.06,.03-.08,.05c-.03,.02-.06,.04-.08,.05l-.26,.11c-.11,.05-.22,.08-.34,.12-.06,.02-.13,.04-.17,.05-.19,.04-.39,.07-.58,.1h-.2c-.09,.02-.18,.02-.28,.02-.02,0-.05,0-.08,0-.04,0-.08-.01-.08,0-.21-.03-.41-.06-.58-.1l-.49-.18-.23-.14c-.07-.04-.13-.08-.18-.13l-.19-.18c-.06-.05-.11-.1-.17-.17-.05-.05-.09-.11-.12-.18l-.13-.21c-.06-.14-.12-.29-.15-.51-.03-.15-.04-.36-.03-.61v-.11c.02-.07,.03-.13,.04-.19l.07-.26c.06-.18,.14-.34,.23-.5,.01-.03,.04-.07,.08-.11l.33-.39c.05-.03,.1-.07,.15-.11,.02-.02,.04-.03,.06-.05,.15-.1,.3-.18,.45-.24h.02l.02-.02s.05-.01,.1-.03c.08-.04,.2-.06,.4-.06,.18-.01,.39,.02,.54,.06l.15,.07c.12,.04,.2,.07,.27,.13l.16,.17s.03,.05,.04,.08c.02,.05,.05,.1,.08,.14,.07,.11,.16,.19,.31,.24,.18,.04,.33,0,.42-.04,.23-.12,.41-.38,.3-.7-.03-.08-.08-.17-.13-.25-.09-.17-.2-.28-.31-.39l-.05-.05c-.07-.08-.16-.13-.21-.15-.06-.06-.13-.1-.19-.13l-.06-.03c-.23-.14-.53-.23-.91-.28-.18-.03-.39-.02-.55,0-.05,0-.1,0-.15,0h-.06c-.11,.02-.21,.04-.28,.06-.14,.02-.25,.06-.3,.1-.11,.04-.2,.09-.25,.12l-.14,.05-.13,.1s-.09,.05-.13,.08c-.03,.02-.07,.03-.1,.05l-.04,.03s-.04,.04-.08,.06c-.16,.13-.34,.28-.48,.48l-.18,.22-.15,.25-.08,.11s-.02,.05-.02,.05l-.13,.29c-.05,.07-.07,.15-.09,.22l-.12,.4c-.03,.2-.06,.42-.08,.67v.17c.01,.25,.03,.51,.1,.75,.02,.06,.04,.12,.06,.17,.05,.15,.1,.31,.2,.48,.02,.03,.04,.06,.06,.11,.02,.05,.05,.09,.08,.14l.17,.26,.19,.21c.08,.09,.16,.16,.24,.22l.22,.19c.05,.04,.11,.07,.17,.1,.03,.02,.07,.03,.1,.05,.11,.09,.24,.15,.35,.2l.06,.03s.08,.03,.11,.04c.02,0,.03,0,.08,.03,.03,.01,.07,.02,.09,.04l.23,.08c.06,0,.12,.03,.18,.05,.04,.01,.08,.03,.13,.04,.16,.03,.32,.05,.5,.07l.25,.03h.42c.15-.04,.31-.05,.49-.07l.44-.09c.16-.03,.31-.08,.43-.12,.05-.01,.11-.03,.17-.06l.48-.22s.11-.04,.16-.09l.17-.1,.06-.05s.05-.04,.09-.06l.49-.37s.03-.02,.04-.04c.04-.03,.09-.07,.1-.1l.25-.28c.08-.08,.13-.16,.19-.24l.04-.07c.11-.13,.19-.24,.26-.38,.03-.06,.06-.12,.09-.18,.03-.05,.06-.11,.09-.16,.06-.13,.13-.26,.18-.42,0-.02,.01-.04,.02-.06,.02-.04,.03-.09,.03-.1,.02-.04,.03-.09,.05-.14,0-.03,.02-.06,.04-.12l.1-.42v-.05c0-.07,.02-.13,.03-.19v-.05c.02-.09,.03-.16,.03-.21l.03-.28v-.21c.03-.17,.04-.36,.02-.56-.01-.31-.08-.62-.2-.99-.01-.06-.03-.13-.06-.2-.03-.05-.05-.1-.07-.18-.03-.09-.08-.16-.12-.24-.02-.04-.05-.08-.07-.12-.05-.1-.12-.18-.18-.26l-.05-.06s-.06-.09-.08-.13c-.01-.01-.02-.03-.06-.07-.02-.02-.04-.04-.06-.06-.02-.02-.05-.04-.08-.08l-.15-.15-.18-.14s-.06-.05-.1-.08l-.11-.08c-.14-.09-.29-.19-.46-.25-.11-.05-.27-.13-.45-.17l-.46-.11c-.26-.03-.58-.04-.89,0l-.23,.03s0-.02,0-.02c.03-.04,.05-.08,.07-.12,.01-.02,.02-.04,.05-.09,.07-.13,.13-.26,.18-.4,.03-.08,.06-.15,.1-.22,.08-.17,.15-.35,.21-.52,.04-.11,.08-.23,.13-.34,.03-.08,.06-.17,.09-.25,.02-.06,.04-.13,.06-.18,.02-.04,.04-.1,.06-.15,0-.03,.02-.05,.03-.08,.04-.11,.07-.21,.09-.32,.01-.05,.02-.1,.03-.13,.01-.03,.02-.06,.03-.1,.02,0,.03,0,.05,0,.13,.03,.29,.03,.43,.04,.14,0,.27,0,.43,0,.14-.02,.29-.03,.37-.06,.08,0,.16,0,.24-.02l.35-.06c.08,0,.16,0,.22-.02h.39l.15,.05c.08,.02,.13,.06,.15,.08l.06,.13c.07,.12,.18,.28,.41,.3,.04,0,.08,.01,.12,.01,.22,0,.43-.14,.51-.34,.03-.06,.05-.15,.05-.22v-.14c-.09-.22-.18-.38-.29-.48Z"/><polygon class="c" points="111.71 218.51 111.48 218.52 109.62 220.58 109.63 220.82 111.09 222.13 111.97 222.37 112.65 222.11 113.3 221.38 113.5 220.67 113.16 219.82 111.71 218.51"/><path class="c" d="M233.69,158.35l.04-.09c.05-.11,.09-.2,.16-.25,.12-.1,.23-.23,.34-.38,.04-.05,.08-.11,.12-.17,.02-.03,.04-.07,.06-.09,.22-.31,.35-.66,.4-1.07v-.21c-.03-.2-.08-.42-.21-.59-.09-.11-.21-.15-.35-.18h-.19c-.32,.04-.45,.35-.51,.51-.05,.14-.11,.28-.17,.41l-.06,.13c-.02,.06-.05,.11-.08,.17l-.05,.09s-.03,.09-.05,.13c-.02,.04-.03,.08-.05,.12-.02,.04-.03,.07-.05,.12l-.03,.07s-.03,.06-.05,.1l-.02,.05c-.02,.07-.05,.14-.08,.18-.03,.02-.07,.04-.08,.06l-.06,.04c-.1,.07-.18,.13-.32,.2-.03,.02-.07,.04-.09,.05l-.05,.03s-.03,.02-.05,.03c-.02,.01-.04,.02-.06,.03-.04,.02-.08,.03-.13,.05-.05,.02-.1,.04-.13,.05-.04,0-.09,.02-.14,.03-.06,.02-.12,.03-.21,.05-.12,.03-.23,.04-.32,.06-.04,0-.08,0-.12,0-.07,.01-.14,0-.22-.02h-.05c-.15,0-.31,0-.43,.11-.14,.08-.24,.27-.24,.42-.02,.34,.23,.6,.57,.62,.14,.02,.31,.02,.44,0h.1s.05,0,.08,0h.05s.1-.03,.16-.03c.13-.02,.26-.05,.39-.08,.04-.02,.1-.03,.15-.04,.02,0,.03,0,.04-.01l-.02,.04s-.02,.05-.05,.11c-.09,.19-.16,.36-.24,.54-.01,.03-.02,.06-.04,.12-.03,.06-.06,.13-.09,.2l-.06,.14s-.03,.07-.05,.1c-.02,.04-.04,.08-.06,.14-.03,.11-.09,.22-.15,.33l-.24,.56c-.03,.07-.05,.13-.08,.2-.01,.02-.02,.04-.03,.07-.03,.05-.06,.11-.06,.15-.03,.06-.06,.13-.09,.19-.04,.09-.08,.18-.11,.25-.03,.07-.06,.15-.1,.22-.03,.07-.07,.15-.1,.23-.02,.05-.04,.1-.06,.15-.05,.11-.09,.22-.12,.31-.06,.16-.13,.32-.17,.47-.06,.16-.11,.34-.16,.51-.03,.1-.05,.2-.08,.32-.01,.07-.03,.14-.05,.2-.03,.11-.04,.23-.05,.35,0,.07-.01,.15-.03,.22-.02,.1-.02,.22-.02,.32,0,.12,0,.25,.01,.31,0,.06,.02,.12,.03,.17,0,.05,0,.1,.02,.14h0s-.08,.02-.15,.03c-.03,0-.06,0-.08,0h-.06c-.07,0-.13,0-.2,0-.12,0-.22,0-.38,0h-.22s-.03,.02-.02,.02c-.1-.02-.19-.04-.37,0-.25,.07-.35,.27-.41,.43v.25c.04,.12,.11,.3,.26,.36,.12,.09,.25,.1,.38,.1h.14s.09,0,.13,0c.03,0,.07,0,.06,0,.09,.02,.18,.02,.27,.02,.11,0,.23,0,.34,0s.25,0,.35,0h.06c.07,0,.16,0,.17,0,.03,0,.07,0,.1,0,.04,0,.09,0,.16,0,.05,0,.07-.01,.2,0,.04,0,.09,0,.13,0,.03,0,.07,0,.06-.01l.24,.06s.11,.04,.16,.03c.08,.02,.15,0,.18,.02h.13c.27-.02,.53-.05,.78-.12,.12-.04,.27-.1,.37-.28,.04-.07,.14-.28,.04-.48-.04-.13-.17-.3-.31-.34-.09-.04-.17-.04-.25-.04h-.08s-.06,0-.12,0c-.07,0-.14,0-.21,0-.14,0-.27,0-.44,0-.04,0-.08,0-.12,.01-.02,0-.03,0-.06,0-.03-.03-.07-.08-.09-.12-.01-.04-.03-.1-.04-.15-.01-.05-.03-.1-.03-.14v-.22c0-.23,.04-.45,.06-.57,.01-.11,.04-.23,.07-.35,.01-.06,.03-.12,.05-.2,.02-.1,.05-.19,.08-.28,.02-.07,.05-.14,.07-.23,0-.04,.03-.09,.05-.15,.02-.05,.04-.1,.05-.13,.05-.11,.1-.23,.13-.34,.01-.06,.04-.11,.07-.16,.02-.04,.04-.08,.06-.12,.05-.1,.1-.21,.13-.29,.03-.05,.04-.09,.06-.15,.02-.03,.04-.07,.05-.1,0-.02,.02-.04,.02-.04l.03-.05s.02-.04,.03-.07c.01-.03,.02-.06,.03-.09,0-.02,.02-.04,.03-.06l.06-.15s.02-.06,.02-.07l.03-.06s.04-.08,.04-.09c.04-.08,.07-.17,.1-.25,.03-.08,.06-.15,.1-.24,0-.02,.01-.03,.02-.04,.02-.03,.03-.06,.04-.08,.02-.04,.03-.07,.05-.1,.04-.07,.07-.14,.08-.19,.03-.07,.05-.12,.07-.18,.01-.03,.03-.05,.04-.08l.04-.1s.03-.09,.05-.13c.02-.05,.04-.1,.06-.15,.01-.02,.03-.05,.04-.08,0-.02,.01-.04,.03-.05l.02-.05s.01-.04,.03-.06c.01-.03,.03-.06,.04-.1,0-.02,.01-.03,.02-.06,.01-.02,.02-.04,.03-.06,.02-.03,.03-.06,.04-.09,0-.02,.01-.03,.04-.08,.04-.1,.08-.2,.12-.29,.05-.1,.1-.21,.14-.34,.04-.1,.07-.18,.12-.28,.03-.06,.05-.12,.08-.18,.02-.04,.03-.09,.05-.13Z"/><path class="c" d="M163.25,65.83c-11.19,0-22.26,1.94-32.89,5.75-24.44,8.77-44.03,26.58-55.14,50.13-11.11,23.56-12.4,49.99-3.63,74.44,13.85,38.59,50.69,64.52,91.67,64.52,11.19,0,22.26-1.94,32.9-5.75,24.48-8.79,44.08-26.58,55.19-50.11,11.1-23.53,12.37-49.97,3.59-74.46-13.85-38.59-50.69-64.52-91.67-64.52Zm70.69,52.17l1.54,2.69-1.3,.36-2.41,1.38-.06,.22,1.38,2.41,.22,.06,2.41-1.38,.97-.93,1.54,2.69-1.3,.36-7.65,4.37-.97,.93-1.54-2.69,1.3-.36,3.26-1.86,.06-.22-1.38-2.41-.22-.06-3.26,1.86-.97,.93-1.54-2.69,1.3-.36,7.65-4.37,.97-.93Zm-6.43-8.56l2.59,3.15-1.51,2.4-.62-1.66-1.11-1.35-.83-.37-.89,.2-3.66,3-.37,.83,.2,.89,1.19,1.45,1.53,.96-2.65,1.01-2.69-3.28,.32-3.21,5.3-4.34,3.21,.32Zm-8.11-8.44l2.27,2.12-1.13,.73-6.02,6.44-.65,1.18-2.26-2.12,1.13-.73,6.02-6.44,.65-1.18Zm-14.21,1.43l4.47-6.24-.04-.23-1.2-.86-1.73-.53,2.3-1.67,5.97,4.28-.84,2.71-1.06-1.46-1.2-.86-.23,.04-4.47,6.24-.46,1.48-2.79-2,1.25-.91Zm-11.77-8.08l1.23,1.26,2.01,1.01h.73l.58-.44,.48-.95-.25-.77-1.93-1.61-.69-2.08,1.1-2.19,2.85-.94,3.79,1.9-.37,2.55-1.09-1.1-1.89-.95h-.73l-.59,.43-.29,.58,.25,.77,1.93,1.61,.69,2.08-1.36,2.7-2.85,.94-4.01-2.02,.41-2.81Zm-18.85-4.09l4.32-8.34v-1.09l4.3,.93-.46,.99,.47,9.38,.36,1.41-3.27-.71,.44-1.24-.04-1.35-.13-.19-3.03-.66-.19,.12-.6,1.21-.12,1.31-2.95-.64,.92-1.14Zm-9.9-10.91l7.33,.44,.74,2.74-1.68-.67-1.47-.09-.17,.15-.46,7.66,.4,1.49-3.42-.2,.58-1.44,.46-7.66-.15-.17-1.47-.09-1.74,.47,1.06-2.63Zm-12.84,.75l7.32-.67,1.14,2.6-1.76-.41-1.46,.14-.15,.18,.7,7.65,.62,1.42-3.42,.31,.35-1.51-.7-7.65-.18-.15-1.46,.14-1.65,.73,.65-2.77Zm-5.83,1.03l1.39,2.18-1.55-.12-2.85,.72-.12,.2,.48,1.9,.2,.12,1.35-.34,1.09-.7,.68,2.69-1.29-.1-1.35,.34-.12,.2,.66,2.61,.3,.18,2.77-.7,1.52-.97-.21,2.83-6.49,1.64v-1.35l-2.16-8.55-.64-1.19,6.33-1.6Zm-12.34,3.65l.18,1.33,3.28,8.19,.79,1.09-2.88,1.15-.18-1.34-3.28-8.19-.79-1.09,2.88-1.15Zm-10.15,4.64l2.68,.71,1.39,2.4-.65,2.45,2.74,2.28,1.55,.89-2.68,1.55-3.33-2.97-.36,.02-1.06,.61-.06,.22,1.47,2.54,.94,.97-2.68,1.55-.37-1.29-4.42-7.62-.93-.96,5.79-3.35Zm-15.55,10.86l5.88,2.49,.78,.41-.59-.57-2.86-3.35-1.1-.78,2.11-1.8,.6,1.2,6.57,7.7-1.61,1.38-7.23-3.06-.78-.41,.59,.57,3.71,4.34,1.1,.78-2.11,1.8-.6-1.21-5.72-6.7-1.16-.73,2.42-2.07Zm-6.9,6.73l2.4,.94-1.32,.81-1.88,2.25,.02,.23,1.5,1.26,.23-.02,.89-1.06,.47-1.2,2.13,1.78-1.1,.68-.89,1.06,.02,.23,2.07,1.73,.34-.03,1.83-2.19,.66-1.68,1.49,2.41-4.29,5.13-.79-1.09-6.76-5.65-1.21-.59,4.18-5.01Zm-10.87,15.16l.96,.94,2.4,1.4,.22-.06,1.4-2.4-.06-.22-2.4-1.4-1.29-.38,1.56-2.68,.96,.94,7.61,4.44,1.29,.38-1.56,2.68-.96-.94-3.24-1.89-.22,.06-1.4,2.4,.06,.22,3.24,1.89,1.29,.38-1.56,2.68-.96-.94-7.61-4.44-1.29-.38,1.56-2.68Zm2.06,85.63l-.98,.93-1.53-2.7,1.3-.36,3.27-1.85,.06-.22-1.37-2.42-.22-.06-3.27,1.85-.98,.93-1.53-2.7,1.3-.36,7.68-4.34,.98-.93,1.53,2.7-1.3,.36-2.42,1.37-.06,.22,1.37,2.42,.22,.06,2.42-1.37,.98-.93,1.53,2.7-1.3,.36-7.68,4.34Zm7.8,12.55l-2.09-2.61,1.12-.69,.82-1.07,.03-.23-1.94-2.42-.23-.03-1.23,.56-.92,.94-1.89-2.36,1.43-.31,8.6-3.75,.67-.85,2.76,3.44-.98,.47-5.55,7.58-.61,1.33Zm10.19,7.49l-.37,1.75-2.3-2.08,1.81-4.08-.13-.34-.91-.82h-.23l-1.97,2.19-.63,1.19-2.3-2.08,1.12-.75,5.9-6.55,.63-1.19,4.97,4.48,.14,2.77-1.86,2.06-2.54,.13-1.33,3.3Zm12.3,7.61l-3.15,.7-5.37-3.43,.98-.93,4.74-7.43,.43-1.28,5.37,3.43,.7,3.15-3.69,5.78Zm18.71-.76l-.58,9.36,.2,1.45-3.17-1.07,.57-1.18,.11-1.34-.1-.21-2.94-.99-.21,.1-.73,1.13-.26,1.29-2.86-.97,1.04-1.03,5.22-7.79,.11-1.08,4.17,1.41-.57,.93Zm13.63,6.82l-2.64,1.87-3.38-.57-.19,.13-.41,2.42,.13,1.68-3.14-.53,.54-1.23,1.48-8.7-.1-1.34,6.6,1.12,1.61,2.26-.49,2.9Zm12.32,.38l-2.33,2.24-3.43-.07-.17,.16-.05,2.45,.38,1.64-3.18-.06,.35-1.3,.18-8.81-.3-1.31,6.69,.13,1.92,2-.06,2.94Zm10.93,5.21l-6.31,.85,.15-1.34-1.17-8.74-.5-1.25,3.16-.43-.19,1.67,.99,7.37,.28,.21,2.51-.34,1.62-.79-.53,2.79Zm11.17-2.77l-6.46,1.79-.03-1.35-2.35-8.51-.66-1.17,6.3-1.74,1.44,2.14-1.55-.08-2.84,.78-.11,.2,.52,1.89,.2,.11,1.34-.37,1.07-.72,.74,2.68-1.29-.07-1.34,.37-.11,.2,.72,2.6,.3,.17,2.76-.76,1.5-1.01-.15,2.84Zm13.07-5.53l-3.09-.94-3.22-6.06,.95-3.09,3.61-1.92,2.06,1.96-1.76,.28-1.54,.82-.53,.74,.02,.91,2.23,4.18,.74,.53,.91-.02,1.66-.88,1.25-1.31,.47,2.8-3.75,1.99Zm8.21-4.86l-.48-1.26-5.04-7.23-1.01-.88,2.54-1.77,.48,1.26,5.04,7.23,1.01,.88-2.54,1.77Zm11.69-9.42l-4.69,4.31-.64-1.18-5.97-6.49-1.13-.74,4.69-4.31,3.23,.14,4.64,5.05-.14,3.23Zm5.54-5.81l-.82-1.07-6.89-5.5-1.23-.56,4.07-5.11,2.42,.89-1.3,.84-1.83,2.3,.03,.23,1.53,1.22,.23-.03,.86-1.09,.45-1.21,2.17,1.73-1.08,.7-.86,1.09,.03,.23,2.11,1.68,.34-.04,1.78-2.23,.62-1.7,1.55,2.38-4.17,5.24Zm10.16-14.74l-4.37-.91-.3,.2-.61,1.06,.06,.22,2.55,1.46,1.29,.36-1.54,2.69-.97-.93-7.64-4.38-1.3-.37,3.33-5.8,2.67-.72,2.4,1.38,.66,2.45,3.51,.6h1.79l-1.54,2.68Zm19.56-41.13c0,4.51-3.65,8.16-8.16,8.16-.08,0-.15-.02-.23-.02-1.06,5.54-5.92,9.73-11.77,9.73h-36.72s-.04,.1-.06,.15c-.58,1.23-1.21,2.41-1.9,3.56h38.68c6.35,0,12.04-3.79,14.49-9.65l1.41,.59c-2.69,6.43-8.93,10.58-15.9,10.58h-23.25c-.02,.06-.05,.11-.07,.17-.12,.3-.24,.61-.38,.9-6.35,13.46-17.56,23.64-31.57,28.67-6.1,2.19-12.44,3.3-18.82,3.3-21.98,0-41.87-12.96-50.84-33.04h-23.25c-6.96,0-13.2-4.15-15.89-10.58l1.41-.59c2.45,5.86,8.14,9.64,14.49,9.64h38.72c-.72-1.2-1.39-2.43-1.99-3.71h-36.73c-5.85,0-10.71-4.19-11.77-9.73-.08,0-.15,.02-.23,.02-4.51,0-8.16-3.65-8.16-8.16s3.65-8.16,8.16-8.16c.08,0,.15,.02,.23,.02,1.06-5.54,5.92-9.73,11.77-9.73h37.13c.63-1.27,1.32-2.51,2.08-3.72h-39.22c-6.35,0-12.03,3.79-14.49,9.65l-1.41-.59c2.69-6.43,8.93-10.59,15.9-10.59h23.66c6.34-13.61,17.55-23.87,31.62-28.92,6.1-2.19,12.44-3.3,18.82-3.3,21.6,0,41.36,12.64,50.49,32.23h23.61c6.97,0,13.21,4.16,15.9,10.59l-1.41,.59c-2.45-5.86-8.14-9.65-14.49-9.65h-39.21c.75,1.19,1.44,2.44,2.07,3.72h37.14c5.85,0,10.71,4.19,11.77,9.73,.08,0,.15-.02,.23-.02,4.51,0,8.16,3.65,8.16,8.16Z"/><polygon class="c" points="99.87 212.31 99.85 212.54 101.07 214.07 101.3 214.1 104.08 210.52 104.41 210.15 103.98 210.39 99.87 212.31"/><path class="c" d="M185.37,146.69c-.09-.1-.14-.29-.11-.42,.22-.98-.2-1.73-.89-2.33-.49-.43-.8-.88-.96-1.53-.34-1.36-1.21-1.94-2.59-1.85-.38,.02-.76,.1-1.22,.16,.22-.32,.42-.56,.53-.82,.09-.21,.17-.53,.08-.67-.1-.15-.44-.24-.65-.2-3.27,.53-4.9,1.78-5.52,4.64-.42,1.92-.73,3.86-1.12,5.79-.46,2.25-1.94,3.55-4.09,4.12-2.54,.68-5.1,.43-7.66,.08-1.28-.17-2.26-.86-2.91-1.93-.61-1-1.11-2.07-1.64-3.11-.79-1.56-1.43-3.2-2.36-4.67-1.34-2.13-3.36-3.56-5.62-4.72,.56-.39,1.23-.67,.99-1.52-.24-.88-.88-1.09-1.67-.98-.53-1.17-.54-1.17-1.52-.18-.23-.28-.46-.56-.69-.84l-.15,.34c-.39,.13-.99,.15-1.14,.42-.37,.65-1.44,.99-.96,2.03-1.08,.03-1.22,.3-1.13,1.78-.3,.4-.66,.69-.62,.87,.15,.66-.26,.96-.6,1.37-.4,.49-.92,1.03-.49,1.65,.87-.22,1.62-.41,2.32-.58,.19,1.11,.25,2.02,.52,2.86,.33,1.04,1.27,1.39,2.25,.91,.41-.2,.73-.6,1.15-.96,.53,1.21,.56,2.5,.31,3.69-.7,3.34-1.42,6.68-2.38,9.95-1.13,3.87-.82,7.51,1.15,11,1.23,2.17,3.05,3.59,5.58,4.04,3.34,.59,5.92,2.32,7.55,5.35,.13,.24,.29,.46,.44,.69,.9,1.35,1.86,2.64,3.39,3.37,.14,.07,.29,.36,.26,.5-.32,1.57-.56,3.17-1.07,4.68-.4,1.17-1.44,1.74-2.73,1.71-.41,0-.82,.04-1.35,.07,.21,.23,.3,.33,.4,.43-1.17,.21-2.29,.4-3.41,.6,0,.1,.02,.2,.03,.3,.28,.02,.57,.07,.85,.06,1.26-.05,2.51-.13,3.77-.17,.79-.02,.97,.24,.77,1.01-.1,.38-.2,.75-.36,1.34,.86-.9,1.42-1.91,2.27-2.26,.87-.36,2.01-.08,3.12-.08-.29-.13-.55-.25-.81-.35-1.23-.45-1.5-.82-1.43-2.13,.16-3.13,1.5-5.6,4.11-7.37,.67-.46,1.27-.74,2.07-.26,.35,.21,.85,.17,1.26,.31,.22,.07,.51,.27,.55,.45,.25,1.28,.57,2.57,.63,3.87,.09,1.94-.63,2.85-2.43,3.51-.28,.1-.55,.26-.82,.39,.02,.05,.03,.11,.05,.16l.5,.06c-1.1,.62-2.13,1.2-3.15,1.77l.13,.27c.33-.08,.67-.13,.98-.25,1.06-.43,2.12-.88,3.17-1.33,.92-.39,1.23-.18,1.29,.83,.02,.33,.04,.65,.06,.98,.52-.92,.69-2.05,1.35-2.65,.69-.63,1.85-.75,3.02-1.16-.44-.02-.68-.05-.92-.05-1.4-.01-1.73-.16-2.03-1.5-.29-1.26-.48-2.59-.45-3.87,.04-1.51,.46-2.73,2.31-3.32,3.01-.97,4.93-3.34,6.35-6.1,1.27-2.47,2.05-5.01,.98-7.79-.17-.45-.31-.92,.17-1.35,.99-.88,1.35-2.03,1.26-3.33-.07-.95,.21-1.68,1.02-2.26,1.08-.76,1.41-1.82,1.06-3.11-.3-1.11-.6-2.22-.81-3.34-.08-.41,.04-.87,.12-1.3,.11-.61,.55-1.33,.35-1.78-.33-.74-.09-1.17,.22-1.75,.57-1.03,.49-1.35-.26-2.24Z"/><path class="c" d="M228.1,162.2c.02-.09,.04-.19,.06-.28,.03-.13,.06-.26,.09-.4,.01-.1,.03-.19,.04-.29,.02-.14,.05-.29,.06-.43,.01-.13,.02-.27,.03-.4,0-.13,.01-.25,.03-.4v-.21c-.02-.14-.03-.27-.01-.41,0-.11-.01-.21-.03-.31,0-.04-.01-.09-.02-.12-.01-.25-.07-.48-.12-.7l-.03-.14c-.02-.07-.04-.13-.06-.2-.02-.06-.04-.11-.06-.2-.01-.03-.03-.07-.05-.11-.01-.02-.02-.03-.03-.07-.02-.03-.03-.07-.03-.1l-.02-.05c-.02-.07-.05-.12-.09-.2l-.03-.07s-.03-.07-.06-.12c-.03-.04-.05-.08-.09-.16-.01-.02-.03-.04-.04-.06-.01-.02-.03-.05-.04-.07-.02-.05-.05-.09-.08-.13l-.03-.04s-.07-.1-.11-.14c-.11-.14-.22-.29-.38-.42-.03-.02-.06-.05-.08-.08l-.25-.19c-.08-.06-.15-.11-.25-.16-.04-.02-.07-.04-.13-.07-.04-.03-.09-.05-.13-.07-.02,0-.04-.01-.09-.04-.03,0-.06-.02-.09-.03l-.09-.03c-.05-.01-.09-.02-.16-.05-.13-.04-.27-.06-.39-.07-.08,0-.16-.02-.29-.04h-.41c-.1,.02-.2,.03-.25,.04-.06,0-.1,.01-.13,.02h-.06c-.18,.04-.35,.09-.51,.15-.12,.04-.22,.08-.31,.13l-.09,.04c-.06,.03-.12,.06-.18,.07l-.05,.02s-.03,.02-.05,.03c-.03,.01-.06,.03-.08,.05-.04,.03-.09,.06-.12,.07l-.14,.09s-.1,.06-.15,.1c-.03,.02-.07,.05-.1,.07-.1,.06-.19,.14-.27,.22l-.07,.06c-.11,.07-.18,.14-.26,.22-.01,.01-.03,.02-.04,.03-.02,.02-.04,.03-.07,.06-.18,.18-.35,.37-.5,.55l-.18,.23s-.07,.09-.1,.14c-.03,.04-.05,.08-.08,.11-.06,.08-.13,.17-.17,.24-.03,.04-.07,.09-.1,.14-.02,.04-.05,.07-.08,.12-.03,.05-.06,.1-.09,.16-.02,.04-.04,.08-.07,.12-.05,.08-.1,.17-.14,.26-.03,.05-.05,.1-.09,.16-.03,.03-.06,.08-.07,.12-.03,.06-.05,.12-.07,.18l-.04,.12c-.09,.18-.17,.37-.25,.59l-.03,.07c-.04,.09-.08,.17-.1,.25-.02,.07-.04,.14-.06,.21l-.02,.08c-.03,.06-.04,.11-.05,.15h0c-.04,.09-.06,.16-.06,.23l-.09,.3v.05s-.02,.09-.03,.13c-.03,.12-.05,.24-.07,.37,0,.06-.02,.11-.03,.16-.01,.07-.03,.14-.03,.23,0,.04-.01,.09-.03,.16-.01,.13-.01,.27-.01,.4,0,.02,0,.05,0,.08,0,.04,0,.08,0,.12v.49c0,.06,0,.11,0,.16,0,.1,0,.19,.03,.3,0,.02,0,.04,0,.07,0,.04,0,.09,0,.11,0,.08,.01,.14,.03,.21v.05c.03,.07,.04,.14,.05,.21,.01,.06,.02,.12,.04,.19,.02,.06,.03,.12,.04,.18,.02,.06,.03,.13,.05,.2l.05,.16c.04,.13,.08,.27,.13,.37,.02,.06,.06,.14,.08,.17,.09,.21,.2,.42,.34,.64,.06,.1,.15,.19,.21,.27,.03,.04,.06,.07,.11,.13,.03,.05,.07,.11,.13,.17,.02,.02,.03,.03,.06,.05,.02,.02,.04,.03,.09,.08,.01,0,.03,.02,.04,.03,.03,.03,.06,.05,.09,.08,.05,.03,.1,.07,.14,.1,.14,.1,.29,.21,.47,.28,.11,.05,.22,.1,.36,.15l.38,.1c.1,.02,.2,.03,.3,.03,.05,0,.1,0,.17,.01h.15c.5-.02,.84-.08,1.13-.2,.02,0,.03-.01,.07-.02l.09-.02s.11-.04,.14-.06l.07-.03c.09-.04,.17-.07,.22-.11,.1-.05,.19-.1,.28-.15,.03-.02,.07-.04,.1-.06,.06-.04,.12-.07,.14-.09,.06-.03,.12-.08,.18-.12,.03-.02,.05-.04,.08-.06,.1-.06,.2-.13,.25-.2l.05-.04c.07-.05,.14-.11,.19-.17l.2-.2s.03-.03,.05-.04c.02-.02,.04-.04,.08-.08,.04-.05,.09-.1,.14-.15,.05-.06,.1-.11,.16-.18l.03-.05s.04-.05,.03-.05c.04-.04,.07-.08,.1-.13,.03-.03,.05-.07,.08-.1,.04-.04,.07-.08,.12-.16,.06-.08,.12-.15,.16-.22l.06-.1c.03-.05,.06-.1,.09-.14l.03-.04s.05-.07,.07-.11c.02-.03,.03-.05,.04-.08,0-.02,.01-.03,.04-.06,.02-.04,.04-.08,.07-.11,.03-.05,.06-.09,.08-.14l.04-.08c.04-.07,.08-.14,.09-.2l.04-.08c.04-.07,.07-.13,.1-.2,.03-.05,.04-.1,.06-.15,.13-.29,.23-.54,.29-.74,.06-.11,.09-.22,.12-.34,.02-.05,.03-.1,.05-.15,.02-.05,.04-.11,.06-.18Zm-.83-2.45c-.01,.08,0,.16,0,.22v.07c-.01,.25-.03,.5-.07,.77-.02,.16-.03,.32-.08,.47-.03,.17-.06,.32-.08,.44-.04,.09-.05,.16-.07,.24-.06,.22-.12,.43-.21,.66,0,.02-.02,.05-.03,.07-.02,.04-.04,.09-.04,.11l-.03,.1s-.02,.07-.04,.1l-.11,.23c-.08,.18-.16,.35-.25,.51-.04,.06-.07,.12-.1,.18-.03,.06-.07,.12-.08,.15-.05,.05-.07,.1-.1,.15,0,.02-.02,.04-.05,.08-.03,.04-.07,.09-.08,.11-.05,.06-.09,.12-.13,.18-.03,.05-.07,.1-.12,.17-.04,.05-.07,.1-.11,.15-.04,.06-.09,.12-.12,.16-.18,.2-.36,.38-.56,.57-.02,.02-.04,.03-.06,.04-.03,.02-.07,.05-.1,.08-.02,.02-.04,.04-.07,.06-.03,.02-.06,.05-.08,.07-.02,.02-.05,.04-.08,.06l-.09,.07s-.08,.05-.13,.08c-.05,.03-.09,.06-.14,.1l-.11,.07s-.06,.03-.09,.05c-.03,.02-.06,.03-.09,.05-.09,.04-.19,.09-.26,.12-.08,.01-.14,.04-.2,.06l-.47,.1c-.15,.01-.28,.03-.52,0-.05,0-.11-.01-.2-.04-.08-.01-.13-.03-.17-.04-.03-.02-.06-.03-.1-.04-.03-.01-.06-.02-.11-.05-.11-.05-.22-.12-.35-.21-.01,0-.03-.02-.04-.02-.02-.03-.04-.06-.08-.08l-.02-.02s-.05-.05-.06-.07l-.04-.05s-.05-.04-.07-.06c-.03-.02-.05-.04-.07-.07l-.03-.05s-.04-.06-.06-.07l-.04-.05s-.05-.07-.08-.13c-.07-.1-.12-.21-.19-.37l-.09-.17s-.02-.06-.03-.09c-.02-.05-.03-.09-.05-.13-.02-.06-.04-.12-.05-.2,0-.04-.02-.08-.03-.12,0-.03-.02-.06-.03-.09l-.06-.29c0-.06-.02-.11-.02-.22,0-.03-.01-.07-.01-.11,0-.04,0-.09-.01-.13-.03-.21-.03-.48-.01-.79v-.23c0-.05,.01-.1,.01-.14,0-.04,0-.08,.01-.11,0-.04,.01-.09,.02-.14,0-.04,0-.07,.01-.11,.01-.07,.02-.13,.03-.2,.01-.09,.02-.18,.05-.29,.01-.09,.03-.16,.05-.24,0-.03,.02-.07,.03-.1,.01-.04,.03-.08,.04-.13,.01-.07,.02-.13,.06-.23,0-.03,.01-.06,.03-.09,.01-.04,.03-.08,.04-.13,.02-.13,.06-.25,.13-.39,.02-.05,.03-.09,.04-.13l.02-.07s.04-.1,.06-.15c0-.03,.02-.05,.02-.07l.1-.2s.02-.04,.03-.06c.02-.04,.05-.08,.06-.14l.1-.2s.04-.08,.05-.1l.12-.24s.03-.04,.04-.06c.03-.04,.05-.07,.06-.1l.07-.11c.06-.09,.11-.17,.16-.26,.03-.06,.07-.11,.12-.16,.04-.04,.07-.09,.11-.14,.06-.1,.14-.2,.24-.29,.05-.05,.1-.1,.13-.15,.03-.03,.06-.07,.08-.1,.01-.02,.03-.03,.03-.04,.06-.05,.11-.1,.16-.14,.05-.04,.1-.09,.15-.14,.04-.04,.08-.08,.12-.12,.06-.04,.1-.08,.15-.13,.06-.03,.13-.07,.17-.11,.02-.02,.04-.03,.06-.04,.03-.02,.07-.04,.1-.08,.06-.03,.12-.06,.15-.09,.05-.02,.08-.05,.08-.06,.03-.01,.05-.02,.08-.04,.07-.02,.13-.05,.17-.08l.22-.09s.05-.02,.11-.05l-.04-.18h0l.12,.17c.11-.02,.21-.07,.24-.09,.04-.02,.12-.02,.22-.02,.08-.01,.16-.01,.24-.01h.07c.25,0,.52,.06,.79,.18,.03,.01,.06,.03,.08,.05,.03,.02,.06,.04,.1,.06,.09,.04,.17,.11,.27,.21l.14,.14c.09,.09,.18,.21,.23,.29l.06,.1c.05,.07,.09,.14,.13,.22,.02,.07,.05,.12,.07,.16,0,.01,.02,.03,.02,.04,.02,.04,.03,.07,.04,.1,.01,.03,.02,.07,.04,.1,.17,.47,.27,.9,.29,1.34,0,.05,0,.1,.02,.15,0,.04,.01,.07,.01,.11,0,.03,0,.07,0,.1,0,.05,0,.09,0,.13Z"/><path class="c" d="M217.24,165.66c-.18-.09-.45-.07-.57,.02-.11,.06-.18,.18-.24,.27l-.04,.07c-.06,.1-.12,.19-.18,.24-.08,.07-.17,.14-.27,.2-.07,.05-.18,.09-.29,.13-.11,.04-.24,.05-.39,.07-.1,.01-.21,.02-.32,.02h-.32s-.08-.01-.12-.02c-.03,0-.07,0-.1-.01-.07-.02-.14-.03-.21-.04-.07-.01-.14-.02-.21-.04-.04,0-.08-.01-.12-.02-.03,0-.05,0-.08-.01-.03,0-.06-.02-.09-.03-.03-.01-.07-.02-.1-.03h-.06c-.11-.04-.22-.06-.33-.11l-.06-.02c-.1-.02-.2-.05-.29-.08-.07-.03-.14-.05-.22-.07-.04,0-.09-.03-.18-.08l-.06-.02c-.1-.02-.2-.05-.29-.08h0s.08-.04,.13-.06l.04-.03s.03-.01,.06-.02c.09-.03,.14-.09,.14-.09,.02-.01,.05-.03,.08-.04,.06-.03,.13-.06,.18-.11,.02-.02,.06-.04,.09-.05,.05-.03,.09-.06,.13-.09,.07-.06,.14-.1,.21-.14,.1-.06,.18-.12,.26-.19,.05-.04,.1-.08,.16-.12l.26-.2s.06-.04,.1-.08c.02-.02,.04-.04,.08-.06l.07-.06s.07-.06,.15-.11c.06-.06,.11-.11,.18-.17,.04-.03,.08-.06,.11-.1,.03-.02,.05-.05,.07-.07l.06-.05s.06-.05,.06-.05c.03-.03,.05-.05,.08-.09,.07-.06,.13-.13,.2-.19,.06-.06,.12-.12,.19-.18,.04-.04,.07-.08,.1-.12,.02-.03,.04-.06,.07-.09,.18-.2,.35-.4,.51-.6,.08-.09,.14-.18,.2-.27,.04-.06,.08-.11,.13-.17,.06-.08,.11-.18,.16-.27l.06-.09s.05-.06,.07-.11c.03-.04,.04-.07,.05-.09l.03-.06s.02-.02,.03-.03l.03-.04c.03-.05,.05-.1,.08-.16,.02-.03,.03-.07,.05-.11,.08-.15,.17-.34,.24-.55,0-.05,.03-.1,.07-.17l.03-.07c.06-.19,.13-.39,.17-.58,.01-.04,.03-.09,.03-.16,.02-.05,.02-.1,.03-.14v-.04s.05-.07,.05-.13c0-.03,0-.06,0-.07l.02-.08s.01-.06,0-.06c.05-.24,.08-.53,.08-.91,0-.04,0-.09,0-.13,0-.03,0-.06,0-.1l-.02-.26s0-.05-.01-.07c0-.04-.01-.09-.02-.12,0-.03,0-.06-.01-.1,0-.04,0-.09-.02-.12,0-.04-.02-.08-.04-.11,0-.02-.02-.05-.02-.07v-.06s-.04-.1-.05-.15c-.02-.05-.05-.13-.1-.22-.04-.1-.09-.2-.15-.31l-.04-.06s-.04-.07-.05-.08c-.07-.13-.18-.27-.34-.43-.06-.08-.13-.13-.21-.19l-.06-.05c-.08-.08-.18-.15-.31-.23l-.05-.02s-.04-.02-.07-.03h-.03c-.05-.05-.1-.08-.17-.12l-.06-.02s-.07-.02-.13-.05l-.08-.03c-.15-.06-.32-.12-.49-.14-.04-.01-.08-.02-.13-.03l-.08-.02c-.18-.04-.35-.05-.53-.06h-.36c-.06,0-.13,0-.2,.02-.12,.01-.25,.02-.35,.05-.04,0-.09,.02-.13,.04-.03,0-.06,.02-.09,.03-.1,.01-.19,.03-.29,.09-.02,.01-.05,.02-.09,.03-.04,0-.08,.02-.12,.04-.07,.03-.14,.06-.22,.11-.07,.03-.13,.06-.21,.1-.13,.08-.25,.17-.35,.26-.04,.02-.08,.04-.12,.09l-.06,.05s-.07,.04-.1,.08l-.23,.25c-.05,.06-.1,.12-.14,.18-.04,.05-.08,.1-.11,.15-.07,.08-.12,.18-.16,.26-.02,.04-.04,.09-.06,.12-.06,.08-.1,.17-.12,.24-.02,.04-.04,.09-.05,.14,0,.03-.02,.06-.04,.1-.01,.03-.03,.06-.03,.08-.01,.02-.04,.08-.05,.15-.03,.08-.06,.15-.07,.21-.01,.03-.02,.06-.02,.1l-.05,.18c0,.05-.01,.1-.02,.15,0,.04,0,.08-.02,.15,0,.08,0,.16-.01,.26-.02,.22,.01,.42,.05,.59v.07c.02,.07,.03,.14,.05,.21,.09,.26,.16,.47,.28,.66,.04,.09,.11,.15,.16,.2,.03,.03,.04,.05,.06,.07,.03,.03,.05,.07,.1,.11,.02,.02,.04,.04,.06,.06,.03,.03,.06,.06,.09,.08,.1,.07,.22,.11,.34,.11,.23,0,.38-.15,.48-.27,.1-.13,.15-.4,.06-.55-.05-.13-.15-.2-.23-.27l-.04-.03s-.02-.03-.03-.05c-.01-.02-.03-.04-.06-.09-.01-.02-.03-.04-.06-.09l-.03-.05s-.03-.06-.04-.06c0-.03,0-.05-.01-.07,0-.03,0-.06-.02-.11-.04-.12-.07-.3-.07-.4,.01-.05,.01-.1,.01-.13,0-.02,0-.04,0-.07,.01-.14,.03-.3,.07-.43,.01-.03,.02-.07,.03-.11l.03-.09c.04-.12,.08-.24,.14-.36,.02-.06,.06-.13,.1-.19,.03-.05,.06-.11,.1-.18l.04-.05s.04-.06,.07-.09c.03-.04,.06-.08,.1-.13,.03-.04,.07-.07,.1-.11l.04-.04s.09-.07,.12-.1l.04-.03s.06-.03,.08-.06c.12-.11,.25-.19,.41-.25l.04-.02c.08-.03,.17-.06,.22-.09l.14-.05s.03,0,.05,0c.03,0,.07,0,.09-.01,.11-.02,.21-.03,.32-.05,.09-.01,.19-.01,.34,0,.11,0,.23,0,.29,0,.03,.01,.07,.02,.16,.03h.06s.03,.02,.05,.03l.04,.02s.08,.02,.16,.03c.4,.13,.72,.33,.96,.61,.03,.03,.06,.07,.09,.11,.02,.03,.04,.06,.06,.08,.09,.13,.15,.3,.21,.49,.02,.05,.03,.11,.04,.18l.02,.11c.02,.06,.03,.11,.04,.15,0,0,0,.04,0,.06,0,.03,0,.05,0,.09,.01,.17,.01,.34,0,.5,0,.06,0,.12-.01,.18,0,.11-.01,.23-.02,.3-.01,.03-.04,.12-.04,.17-.01,.05-.03,.1-.04,.15-.01,.05-.02,.1-.03,.14-.01,.05-.02,.1-.04,.16-.11,.38-.24,.74-.4,1.05-.02,.04-.04,.08-.05,.11-.02,.05-.04,.09-.06,.13l-.04,.06c-.04,.06-.09,.13-.1,.19-.09,.15-.19,.3-.31,.46-.03,.04-.06,.08-.09,.12l-.08,.1s-.04,.06-.06,.09c-.03,.04-.06,.08-.06,.09-.02,.02-.04,.04-.06,.07l-.21,.23s-.06,.08-.07,.1c-.04,.03-.08,.07-.11,.11-.02,.03-.04,.06-.1,.09-.03,.03-.07,.07-.1,.11-.03,.03-.06,.06-.08,.09-.06,.06-.12,.12-.19,.18-.07,.06-.13,.12-.18,.17-.08,.07-.15,.13-.21,.19-.05,.04-.1,.08-.15,.12-.09,.07-.19,.15-.29,.25-.02,.01-.05,.03-.06,.04l-.12,.09s-.07,.05-.11,.08c-.04,.03-.08,.05-.14,.1-.05,.04-.11,.09-.17,.12l-.04,.03s-.1,.08-.19,.12c-.04,.02-.08,.05-.12,.08-.04,.03-.07,.05-.1,.07-.07,.04-.15,.09-.22,.13-.05,.02-.08,.05-.11,.07l-.06,.04s-.03,.01-.07,.02c-.05,.02-.1,.05-.15,.08-.03,.02-.06,.04-.09,.05-.04,.02-.1,.03-.15,.07-.02,0-.04,.02-.06,.03l.09,.16-.15-.13s-.09,.04-.13,.06c-.04,.02-.08,.03-.09,.04-.05,.02-.11,.05-.16,.08-.02,0-.04,.02-.05,.03l-.22-.08s-.09-.05-.14-.07c-.02,0-.04-.01-.07-.02l-.06-.03s-.08-.03-.13-.05c-.04-.01-.08-.03-.13-.05-.04-.01-.07-.03-.11-.05-.05-.02-.1-.04-.17-.07-.04,0-.09-.03-.13-.05-.03-.01-.07-.03-.11-.04l-.08-.02c-.06-.02-.11-.03-.17-.06-.05-.02-.11-.03-.16-.05-.04,0-.08-.02-.12-.03-.05-.02-.1-.03-.14-.04-.04-.01-.09-.02-.13-.04-.13-.04-.26-.02-.31-.03-.12-.04-.3-.02-.39,0-.47,.02-.87,.18-1.12,.46-.07,.07-.12,.14-.19,.25-.02,.03-.04,.09-.06,.15l-.04,.13v.36c.04,.08,.06,.17,.1,.22,.03,.08,.08,.15,.13,.2l.03,.03c.07,.11,.16,.17,.22,.22,.05,.03,.1,.06,.15,.09l.08,.04c.14,.08,.32,.15,.55,.2,.4,.1,.87,.13,1.31,.06,.09-.02,.18-.03,.27-.05,.11-.02,.21-.03,.32-.06,.04-.02,.09-.03,.13-.04,.05-.01,.1-.02,.15-.04,.04-.01,.08-.02,.11-.03,.05-.01,.1-.03,.14-.04,.04-.01,.08-.03,.12-.04,.04,0,.08-.02,.13-.04,.08,0,.14-.04,.14-.04,.04-.01,.07-.03,.1-.05,.01,0,.04,.02,.06,.03,.03,.01,.05,.03,.06,.03,.1,.05,.2,.09,.24,.09,.07,.04,.14,.06,.2,.09l.06,.03c.08,.03,.18,.06,.24,.08,.02,.01,.05,.02,.08,.03l.06,.03s.09,.03,.13,.04l.07,.03c.06,.02,.12,.05,.2,.07,.07,.01,.15,.04,.22,.07,.05,.02,.1,.03,.14,.04,.04,.01,.08,.02,.12,.03l.05,.02c.06,.02,.13,.05,.21,.08l.22,.06c.11,.03,.21,.06,.31,.08,.09,.03,.18,.05,.28,.06,.26,.07,.55,.12,.92,.16h.16s.08,0,.11,0h.18c.28,0,.59-.03,.9-.11,.06-.02,.12-.03,.18-.04l.08-.03s.07-.04,.1-.04c.14-.04,.26-.11,.36-.18l.04-.03s.07-.05,.11-.08c.06-.04,.12-.08,.18-.13l.05-.05s.05-.04,.07-.07c.03-.03,.06-.06,.1-.1l.04-.03c.07-.08,.12-.16,.17-.26l.02-.03c.1-.12,.17-.26,.21-.44v-.19c-.05-.11-.13-.27-.31-.38Zm-8.53,.35c-.2,.03-.38,0-.69-.05-.04,0-.09-.01-.12-.02l-.05-.02s-.08-.03-.11-.04c.05-.02,.11-.03,.17-.03h.15c.07,0,.15,0,.24,.02,0,0,.04,0,.09,.02h.05s.06,0,.09,.02c.01,0,.04,.02,.06,.03,.04,.02,.08,.04,.13,.05,.02,0,.04,0,.06,.01-.02,0-.03,0-.05,0Z"/><path class="c" d="M177.19,202.09c-4.55,1.63-9.24,2.46-13.94,2.46-14.03,0-26.92-7.19-34.44-18.59h-14.74c8.86,19.18,28.03,31.51,49.18,31.51,6.21,0,12.37-1.08,18.31-3.21,13.62-4.89,24.53-14.79,30.71-27.88,.07-.14,.13-.28,.18-.42h-14.79c-4.88,7.42-11.96,13.08-20.47,16.13Z"/><polygon class="c" points="121.64 226.36 121.42 226.41 117.68 232.26 117.76 232.6 119.2 233.52 120.11 233.61 120.89 233.15 123.53 229.02 123.62 228.11 123.15 227.33 121.64 226.36"/><path class="c" d="M266.7,126.12c-20.5-57.14-83.44-86.83-140.58-66.33-57.14,20.5-86.83,83.44-66.33,140.58,20.5,57.14,83.44,86.83,140.58,66.33,57.14-20.5,86.83-83.44,66.33-140.58Zm-12.61,79.99c-11.45,24.26-31.66,42.62-56.92,51.68-10.97,3.94-22.39,5.93-33.93,5.93-42.27,0-80.26-26.74-94.55-66.55-9.05-25.21-7.72-52.48,3.74-76.77,11.46-24.29,31.66-42.65,56.87-51.7,10.97-3.94,22.38-5.93,33.92-5.93,42.27,0,80.26,26.74,94.55,66.55,9.06,25.25,7.75,52.52-3.7,76.79Z"/></g></g></svg>