<?xml version="1.0" encoding="UTF-8"?><svg id="a" xmlns="http://www.w3.org/2000/svg" viewBox="0 0 502.3 491.86"><defs><style>.b{fill:#fff;}</style></defs><path class="b" d="M390.93,342.33c-.54,1.22-1.09,2.43-1.62,3.66-7.27,16.63-14.55,33.27-21.83,49.9-.17,.4-.44,.76-.68,1.17-1.18-.28-1.26-1.32-1.59-2.07-2.73-6.17-5.42-12.37-8.13-18.55-4.41-10.11-8.83-20.21-13.24-30.32-.44-1-.86-2.02-1.53-2.94,0,2.09,0,4.17,0,6.26,0,12.61,.08,25.22-.04,37.82-.03,3.87,.43,7.61,1.51,11.3,.46,1.56,.79,3.15,1.23,4.93h-22.68c.71-2.88,1.44-5.6,2.02-8.36,.32-1.53,.56-3.1,.56-4.66,.04-20.64-.06-41.28,.08-61.91,.03-5.09-.54-10-1.97-14.85-.25-.85-.42-1.73-.62-2.59,1.58-.54,22.48-.72,26.05-.22,6.34,14.31,12.74,28.75,19.08,43.07,6.33-14.31,12.71-28.73,19.1-43.18h25.96c-.11,.78-.11,1.44-.3,2.03-1.89,5.78-2.17,11.71-2.13,17.76,.13,19.14,.08,38.27,.02,57.41-.01,3.41,.26,6.72,1.24,9.99,.53,1.77,.89,3.59,1.35,5.53h-24.67c.4-1.69,.66-3.22,1.12-4.69,1.29-4.05,1.64-8.17,1.6-12.4-.1-13.43-.03-26.87-.02-40.3,0-1.27,.03-2.55,.05-3.82,.11-.15,.21-.29,.08-.11,.03-.23,0-.03-.02,.17Z"/><path class="b" d="M235.83,167.03c-6,5.93-11.92,11.78-18.07,17.87h-35.7c-6.07-6.02-12.03-11.93-18.05-17.91v-60.87c5.99-5.92,11.92-11.76,18.07-17.83h35.72c6.04,6,12,11.91,18.03,17.9v60.84Zm-24.81-59.08c-3.38-2.44-6.81-3.48-10.65-3.02-.81,.1-1.66,.08-2.47,0-2.4-.24-4.52,.46-6.66,1.53-3.37,1.69-4.85,4.66-4.9,7.97-.2,14.26-.09,28.52-.06,42.78,0,.8,.15,1.65,.47,2.39,.64,1.51,1.44,2.96,1.89,3.87,4.55,4.21,9.67,3.11,14.56,3.34,3.03,.15,5.2-1.66,7.44-2.62,2.29-3.29,3.07-6.57,3.01-10.37-.2-13.13-.04-26.27-.04-39.4,0-.66-.09-1.37-.35-1.96-.74-1.64-1.59-3.22-2.23-4.51Z"/><path class="b" d="M361.52,88.35c-.64,2.58-1.21,5.05-1.87,7.49-.59,2.19-.9,4.38-.87,6.66,.07,5.78,.03,11.55,.03,17.33,0,1.26,0,2.53,0,3.85,.35-.3,.75-.6,1.1-.95,8.38-8.38,16.77-16.76,25.11-25.18,.71-.71,1.27-1.67,1.64-2.61,.84-2.16,1.52-4.37,2.28-6.63h25.78c.3,.27,.77,.7,1.42,1.29-9.69,9.72-19.25,19.32-28.9,29,.65,1.9,1.25,3.75,1.91,5.56,5.42,14.94,10.83,29.89,16.33,44.8,.88,2.37,2.16,4.6,3.38,6.83,1.61,2.95,3.34,5.83,5.04,8.76-1.67,.55-25.65,.72-29.07,.21-.22-1.75-.56-3.57-.67-5.41-.28-4.45-1.25-8.71-2.71-12.92-3.39-9.78-6.59-19.62-9.87-29.43-.17-.49-.37-.98-.59-1.57l-1.93-.2c-2.85,2.89-5.81,5.75-8.6,8.79-1.16,1.26-1.71,2.89-1.69,4.75,.09,6.23,.17,12.46,0,18.68-.13,4.56,.48,8.96,1.77,13.3,.38,1.27,.63,2.58,1.02,4.25-8.85,.05-17.43,.02-26.2,.01,.08-.78,.09-1.35,.21-1.9,.17-.8,.42-1.59,.65-2.38,1.23-4.35,1.74-8.76,1.72-13.31-.11-21.53-.06-43.07-.02-64.6,0-2.42-.26-4.77-.89-7.1-.65-2.38-1.19-4.79-1.81-7.36h26.33Z"/><path class="b" d="M233.86,310.74h54.4c5.26,5.25,10.51,10.49,15.94,15.9v22.67c-4.71,4.74-9.52,9.57-14.38,14.45,1.08,2.98,2.1,5.87,3.16,8.75,2.11,5.78,4.18,11.57,6.38,17.32,.64,1.67,1.6,3.21,2.48,4.78,1.29,2.29,2.64,4.54,3.95,6.82,.33,.57,.6,1.17,.91,1.78-1.74,.49-21.5,.64-25.2,.19-3.69-11.29-7.42-22.67-11.17-34.1-1.34-1.02-2.8-1.57-4.55-1.48-2.17,.1-4.35,.07-6.53,0-1.08-.03-1.9,.28-2.65,1.49,0,.52,0,1.34,0,2.15,0,5.4,.15,10.81-.05,16.21-.15,4.13,.66,8.04,1.71,11.96,.33,1.21,.58,2.44,.92,3.84h-25.33c.62-2.58,1.14-5.05,1.81-7.47,.54-1.98,.74-3.95,.74-6-.02-21.31-.04-42.63,.02-63.94,0-3.26-.26-6.42-1.19-9.55-.54-1.84-.9-3.74-1.38-5.78Zm22.81,17.13v22.35c.6,1.06,1.4,1.42,2.49,1.41,4.5-.03,9,0,13.49-.03,.58,0,1.2-.14,1.73-.38,1.97-.91,3.9-1.89,5.81-2.83,3.77-6.2,3.82-12.3-.02-18.41-1.84-.92-3.64-1.84-5.45-2.72-.46-.23-.97-.5-1.47-.51-5.09-.04-10.18-.02-15.49-.02l-1.08,1.13Z"/><path class="b" d="M168.17,381.32c-1.03,.55-1.49,1.41-1.74,2.51-.61,2.71-1.41,5.37-1.96,8.09-.23,1.14-.11,2.38,0,3.56,.15,1.72,.46,3.42,.67,5.13,.1,.88,.12,1.77,.2,2.99-8.23,0-16.28,.05-24.67-.04,1.35-2.71,2.62-5.09,3.71-7.54,.92-2.04,1.82-4.12,2.4-6.27,6.21-22.79,12.36-45.6,18.55-68.4,.39-1.43,.43-2.77,.06-4.2-.53-2.02-.95-4.07-1.41-6.09,1.69-.56,33.58-.64,35.9-.09-.47,2.17-.9,4.36-1.44,6.51-.31,1.21-.28,2.33,.05,3.53,3.3,12.08,6.56,24.17,9.83,36.26,2.72,10.06,5.51,20.11,8.11,30.2,1,3.89,2.46,7.54,4.31,11.08,.8,1.52,1.54,3.07,2.31,4.62-1.63,.56-24.77,.64-27.22,.09,.32-2.64,.58-5.31,.99-7.96,.24-1.6,.16-3.11-.29-4.66-.66-2.31-1.15-4.66-1.77-6.98-.5-1.88-1.15-2.45-2.97-2.46-7.66-.03-15.31,0-22.97,0-.22,0-.44,.07-.64,.11Zm21.53-17.84c-2.99-12.38-6.01-24.9-9.11-37.74-3.06,12.83-6.06,25.39-9.01,37.74,.59,1.4,1.53,1.63,2.67,1.62,4.28-.03,8.56-.03,12.84,0,1.07,0,1.92-.25,2.61-1.64Z"/><path class="b" d="M136.34,123.47v23.52c-1.37-.42-2.6-.7-3.74-1.18-4.45-1.85-9.06-2.55-13.86-2.19-1.42,.11-2.85,.02-4.62,.02l-1.14,1.19c0,6.89,.11,13.49-.04,20.09-.09,4.1,.39,8.06,1.54,11.98,.73,2.51,1.29,5.07,1.89,7.45-.13,.25-.16,.32-.21,.38-.05,.06-.11,.12-.18,.13-.29,.06-.58,.14-.87,.14-8.26,0-16.52,0-24.77-.03-.21,0-.42-.13-.8-.26,.07-.56,.06-1.15,.23-1.68,2.17-6.57,2.49-13.31,2.44-20.19-.16-20.26-.04-40.52-.08-60.79,0-1.7-.31-3.42-.67-5.09-.59-2.78-1.33-5.53-1.98-8.18,.11-.2,.14-.26,.18-.31,.05-.05,.11-.12,.18-.13,.44-.06,.89-.15,1.33-.15,17.79,0,35.58,0,53.59,0,2.3,6.82,4.58,13.6,6.97,20.69-.78-.14-1.27-.17-1.72-.32-2.71-.89-5.43-1.74-8.11-2.73-1.79-.66-3.59-.94-5.5-.92-6.53,.05-13.06,.02-19.59,.02-.82,0-1.64,0-2.57,0l-1.19,1.09v19.2c.58,1.27,1.61,1.64,2.93,1.62,2.78-.04,5.56,.04,8.33-.04,1.1-.03,2.23-.28,3.29-.6,2.16-.64,4.28-1.41,6.42-2.11,.7-.23,1.41-.4,2.31-.65Z"/><path class="b" d="M134.17,344.42v22.75c-1.03-.3-1.82-.46-2.55-.77-4.85-2.07-9.88-2.94-15.14-2.5-1.04,.09-2.1,.01-3.26,.01l-1.39,1.22c-.07,.35-.14,.56-.14,.78,0,7.65-.03,15.3,.02,22.96,0,1.18,.31,2.37,.59,3.53,.88,3.63,1.81,7.25,2.76,11.04h-26.11c.73-2.96,1.47-5.7,2.08-8.47,.3-1.38,.55-2.8,.55-4.21,.04-22.28,0-44.56,.05-66.85,0-2.84-.84-5.47-1.47-8.16-.37-1.59-.75-3.17-1.12-4.75,1.78-.47,50.85-.56,53.33-.13,2.14,6.43,4.31,12.92,6.63,19.89-2.37-.77-4.26-1.37-6.15-1.99-.57-.19-1.13-.41-1.69-.63-2.76-1.05-5.58-1.53-8.57-1.47-6.45,.13-12.9,.04-19.42,.04l-1.43,1.36v18.23l1.3,1.44c3.55,0,7.09,.22,10.59-.08,2.12-.18,4.17-1.15,6.24-1.8,1.35-.42,2.68-.9,4.3-1.44Z"/><path class="b" d="M262.09,88.35h27.1c-.83,3.38-1.54,6.59-2.42,9.75-.73,2.63-1,5.27-1,8,.04,18.76,.02,37.52,.02,56.29,0,.75,0,1.5,0,2.36l1.82,1.93c.72,.04,1.39,.11,2.06,.11,5.63,0,11.26-.04,16.89,0,1.83,.02,3.56-.26,5.28-.88,3.39-1.21,6.83-2.31,10.24-3.44,.4-.13,.83-.2,1.68-.41-2.61,7.82-5.1,15.3-7.61,22.81h-53.89c.09-.73,.15-1.3,.24-1.86,.05-.29,.16-.58,.25-.86,1.76-5.56,2.21-11.25,2.17-17.08-.14-20.79-.06-41.58-.04-62.37,0-2.12-.16-4.18-.73-6.22-.73-2.59-1.33-5.22-2.07-8.14Z"/><path class="b" d="M203.1,280.23h-13.07c-7.48-14.9-14.94-29.76-22.44-44.69,0,1.37,0,2.71,0,4.06,0,9.31,.07,18.61-.03,27.92-.04,3.42,.38,6.72,1.34,9.98,.25,.84,.44,1.7,.7,2.73h-16.89c.49-2.02,1.01-3.87,1.37-5.74,.3-1.53,.6-3.1,.61-4.65,.05-16.14,.05-32.27,.02-48.41,0-1.17-.25-2.38-.56-3.52-.56-2.07-1.25-4.11-1.94-6.31h19.47c6.18,12.33,12.34,24.66,18.41,36.78,0-1.18,0-2.61,0-4.03,0-6.6-.08-13.21,.04-19.81,.06-3.57-.31-7.03-1.34-10.43-.22-.71-.33-1.46-.5-2.18,1.53-.51,13.51-.66,16.71-.19-.4,1.59-.87,3.15-1.16,4.75-.33,1.83-.7,3.69-.7,5.54-.05,18.61-.03,37.22-.03,55.84,0,.73,0,1.47,0,2.37Z"/><path class="b" d="M124.49,280.29h-25.39c-4.29-4.32-8.51-8.57-12.96-13.06v-42.8c4.29-4.21,8.57-8.41,13.2-12.95h25.04c4.24,4.3,8.44,8.57,12.77,12.97v42.74c-4.32,4.46-8.48,8.77-12.67,13.1Zm-5.4-14.68c1.85-2.65,2.36-5.16,2.31-7.98-.14-8.4-.15-16.8,0-25.2,.05-2.73-.82-4.95-2.31-7.29-5.05-2.61-10.11-2.67-14.9,.09-1.8,2.54-2.26,5-2.22,7.73,.12,8.4,.13,16.8,0,25.2-.05,2.77,.63,5.15,2.43,7.64,4.81,2.43,9.82,2.59,14.71-.19Z"/><path class="b" d="M332.65,280.17c.42-1.78,.72-3.47,1.21-5.1,.55-1.82,.72-3.65,.71-5.54-.04-5.85,0-11.71,0-17.56,0-.96,.21-2-1.06-2.73h-16.73c-.2,.68-.61,1.41-.61,2.15-.05,6.75-.13,13.51,.03,20.26,.05,2.06,.85,4.09,1.3,6.14,.16,.71,.32,1.43,.55,2.51-6.34,.09-12.43,.06-18.83,.01,.55-2.22,1.06-4.08,1.47-5.96,.25-1.16,.49-2.36,.49-3.54,.03-15.61-.01-31.21,.05-46.82,.01-2.96-.28-5.82-1.09-8.65-.33-1.14-.55-2.3-.89-3.8,6.35-.05,12.45-.04,18.86-.02-.58,2.38-1.07,4.4-1.55,6.41-.17,.73-.42,1.46-.42,2.2-.04,5.32-.02,10.65-.02,15.73,.51,1.12,1.23,1.36,2.13,1.36,4.73-.01,9.46-.03,14.19,0,.93,0,1.59-.3,2.12-1.3,0-5.14,.1-10.47-.06-15.78-.05-1.84-.75-3.66-1.17-5.48-.21-.94-.46-1.87-.74-3.01h18.81c-.2,.91-.33,1.77-.58,2.59-1.1,3.55-1.39,7.16-1.37,10.87,.08,15.23-.02,30.46,.09,45.7,.02,2.27,.83,4.54,1.28,6.81,.16,.78,.35,1.56,.57,2.57h-18.75Z"/><path class="b" d="M366.77,211.51h39.55c1.59,4.72,3.21,9.52,4.92,14.6-.76-.11-1.27-.08-1.7-.27-5.14-2.24-10.51-2.79-16.05-2.48-2.91,.16-5.85,.03-9.03,.03-.26,.64-.72,1.28-.73,1.93-.07,3.6-.03,7.19-.03,10.6,.58,1.14,1.41,1.27,2.37,1.3,4.08,.15,8.09,0,11.88-1.78,.66-.31,1.4-.45,2.43-.77,.16,5.66,.07,11.07,.06,16.92-2.83-.89-5.24-1.97-7.76-2.35-2.56-.39-5.23-.09-7.69-.09-1.06,.45-1.31,1.16-1.31,2.06,.01,4.87,0,9.75,0,14.65,.49,.52,.95,1,1.38,1.46,.46,.04,.83,.11,1.2,.11,4.8,.01,9.61,.05,14.41,0,1.1-.01,2.23-.25,3.3-.57,2.3-.69,4.56-1.51,6.84-2.25,.46-.15,.96-.17,1.86-.33-1.83,5.48-3.55,10.62-5.37,16.05-13.43,.03-26.81,.02-40.5,0,.46-2,.76-3.68,1.24-5.3,.55-1.82,.73-3.65,.73-5.54-.03-15.23-.05-30.46,.01-45.7,.01-2.88-.29-5.67-1.08-8.43-.34-1.21-.61-2.44-.97-3.86Z"/><path class="b" d="M272.83,224.5c-1.03,.54-1.11,1.4-1.11,2.35,0,14.26-.01,28.51,.02,42.77,0,1.03,.23,2.09,.53,3.08,.74,2.43,1.59,4.83,2.51,7.6-7.04,.08-13.82,.05-20.9,.02,.8-2.38,1.46-4.42,2.17-6.45,.61-1.72,.88-3.45,.88-5.28-.04-13.73-.02-27.47-.02-41.2,0-1.04,.21-2.15-.73-2.7-6.8-1.38-12.9,.73-19.13,2.86,1.35-5.47,3.24-10.62,5.01-15.92h44.57c1.72,5.19,3.44,10.36,5.23,15.74-.56,0-.99,.09-1.35-.02-1.08-.31-2.16-.64-3.19-1.08-4.61-1.98-9.44-2.23-14.48-1.76Z"/><path d="M390.93,342.33c.03-.2,.05-.4,.02-.17,.13-.18,.02-.03-.08,.11l.06,.05Z"/></svg>